<svg width="64" height="37" viewBox="0 0 64 37" fill="none" xmlns="http://www.w3.org/2000/svg">
<path d="M23.1632 0.348972C19.682 0.750645 16.7434 3.10431 15.6582 6.37408C15.2918 7.47339 15.2072 8.02305 15.2072 9.25626C15.2072 11.2294 15.6794 12.7445 16.7928 14.3794C17.3354 15.1686 18.5334 16.3173 19.3367 16.8246C22.1555 18.5723 25.6719 18.6639 28.54 17.0642L28.998 16.8105L28.1172 16.578C24.8262 15.7112 22.4444 14.4357 20.7109 12.6176C19.4283 11.2646 18.6179 9.67203 18.2867 7.81164C18.0683 6.60662 18.181 3.80196 18.477 2.96337C18.5475 2.75901 18.5827 2.73787 18.8434 2.73787C19.7384 2.74492 21.5988 3.10431 22.8672 3.52008C24.5585 4.06974 25.9678 4.88718 27.0531 5.93717C28.3708 7.21266 29.0755 8.4811 29.5054 10.3485C29.5688 10.6234 29.6252 11.3492 29.6534 12.1455C29.6957 13.6042 29.6111 14.478 29.2869 15.9508C29.139 16.5991 28.8289 19.2065 28.8289 19.7632C28.8289 19.9041 29.0685 19.7561 30.6822 18.6146C31.697 17.8958 32.5849 17.2545 32.6554 17.1911C32.7752 17.0783 32.6835 17.0572 31.1755 16.9092C30.2946 16.8176 29.4913 16.726 29.3997 16.6978C29.2447 16.6485 29.2588 16.6273 29.6957 16.282C31.4081 14.9149 32.5849 12.9488 32.9654 10.8066C33.1134 9.98209 33.1134 8.53043 32.9654 7.70594C32.1409 3.07612 27.793 -0.19364 23.1632 0.348972Z" fill="white"/>
<path d="M5.82779 0.489986C2.83285 0.835285 1.00771 2.44198 0.338249 5.31007C0.197311 5.92315 0.190264 6.1557 0.169124 12.1597L0.140936 18.3821H2.74829H5.36269V16.3032V14.2244H6.10262H6.84254V11.8989V9.57345H6.09557H5.3486L5.37679 8.10769C5.39793 6.71945 5.40497 6.63489 5.5741 6.29664C5.7996 5.83859 6.11671 5.62718 6.57476 5.62718C7.11033 5.62718 7.38516 5.77517 7.56837 6.16979L7.72341 6.50804L7.74455 12.4415L7.76569 18.3821H10.373H12.9804L12.9522 12.0187C12.9311 6.31073 12.917 5.59899 12.8042 5.02819C12.5294 3.59767 12.0995 2.69567 11.3244 1.92051C10.9227 1.51884 10.6902 1.35676 10.1546 1.09602C8.92843 0.511127 7.43448 0.299719 5.82779 0.489986Z" fill="white"/>
<path d="M56.8474 0.489986C53.8525 0.835285 52.0273 2.44198 51.3579 5.31007C51.2169 5.92315 51.2099 6.1557 51.1887 12.1597L51.1605 18.3821H53.7679H56.3823V16.3032V14.2244H57.1222H57.8621V11.8989V9.57345H57.1152H56.3682L56.3964 8.10769C56.4175 6.71945 56.4246 6.63489 56.5937 6.29664C56.8192 5.83859 57.1363 5.62718 57.5944 5.62718C58.1299 5.62718 58.4048 5.77517 58.588 6.16979L58.743 6.50804L58.7641 12.4415L58.7853 18.3821H61.3926H64L63.9718 12.0187C63.9507 6.31073 63.9366 5.59899 63.8238 5.02819C63.549 3.59767 63.1191 2.69567 62.344 1.92051C61.9423 1.51884 61.7098 1.35676 61.1742 1.09602C59.948 0.511127 58.4541 0.299719 56.8474 0.489986Z" fill="white"/>
<path d="M35.5939 6.68424C35.5939 12.6741 35.6221 13.4211 35.8758 14.4499C36.1718 15.6479 36.5875 16.416 37.3979 17.2264C38.2929 18.1355 39.3499 18.5865 40.9355 18.7415C43.3737 18.9952 45.6358 18.1566 46.9113 16.5429C47.5878 15.6902 47.9119 14.9784 48.1374 13.858C48.2713 13.2167 48.2784 12.8714 48.2784 7.0084V0.835306H45.7062H43.1412L43.12 6.73357C43.0989 12.6318 43.0989 12.6389 42.9438 12.9701C42.7465 13.3999 42.4435 13.5902 41.9643 13.5902C41.5204 13.5902 41.2033 13.3929 40.9919 12.9912C40.8439 12.7093 40.8439 12.6389 40.8227 6.7688L40.8016 0.835306H38.2013H35.5939V6.68424Z" fill="white"/>
<path d="M21.7186 5.32407C21.3803 5.4932 21.183 5.9442 21.2887 6.32473C21.3944 6.73346 21.7045 6.966 22.1484 6.966C22.4514 6.966 22.529 6.93782 22.7333 6.73346C23.0363 6.43044 23.0998 6.17675 22.9729 5.81031C22.7897 5.28179 22.24 5.07039 21.7186 5.32407Z" fill="white"/>
<path d="M3.35433 21.6659C1.8181 22.0041 0.634221 23.1528 0.169126 24.7595C0.0563752 25.14 0.0422814 25.739 0.0211407 31.0806L0 36.9859H2.21978H4.43955L4.46069 31.7853C4.48183 26.6903 4.48183 26.5846 4.62982 26.345C4.87646 25.9152 5.42612 25.8799 5.62343 26.2746C5.6939 26.4085 5.71504 27.6346 5.71504 31.7148V36.9859H7.97005H10.2251V31.8064C10.2251 26.2675 10.2251 26.2534 10.5633 26.0702C10.824 25.9293 11.12 25.9786 11.275 26.1759C11.423 26.3591 11.423 26.4085 11.423 31.6725V36.9859H13.678H15.9331V31.6091C15.9331 25.1964 15.9049 24.8229 15.327 23.6108C14.566 22.0323 12.7831 21.2713 10.7395 21.6589C9.74587 21.8491 8.90729 22.3988 8.28716 23.2726C8.13213 23.484 7.98414 23.6672 7.963 23.6672C7.94186 23.6672 7.82207 23.5122 7.70227 23.3219C7.23717 22.6102 6.40564 21.983 5.58115 21.7223C5.08787 21.5602 3.93922 21.532 3.35433 21.6659Z" fill="white"/>
<path d="M22.2048 22.0253C20.2951 22.2438 18.9844 23.322 18.4911 25.0766C18.3783 25.4924 18.3642 25.8729 18.3642 29.481V33.4272L18.5475 34.0051C19.0055 35.4567 19.985 36.3517 21.6058 36.7886C22.1132 36.9225 22.3951 36.9436 24.5514 36.9718L26.9262 37V34.8436V32.6873L25.1152 32.6802C23.8961 32.6802 23.2125 32.6521 23.0504 32.5957C22.6769 32.4688 22.5219 32.0178 22.7051 31.6091C22.8602 31.2638 22.9588 31.2427 24.8685 31.2215L26.6443 31.2004V29.5162V27.832L25.0306 27.8108C23.5155 27.7897 23.4028 27.7826 23.2125 27.6417C22.7685 27.3105 22.8461 26.641 23.3605 26.4085C23.6142 26.2958 23.8467 26.2746 25.2913 26.2746H26.9262V24.1253V21.976L24.6924 21.9901C23.4591 21.9901 22.3387 22.0112 22.2048 22.0253Z" fill="white"/>
<path d="M28.1242 24.1253V26.2746H29.8507H31.5772V31.6302V36.9859H33.797H36.0167V31.6302V26.2746H37.7432H39.4697V24.1253V21.976H33.797H28.1242V24.1253Z" fill="white"/>
<path d="M44.6844 22.0253C42.7747 22.2438 41.464 23.322 40.9707 25.0766C40.858 25.4924 40.8439 25.8729 40.8439 29.481V33.4272L41.0271 34.0051C41.4851 35.4567 42.4646 36.3517 44.0854 36.7886C44.5928 36.9225 44.8747 36.9436 47.031 36.9718L49.4059 37V34.8436V32.6873L47.5948 32.6802C46.3757 32.6802 45.6921 32.6521 45.5301 32.5957C45.1566 32.4688 45.0015 32.0178 45.1848 31.6091C45.3398 31.2638 45.4384 31.2427 47.3482 31.2215L49.124 31.2004V29.5162V27.832L47.5102 27.8108C45.9951 27.7897 45.8824 27.7826 45.6921 27.6417C45.2482 27.3105 45.3257 26.641 45.8401 26.4085C46.0938 26.2958 46.3264 26.2746 47.771 26.2746H49.4059V24.1253V21.976L47.172 21.9901C45.9388 21.9901 44.8183 22.0112 44.6844 22.0253Z" fill="white"/>
<path d="M52.0837 29.4809V36.9859H54.3035H56.5232V31.4822V25.9716L57.3195 26.0068C58.5175 26.0561 58.9192 26.3239 58.9192 27.085C58.9192 27.8178 58.5316 28.1772 57.6789 28.2336L57.1575 28.2688V30.1786V32.0883L58.2497 34.5195L59.3349 36.9506L61.6604 36.9718C62.943 36.9788 63.9929 36.9718 63.9929 36.9436C63.9929 36.9224 63.4221 35.5272 62.7316 33.85L61.4631 30.7987L62.041 30.2138C62.9711 29.2625 63.3517 28.4168 63.4081 27.1554C63.4503 26.1618 63.3235 25.5346 62.9007 24.6749C62.1678 23.1951 60.7584 22.279 58.8487 22.0464C58.5246 22.0112 56.8685 21.976 55.1702 21.976H52.0837V29.4809Z" fill="white"/>
</svg>
