<svg width="49" height="56" viewBox="0 0 49 56" fill="none" xmlns="http://www.w3.org/2000/svg">
<rect x="6.5" y="0.239014" width="36" height="37.8585" rx="12" fill="#F0F9FF"/>
<path fill-rule="evenodd" clip-rule="evenodd" d="M23.3803 23.3538L19.5713 25.553C18.3693 26.247 17.9574 27.7841 18.6514 28.9861C19.3454 30.1882 20.8825 30.6001 22.0846 29.9061L25.8935 27.707L23.3803 23.3538ZM18.943 24.4647C17.1399 25.5057 16.5221 27.8114 17.5631 29.6145C18.6042 31.4176 20.9098 32.0354 22.7129 30.9944L27.3381 28.324C27.4883 28.2373 27.5399 28.0451 27.4531 27.8949L23.9973 21.9093C23.9106 21.759 23.7184 21.7076 23.5682 21.7944L18.943 24.4647Z" fill="#006BB2"/>
<path fill-rule="evenodd" clip-rule="evenodd" d="M24.6257 22.9975L28.7068 20.6413C29.7586 20.034 31.1035 20.3944 31.7108 21.4462C32.3181 22.4981 31.9577 23.843 30.9059 24.4503L26.8248 26.8065L24.6257 22.9975ZM28.0784 19.553C29.7313 18.5988 31.8448 19.1651 32.7991 20.8179C33.7534 22.4708 33.187 24.5843 31.5342 25.5386L26.637 28.366C26.4867 28.4527 26.2945 28.4013 26.2078 28.251L23.0662 22.8096C22.9795 22.6594 23.0309 22.4672 23.1812 22.3805L28.0784 19.553Z" fill="#006BB2"/>
<path fill-rule="evenodd" clip-rule="evenodd" d="M27.4531 27.8948C27.5399 28.045 27.4883 28.2372 27.3381 28.3239L22.7129 30.9943C20.9098 32.0353 18.6042 31.4175 17.5631 29.6144C16.5221 27.8113 17.1399 25.5056 18.943 24.4646L23.5682 21.7943C23.7184 21.7075 23.9106 21.7589 23.9973 21.9092L28.0784 19.553C29.7313 18.5988 31.8447 19.1651 32.799 20.8179C33.7533 22.4708 33.187 24.5843 31.5341 25.5386L27.4531 27.8948ZM24.6257 22.9975L26.8248 26.8065L30.9058 24.4503C31.9576 23.843 32.318 22.4981 31.7108 21.4462C31.1035 20.3944 29.7585 20.034 28.7067 20.6413L24.6257 22.9975ZM22.0846 29.906C20.8825 30.6 19.3454 30.1881 18.6514 28.986C17.9574 27.784 18.3693 26.2469 19.5713 25.5529L23.3803 23.3537L25.8935 27.7069L22.0846 29.906Z" fill="#006BB2"/>
<path fill-rule="evenodd" clip-rule="evenodd" d="M27.4638 15.1922C28.936 16.6645 31.323 16.6645 32.7952 15.1922C34.2675 13.72 34.2675 11.3331 32.7952 9.86082C31.323 8.38857 28.936 8.38857 27.4638 9.86082C25.9916 11.3331 25.9916 13.72 27.4638 15.1922ZM26.5753 16.0809C28.5382 18.0438 31.7209 18.0438 33.6839 16.0809C35.6469 14.1179 35.6469 10.9352 33.6839 8.97224C31.7209 7.00925 28.5382 7.00925 26.5753 8.97224C24.6123 10.9352 24.6123 14.1179 26.5753 16.0809Z" fill="#006BB2"/>
<path fill-rule="evenodd" clip-rule="evenodd" d="M32.9063 15.9702L26.6863 9.75017L27.3527 9.08374L33.5728 15.3037L32.9063 15.9702Z" fill="#006BB2"/>
<path fill-rule="evenodd" clip-rule="evenodd" d="M21.4819 18.4342L18.3994 10.9458L14.2582 17.905L21.4819 18.4342ZM19.5614 10.4675C19.1672 9.50989 17.849 9.41331 17.3195 10.3032L13.1783 17.2624C12.7005 18.0652 13.2347 19.09 14.1663 19.1582L21.3902 19.6875C22.3218 19.7558 22.9996 18.8198 22.644 17.9559L19.5614 10.4675Z" fill="#006BB2"/>
<path d="M0.906627 47.4486V46.5276H6.39447V47.4486H4.18202V53.6185H3.11561V47.4486H0.906627ZM6.97181 53.6185V48.3003H7.97243V49.1452H8.02783C8.12478 48.8589 8.29559 48.6339 8.54026 48.47C8.78724 48.3038 9.06654 48.2207 9.37815 48.2207C9.44278 48.2207 9.51895 48.223 9.60667 48.2276C9.69669 48.2323 9.76709 48.238 9.81787 48.245V49.2352C9.77632 49.2236 9.70246 49.2109 9.59628 49.1971C9.4901 49.1809 9.38392 49.1729 9.27774 49.1729C9.03307 49.1729 8.81494 49.2248 8.62336 49.3287C8.43408 49.4302 8.28405 49.5722 8.17325 49.7545C8.06246 49.9346 8.00706 50.14 8.00706 50.3708V53.6185H6.97181ZM12.8154 53.7259C12.2914 53.7259 11.8402 53.6139 11.4616 53.39C11.0854 53.1638 10.7945 52.8464 10.5891 52.4379C10.386 52.027 10.2844 51.5457 10.2844 50.9941C10.2844 50.4493 10.386 49.9692 10.5891 49.5537C10.7945 49.1382 11.0808 48.8139 11.4478 48.5808C11.8171 48.3477 12.2487 48.2311 12.7427 48.2311C13.0428 48.2311 13.3336 48.2807 13.6152 48.38C13.8968 48.4792 14.1496 48.635 14.3735 48.8474C14.5974 49.0598 14.7739 49.3356 14.9032 49.6749C15.0325 50.0119 15.0971 50.4216 15.0971 50.904V51.2711H10.8696V50.4955H14.0826C14.0826 50.2231 14.0272 49.9819 13.9164 49.7719C13.8056 49.5595 13.6498 49.3921 13.449 49.2698C13.2505 49.1475 13.0174 49.0863 12.7496 49.0863C12.4588 49.0863 12.2049 49.1579 11.9879 49.301C11.7732 49.4418 11.607 49.6264 11.4893 49.8549C11.3739 50.0812 11.3162 50.327 11.3162 50.5924V51.1983C11.3162 51.5538 11.3785 51.8562 11.5032 52.1055C11.6301 52.3548 11.8067 52.5452 12.0329 52.6768C12.2591 52.806 12.5234 52.8707 12.8258 52.8707C13.022 52.8707 13.2009 52.843 13.3625 52.7876C13.524 52.7299 13.6637 52.6445 13.7814 52.5313C13.8991 52.4182 13.9891 52.2786 14.0515 52.1124L15.0313 52.289C14.9528 52.5775 14.812 52.8303 14.6089 53.0472C14.4081 53.2619 14.1553 53.4293 13.8507 53.5493C13.5483 53.667 13.2032 53.7259 12.8154 53.7259ZM17.7934 53.7363C17.4564 53.7363 17.1517 53.6739 16.8794 53.5493C16.607 53.4223 16.3912 53.2388 16.2319 52.9988C16.0749 52.7587 15.9964 52.4644 15.9964 52.1159C15.9964 51.8158 16.0542 51.5688 16.1696 51.3749C16.285 51.181 16.4408 51.0275 16.637 50.9144C16.8332 50.8013 17.0525 50.7159 17.2948 50.6582C17.5372 50.6005 17.7842 50.5567 18.0358 50.5266C18.3543 50.4897 18.6128 50.4597 18.8113 50.4366C19.0099 50.4112 19.1541 50.3708 19.2441 50.3154C19.3342 50.26 19.3792 50.17 19.3792 50.0454V50.0211C19.3792 49.7188 19.2938 49.4845 19.123 49.3183C18.9545 49.1521 18.7029 49.069 18.3682 49.069C18.0196 49.069 17.7449 49.1463 17.5441 49.301C17.3456 49.4533 17.2083 49.623 17.1321 49.8099L16.1592 49.5883C16.2746 49.2652 16.4431 49.0044 16.6647 48.8059C16.8886 48.605 17.146 48.4596 17.4368 48.3696C17.7276 48.2773 18.0335 48.2311 18.3543 48.2311C18.5667 48.2311 18.7917 48.2565 19.0295 48.3073C19.2695 48.3557 19.4934 48.4458 19.7012 48.5773C19.9112 48.7089 20.0832 48.897 20.2171 49.1417C20.3509 49.3841 20.4179 49.6991 20.4179 50.0869V53.6185H19.4069V52.8914H19.3653C19.2984 53.0253 19.198 53.1569 19.0641 53.2861C18.9302 53.4154 18.7583 53.5227 18.5482 53.6081C18.3382 53.6935 18.0866 53.7363 17.7934 53.7363ZM18.0185 52.9053C18.3047 52.9053 18.5494 52.8487 18.7525 52.7356C18.9579 52.6225 19.1137 52.4748 19.2199 52.2924C19.3284 52.1078 19.3826 51.9104 19.3826 51.7004V51.0148C19.3457 51.0518 19.2741 51.0864 19.168 51.1187C19.0641 51.1487 18.9452 51.1753 18.8113 51.1983C18.6775 51.2191 18.5471 51.2387 18.4201 51.2572C18.2931 51.2734 18.187 51.2872 18.1016 51.2988C17.9007 51.3241 17.7172 51.3668 17.551 51.4269C17.3872 51.4869 17.2556 51.5734 17.1563 51.6865C17.0594 51.7973 17.0109 51.9451 17.0109 52.1297C17.0109 52.3859 17.1056 52.5798 17.2948 52.7114C17.4841 52.8407 17.7253 52.9053 18.0185 52.9053ZM24.2793 48.3003V49.1313H21.3744V48.3003H24.2793ZM22.1534 47.0262H23.1886V52.057C23.1886 52.2578 23.2186 52.409 23.2787 52.5106C23.3387 52.6098 23.416 52.6779 23.5106 52.7149C23.6076 52.7495 23.7126 52.7668 23.8257 52.7668C23.9088 52.7668 23.9815 52.761 24.0438 52.7495C24.1062 52.7379 24.1546 52.7287 24.1893 52.7218L24.3762 53.577C24.3162 53.6001 24.2308 53.6231 24.12 53.6462C24.0092 53.6716 23.8707 53.6855 23.7045 53.6878C23.4322 53.6924 23.1782 53.6439 22.9428 53.5424C22.7074 53.4408 22.5169 53.2838 22.3715 53.0715C22.2261 52.8591 22.1534 52.5925 22.1534 52.2717V47.0262ZM25.4244 53.6185V48.3003H26.4181V49.1659H26.4839C26.5947 48.8728 26.7759 48.6443 27.0275 48.4804C27.2791 48.3142 27.5803 48.2311 27.9312 48.2311C28.2867 48.2311 28.5844 48.3142 28.8245 48.4804C29.0669 48.6466 29.2457 48.8751 29.3612 49.1659H29.4165C29.5435 48.882 29.7455 48.6558 30.0225 48.4873C30.2994 48.3165 30.6295 48.2311 31.0127 48.2311C31.4951 48.2311 31.8887 48.3823 32.1934 48.6847C32.5004 48.987 32.6539 49.4429 32.6539 50.0523V53.6185H31.6186V50.1492C31.6186 49.7892 31.5205 49.5283 31.3243 49.3668C31.1281 49.2052 30.8938 49.1244 30.6214 49.1244C30.2844 49.1244 30.0225 49.2283 29.8355 49.436C29.6485 49.6414 29.555 49.9057 29.555 50.2289V53.6185H28.5233V50.0835C28.5233 49.7949 28.4332 49.563 28.2532 49.3875C28.0732 49.2121 27.8389 49.1244 27.5503 49.1244C27.3541 49.1244 27.1729 49.1763 27.0067 49.2802C26.8429 49.3818 26.7101 49.5237 26.6086 49.7061C26.5093 49.8884 26.4597 50.0996 26.4597 50.3397V53.6185H25.4244ZM36.3335 53.7259C35.8095 53.7259 35.3582 53.6139 34.9797 53.39C34.6034 53.1638 34.3126 52.8464 34.1072 52.4379C33.9041 52.027 33.8025 51.5457 33.8025 50.9941C33.8025 50.4493 33.9041 49.9692 34.1072 49.5537C34.3126 49.1382 34.5988 48.8139 34.9658 48.5808C35.3352 48.3477 35.7668 48.2311 36.2608 48.2311C36.5608 48.2311 36.8517 48.2807 37.1333 48.38C37.4149 48.4792 37.6676 48.635 37.8915 48.8474C38.1154 49.0598 38.292 49.3356 38.4213 49.6749C38.5505 50.0119 38.6152 50.4216 38.6152 50.904V51.2711H34.3876V50.4955H37.6007C37.6007 50.2231 37.5453 49.9819 37.4345 49.7719C37.3237 49.5595 37.1679 49.3921 36.9671 49.2698C36.7686 49.1475 36.5354 49.0863 36.2677 49.0863C35.9769 49.0863 35.7229 49.1579 35.506 49.301C35.2913 49.4418 35.1251 49.6264 35.0074 49.8549C34.892 50.0812 34.8343 50.327 34.8343 50.5924V51.1983C34.8343 51.5538 34.8966 51.8562 35.0212 52.1055C35.1482 52.3548 35.3248 52.5452 35.551 52.6768C35.7772 52.806 36.0415 52.8707 36.3439 52.8707C36.5401 52.8707 36.7189 52.843 36.8805 52.7876C37.0421 52.7299 37.1818 52.6445 37.2995 52.5313C37.4172 52.4182 37.5072 52.2786 37.5695 52.1124L38.5494 52.289C38.4709 52.5775 38.3301 52.8303 38.127 53.0472C37.9262 53.2619 37.6734 53.4293 37.3687 53.5493C37.0663 53.667 36.7213 53.7259 36.3335 53.7259ZM40.7991 50.4609V53.6185H39.7638V48.3003H40.7575V49.1659H40.8233C40.9456 48.8843 41.1372 48.6581 41.398 48.4873C41.6612 48.3165 41.9924 48.2311 42.3917 48.2311C42.7541 48.2311 43.0715 48.3073 43.3439 48.4596C43.6163 48.6097 43.8275 48.8336 43.9775 49.1313C44.1275 49.4291 44.2025 49.7972 44.2025 50.2358V53.6185H43.1673V50.3605C43.1673 49.975 43.0669 49.6738 42.8661 49.4568C42.6653 49.2375 42.3894 49.1279 42.0386 49.1279C41.7985 49.1279 41.585 49.1798 41.398 49.2837C41.2134 49.3875 41.0668 49.5399 40.9583 49.7407C40.8521 49.9392 40.7991 50.1793 40.7991 50.4609ZM48.0735 48.3003V49.1313H45.1685V48.3003H48.0735ZM45.9476 47.0262H46.9828V52.057C46.9828 52.2578 47.0128 52.409 47.0728 52.5106C47.1329 52.6098 47.2102 52.6779 47.3048 52.7149C47.4018 52.7495 47.5068 52.7668 47.6199 52.7668C47.703 52.7668 47.7757 52.761 47.838 52.7495C47.9003 52.7379 47.9488 52.7287 47.9834 52.7218L48.1704 53.577C48.1104 53.6001 48.025 53.6231 47.9142 53.6462C47.8034 53.6716 47.6649 53.6855 47.4987 53.6878C47.2263 53.6924 46.9724 53.6439 46.737 53.5424C46.5016 53.4408 46.3111 53.2838 46.1657 53.0715C46.0203 52.8591 45.9476 52.5925 45.9476 52.2717V47.0262Z" fill="black"/>
</svg>
