<svg width="61" height="54" viewBox="0 0 61 54" fill="none" xmlns="http://www.w3.org/2000/svg">
<rect x="12.5" y="0.294434" width="36" height="36" rx="12" fill="#F0F9FF"/>
<rect x="20" y="20.8472" width="21.8033" height="4.15301" rx="2.0765" fill="#006BB2"/>
<line x1="31.2798" y1="11.4148" x2="21.9355" y2="22.2126" stroke="#006BB2"/>
<line x1="39.9711" y1="22.2129" x2="30.6273" y2="11.4147" stroke="#006BB2"/>
<line x1="30.8169" y1="11.7104" x2="30.8169" y2="6.00007" stroke="#006BB2"/>
<path d="M1.22923 51.5444V44.4535H5.62642V45.3745H2.29909V47.535H5.31135V48.4525H2.29909V51.5444H1.22923ZM8.76072 51.6518C8.23675 51.6518 7.78549 51.5398 7.40694 51.3159C7.0307 51.0897 6.73986 50.7723 6.53442 50.3638C6.3313 49.9529 6.22974 49.4716 6.22974 48.92C6.22974 48.3752 6.3313 47.8951 6.53442 47.4796C6.73986 47.0641 7.02608 46.7398 7.39309 46.5067C7.76241 46.2736 8.19405 46.157 8.68801 46.157C8.98808 46.157 9.27892 46.2066 9.56052 46.3059C9.84213 46.4051 10.0949 46.5609 10.3188 46.7733C10.5427 46.9857 10.7193 47.2615 10.8485 47.6008C10.9778 47.9378 11.0424 48.3475 11.0424 48.8299V49.197H6.81487V48.4214H10.0279C10.0279 48.149 9.97255 47.9078 9.86175 47.6978C9.75095 47.4854 9.59515 47.318 9.39433 47.1957C9.19582 47.0734 8.96269 47.0122 8.69494 47.0122C8.4041 47.0122 8.15019 47.0838 7.93322 47.2269C7.71855 47.3677 7.55236 47.5523 7.43464 47.7809C7.31923 48.0071 7.26152 48.2529 7.26152 48.5183V49.1242C7.26152 49.4797 7.32384 49.7821 7.44849 50.0314C7.57544 50.2807 7.75202 50.4711 7.97823 50.6027C8.20443 50.7319 8.46873 50.7966 8.77111 50.7966C8.96731 50.7966 9.1462 50.7689 9.30777 50.7135C9.46935 50.6558 9.609 50.5704 9.72672 50.4573C9.84444 50.3441 9.93446 50.2045 9.99678 50.0383L10.9766 50.2149C10.8981 50.5034 10.7573 50.7562 10.5542 50.9731C10.3534 51.1878 10.1007 51.3552 9.79597 51.4752C9.49359 51.5929 9.1485 51.6518 8.76072 51.6518ZM14.4831 51.6518C13.9592 51.6518 13.5079 51.5398 13.1294 51.3159C12.7531 51.0897 12.4623 50.7723 12.2568 50.3638C12.0537 49.9529 11.9521 49.4716 11.9521 48.92C11.9521 48.3752 12.0537 47.8951 12.2568 47.4796C12.4623 47.0641 12.7485 46.7398 13.1155 46.5067C13.4848 46.2736 13.9165 46.157 14.4104 46.157C14.7105 46.157 15.0013 46.2066 15.2829 46.3059C15.5645 46.4051 15.8173 46.5609 16.0412 46.7733C16.2651 46.9857 16.4417 47.2615 16.5709 47.6008C16.7002 47.9378 16.7648 48.3475 16.7648 48.8299V49.197H12.5373V48.4214H15.7504C15.7504 48.149 15.695 47.9078 15.5842 47.6978C15.4734 47.4854 15.3176 47.318 15.1167 47.1957C14.9182 47.0734 14.6851 47.0122 14.4173 47.0122C14.1265 47.0122 13.8726 47.0838 13.6556 47.2269C13.441 47.3677 13.2748 47.5523 13.157 47.7809C13.0416 48.0071 12.9839 48.2529 12.9839 48.5183V49.1242C12.9839 49.4797 13.0463 49.7821 13.1709 50.0314C13.2979 50.2807 13.4744 50.4711 13.7006 50.6027C13.9268 50.7319 14.1911 50.7966 14.4935 50.7966C14.6897 50.7966 14.8686 50.7689 15.0302 50.7135C15.1918 50.6558 15.3314 50.5704 15.4491 50.4573C15.5669 50.3441 15.6569 50.2045 15.7192 50.0383L16.699 50.2149C16.6206 50.5034 16.4798 50.7562 16.2766 50.9731C16.0758 51.1878 15.8231 51.3552 15.5184 51.4752C15.216 51.5929 14.8709 51.6518 14.4831 51.6518ZM19.9043 51.6483C19.475 51.6483 19.0918 51.5387 18.7548 51.3194C18.4201 51.0978 18.157 50.7827 17.9654 50.3742C17.7761 49.9633 17.6815 49.4705 17.6815 48.8957C17.6815 48.321 17.7773 47.8293 17.9689 47.4208C18.1628 47.0122 18.4282 46.6994 18.7652 46.4825C19.1022 46.2655 19.4842 46.157 19.9112 46.157C20.2413 46.157 20.5068 46.2124 20.7076 46.3232C20.9107 46.4317 21.0677 46.5586 21.1785 46.7041C21.2916 46.8495 21.3793 46.9776 21.4416 47.0884H21.5039V44.4535H22.5392V51.5444H21.5282V50.7169H21.4416C21.3793 50.83 21.2893 50.9593 21.1715 51.1047C21.0561 51.2501 20.8969 51.3771 20.6937 51.4856C20.4906 51.5941 20.2275 51.6483 19.9043 51.6483ZM20.1328 50.7654C20.4306 50.7654 20.6822 50.6869 20.8876 50.53C21.0954 50.3707 21.2523 50.1503 21.3585 49.8687C21.467 49.587 21.5212 49.2593 21.5212 48.8853C21.5212 48.516 21.4682 48.1929 21.362 47.9159C21.2558 47.6389 21.1 47.4231 20.8946 47.2684C20.6891 47.1138 20.4352 47.0364 20.1328 47.0364C19.8212 47.0364 19.5615 47.1172 19.3538 47.2788C19.1461 47.4404 18.9891 47.6608 18.8829 47.9401C18.7791 48.2194 18.7271 48.5345 18.7271 48.8853C18.7271 49.2408 18.7802 49.5605 18.8864 49.8444C18.9926 50.1283 19.1495 50.3534 19.3573 50.5196C19.5673 50.6835 19.8258 50.7654 20.1328 50.7654ZM24.0167 51.5444V46.2263H25.052V51.5444H24.0167ZM24.5396 45.4057C24.3595 45.4057 24.2049 45.3457 24.0756 45.2256C23.9486 45.1033 23.8852 44.9579 23.8852 44.7894C23.8852 44.6186 23.9486 44.4731 24.0756 44.3531C24.2049 44.2308 24.3595 44.1696 24.5396 44.1696C24.7196 44.1696 24.8731 44.2308 25 44.3531C25.1293 44.4731 25.1939 44.6186 25.1939 44.7894C25.1939 44.9579 25.1293 45.1033 25 45.2256C24.8731 45.3457 24.7196 45.4057 24.5396 45.4057ZM27.48 48.3868V51.5444H26.4447V46.2263H27.4384V47.0918H27.5042C27.6265 46.8102 27.8181 46.584 28.0789 46.4132C28.3421 46.2424 28.6733 46.157 29.0726 46.157C29.435 46.157 29.7524 46.2332 30.0248 46.3855C30.2972 46.5356 30.5084 46.7595 30.6584 47.0572C30.8084 47.355 30.8835 47.7231 30.8835 48.1617V51.5444H29.8482V48.2864C29.8482 47.9009 29.7478 47.5997 29.547 47.3827C29.3462 47.1634 29.0703 47.0538 28.7195 47.0538C28.4794 47.0538 28.2659 47.1057 28.0789 47.2096C27.8943 47.3134 27.7477 47.4658 27.6392 47.6666C27.533 47.8651 27.48 48.1052 27.48 48.3868ZM34.5016 53.6495C34.0792 53.6495 33.7157 53.5941 33.411 53.4834C33.1086 53.3726 32.8616 53.226 32.67 53.0436C32.4784 52.8613 32.3353 52.6616 32.2407 52.4446L33.1305 52.0776C33.1928 52.1792 33.2759 52.2865 33.3798 52.3996C33.486 52.515 33.6291 52.6131 33.8091 52.6939C33.9915 52.7747 34.2258 52.8151 34.512 52.8151C34.9044 52.8151 35.2287 52.7193 35.4849 52.5277C35.7411 52.3385 35.8693 52.0361 35.8693 51.6206V50.575H35.8035C35.7411 50.6881 35.6511 50.8139 35.5334 50.9524C35.418 51.0909 35.2587 51.2109 35.0556 51.3125C34.8525 51.414 34.5882 51.4648 34.2627 51.4648C33.8426 51.4648 33.4641 51.3667 33.1271 51.1705C32.7924 50.972 32.5269 50.68 32.3307 50.2945C32.1368 49.9067 32.0399 49.4301 32.0399 48.8646C32.0399 48.299 32.1357 47.8143 32.3273 47.4104C32.5212 47.0064 32.7866 46.6971 33.1236 46.4825C33.4606 46.2655 33.8426 46.157 34.2696 46.157C34.5997 46.157 34.8663 46.2124 35.0694 46.3232C35.2726 46.4317 35.4307 46.5586 35.5438 46.7041C35.6592 46.8495 35.7481 46.9776 35.8104 47.0884H35.8866V46.2263H36.901V51.6622C36.901 52.1192 36.7949 52.4943 36.5825 52.7874C36.3701 53.0806 36.0828 53.2975 35.7204 53.4383C35.3603 53.5791 34.954 53.6495 34.5016 53.6495ZM34.4912 50.6061C34.789 50.6061 35.0406 50.5369 35.246 50.3984C35.4538 50.2576 35.6107 50.0568 35.7169 49.7959C35.8254 49.5328 35.8796 49.2177 35.8796 48.8507C35.8796 48.4929 35.8265 48.1779 35.7204 47.9055C35.6142 47.6331 35.4584 47.4208 35.253 47.2684C35.0475 47.1138 34.7936 47.0364 34.4912 47.0364C34.1796 47.0364 33.9199 47.1172 33.7122 47.2788C33.5045 47.4381 33.3475 47.6551 33.2413 47.9297C33.1375 48.2044 33.0855 48.5114 33.0855 48.8507C33.0855 49.1993 33.1386 49.5051 33.2448 49.7682C33.351 50.0314 33.5079 50.2368 33.7157 50.3845C33.9257 50.5323 34.1842 50.6061 34.4912 50.6061ZM40.6032 45.3745V44.4535H46.091V45.3745H43.8786V51.5444H42.8121V45.3745H40.6032ZM46.6683 51.5444V46.2263H47.669V47.0711H47.7244C47.8213 46.7848 47.9921 46.5598 48.2368 46.3959C48.4838 46.2297 48.7631 46.1466 49.0747 46.1466C49.1393 46.1466 49.2155 46.1489 49.3032 46.1535C49.3932 46.1582 49.4636 46.1639 49.5144 46.1709V47.1611C49.4729 47.1495 49.399 47.1369 49.2928 47.123C49.1866 47.1068 49.0805 47.0988 48.9743 47.0988C48.7296 47.0988 48.5115 47.1507 48.3199 47.2546C48.1306 47.3561 47.9806 47.4981 47.8698 47.6804C47.759 47.8605 47.7036 48.0659 47.7036 48.2967V51.5444H46.6683ZM51.9104 51.6622C51.5734 51.6622 51.2687 51.5998 50.9963 51.4752C50.7239 51.3482 50.5081 51.1647 50.3488 50.9247C50.1919 50.6846 50.1134 50.3903 50.1134 50.0418C50.1134 49.7417 50.1711 49.4947 50.2865 49.3008C50.4019 49.1069 50.5577 48.9534 50.7539 48.8403C50.9501 48.7272 51.1694 48.6418 51.4118 48.5841C51.6541 48.5264 51.9011 48.4826 52.1527 48.4525C52.4713 48.4156 52.7298 48.3856 52.9283 48.3625C53.1268 48.3371 53.2711 48.2967 53.3611 48.2413C53.4511 48.1859 53.4961 48.0959 53.4961 47.9713V47.947C53.4961 47.6447 53.4107 47.4104 53.2399 47.2442C53.0714 47.078 52.8198 46.9949 52.4851 46.9949C52.1366 46.9949 51.8619 47.0722 51.6611 47.2269C51.4626 47.3792 51.3252 47.5489 51.249 47.7358L50.2761 47.5142C50.3915 47.1911 50.56 46.9303 50.7816 46.7318C51.0055 46.5309 51.2629 46.3855 51.5537 46.2955C51.8446 46.2032 52.1504 46.157 52.4713 46.157C52.6836 46.157 52.9087 46.1824 53.1464 46.2332C53.3865 46.2816 53.6104 46.3717 53.8181 46.5032C54.0282 46.6348 54.2001 46.8229 54.334 47.0676C54.4679 47.31 54.5348 47.625 54.5348 48.0128V51.5444H53.5238V50.8173H53.4823C53.4153 50.9512 53.3149 51.0828 53.181 51.212C53.0472 51.3413 52.8752 51.4486 52.6652 51.534C52.4551 51.6195 52.2035 51.6622 51.9104 51.6622ZM52.1354 50.8312C52.4216 50.8312 52.6663 50.7746 52.8694 50.6615C53.0749 50.5484 53.2307 50.4007 53.3368 50.2184C53.4453 50.0337 53.4996 49.8363 53.4996 49.6263V48.9407C53.4626 48.9777 53.3911 49.0123 53.2849 49.0446C53.181 49.0746 53.0622 49.1012 52.9283 49.1242C52.7944 49.145 52.664 49.1646 52.537 49.1831C52.4101 49.1993 52.3039 49.2131 52.2185 49.2247C52.0177 49.25 51.8342 49.2927 51.668 49.3528C51.5041 49.4128 51.3725 49.4993 51.2733 49.6124C51.1763 49.7232 51.1279 49.871 51.1279 50.0556C51.1279 50.3118 51.2225 50.5057 51.4118 50.6373C51.6011 50.7666 51.8423 50.8312 52.1354 50.8312ZM56.3777 53.5388C56.223 53.5388 56.0822 53.5261 55.9553 53.5007C55.8283 53.4776 55.7337 53.4522 55.6713 53.4245L55.9206 52.5762C56.1099 52.627 56.2784 52.6489 56.4261 52.642C56.5739 52.6351 56.7043 52.5797 56.8174 52.4758C56.9328 52.3719 57.0344 52.2023 57.1221 51.9668L57.2502 51.6137L55.3043 46.2263H56.4123L57.7591 50.3534H57.8145L59.1614 46.2263H60.2728L58.0811 52.2542C57.9796 52.5312 57.8503 52.7655 57.6934 52.9571C57.5364 53.151 57.3494 53.2964 57.1325 53.3933C56.9155 53.4903 56.6639 53.5388 56.3777 53.5388Z" fill="black"/>
</svg>
