<svg width="44" height="56" viewBox="0 0 44 56" fill="none" xmlns="http://www.w3.org/2000/svg">
<rect x="4.5" y="0.277222" width="36" height="37.8585" rx="12" fill="#E6FDE3"/>
<path d="M27.3197 10.7388H19.0254V9H27.3197V10.7388ZM19.8166 9H26.5285V13.8113L32.0345 24.8529C32.2217 25.2149 32.3353 25.6417 32.3448 26.094L32.3449 26.0971V26.1136C32.3429 27.7069 31.0518 28.998 29.4586 29H16.8865C15.2923 29 14 27.7077 14 26.1136C14 26.1004 14.0001 26.0873 14.0003 26.0742V26.0762V26.071C14.01 25.6159 14.1236 25.1894 14.3182 24.8115L14.3106 24.8277L19.8166 13.8114L19.8166 9ZM24.7897 10.7388H21.5555V14.2217L15.8616 25.6058C15.788 25.748 15.7432 25.9155 15.739 26.0931V26.0945C15.739 26.0991 15.7389 26.1046 15.7389 26.1101C15.7389 26.7439 16.2527 27.2578 16.8866 27.2578H29.4584C30.0888 27.2568 30.6001 26.7485 30.606 26.1194V26.1188C30.601 25.9416 30.5563 25.776 30.4805 25.629L30.4834 25.6354V25.6293L24.7897 14.2217L24.7897 10.7388ZM25.9295 19.433C24.8699 19.4098 23.8751 19.1557 22.986 18.7191L23.0274 18.7375C22.4524 18.4149 21.7654 18.2249 21.0341 18.2249C20.3168 18.2249 19.6422 18.4077 19.0543 18.7291L19.0759 18.7183L18.3804 17.123C19.1497 16.7192 20.0613 16.4823 21.0281 16.4823C22.0036 16.4823 22.9228 16.7235 23.7293 17.1495L23.6977 17.1343C24.358 17.4909 25.1429 17.7006 25.9768 17.7006C26.5371 17.7006 27.0754 17.6059 27.5765 17.4317L27.5423 17.442L28.0292 19.1113C27.4024 19.3086 26.681 19.4256 25.9333 19.433L25.9296 19.433L25.9295 19.433ZM20.686 25.6754H19.0254V23.9366H20.686L20.686 25.6754ZM23.1725 22.3542H21.512V20.6154H23.1726L23.1725 22.3542ZM27.3197 24.0148H25.6591V22.276H27.3197V24.0148Z" fill="#52C44B"/>
<path d="M7.01189 48.8718H5.93163C5.89008 48.6409 5.81276 48.4378 5.69965 48.2624C5.58655 48.087 5.44805 47.9381 5.28417 47.8157C5.12028 47.6934 4.93678 47.6011 4.73365 47.5388C4.53284 47.4764 4.31933 47.4453 4.09312 47.4453C3.68456 47.4453 3.3187 47.548 2.99555 47.7534C2.6747 47.9589 2.4208 48.2601 2.23383 48.6571C2.04917 49.0541 1.95684 49.5388 1.95684 50.1113C1.95684 50.6883 2.04917 51.1754 2.23383 51.5724C2.4208 51.9694 2.67586 52.2695 2.99901 52.4726C3.32217 52.6757 3.68571 52.7773 4.08966 52.7773C4.31355 52.7773 4.52591 52.7473 4.72673 52.6873C4.92985 52.625 5.11336 52.5338 5.27724 52.4138C5.44113 52.2937 5.57962 52.1472 5.69273 51.974C5.80814 51.7986 5.88777 51.5978 5.93163 51.3716L7.01189 51.375C6.95418 51.7236 6.84223 52.0444 6.67604 52.3376C6.51215 52.6284 6.30095 52.88 6.04243 53.0924C5.78621 53.3024 5.49306 53.4652 5.16299 53.5806C4.83291 53.696 4.47282 53.7537 4.08273 53.7537C3.46874 53.7537 2.92169 53.6083 2.44157 53.3174C1.96146 53.0243 1.58291 52.6053 1.30592 52.0606C1.03124 51.5158 0.893899 50.8661 0.893899 50.1113C0.893899 49.3542 1.03239 48.7044 1.30938 48.162C1.58637 47.6172 1.96492 47.1994 2.44504 46.9086C2.92515 46.6155 3.47105 46.4689 4.08273 46.4689C4.45897 46.4689 4.80983 46.5231 5.13529 46.6316C5.46306 46.7378 5.75736 46.8948 6.01819 47.1025C6.27902 47.3079 6.49484 47.5595 6.66565 47.8573C6.83646 48.1527 6.95187 48.4909 7.01189 48.8718ZM9.24424 50.4991V53.6567H8.209V46.5658H9.23039V49.2041H9.29618C9.42082 48.9179 9.61125 48.6906 9.86747 48.5221C10.1237 48.3536 10.4584 48.2693 10.8715 48.2693C11.2363 48.2693 11.5548 48.3443 11.8272 48.4944C12.1018 48.6444 12.3142 48.8683 12.4642 49.1661C12.6166 49.4615 12.6927 49.8308 12.6927 50.274V53.6567H11.6575V50.3987C11.6575 50.0086 11.5571 49.7062 11.3563 49.4915C11.1555 49.2745 10.8762 49.1661 10.5184 49.1661C10.2737 49.1661 10.0544 49.218 9.86054 49.3219C9.66896 49.4257 9.51777 49.5781 9.40697 49.7789C9.29848 49.9774 9.24424 50.2175 9.24424 50.4991ZM16.3663 53.7641C15.8423 53.7641 15.3911 53.6521 15.0125 53.4282C14.6363 53.202 14.3454 52.8846 14.14 52.4761C13.9369 52.0652 13.8353 51.5839 13.8353 51.0323C13.8353 50.4875 13.9369 50.0074 14.14 49.5919C14.3454 49.1764 14.6317 48.8521 14.9987 48.619C15.368 48.3859 15.7996 48.2693 16.2936 48.2693C16.5937 48.2693 16.8845 48.3189 17.1661 48.4182C17.4477 48.5174 17.7005 48.6733 17.9244 48.8856C18.1483 49.098 18.3249 49.3738 18.4541 49.7131C18.5834 50.0501 18.648 50.4598 18.648 50.9422V51.3093H14.4205V50.5337H17.6335C17.6335 50.2613 17.5781 50.0201 17.4673 49.8101C17.3565 49.5977 17.2007 49.4304 16.9999 49.308C16.8014 49.1857 16.5683 49.1245 16.3005 49.1245C16.0097 49.1245 15.7558 49.1961 15.5388 49.3392C15.3241 49.48 15.1579 49.6646 15.0402 49.8932C14.9248 50.1194 14.8671 50.3652 14.8671 50.6306V51.2366C14.8671 51.592 14.9294 51.8944 15.0541 52.1437C15.181 52.393 15.3576 52.5834 15.5838 52.715C15.81 52.8442 16.0743 52.9089 16.3767 52.9089C16.5729 52.9089 16.7518 52.8812 16.9134 52.8258C17.0749 52.7681 17.2146 52.6827 17.3323 52.5696C17.45 52.4565 17.5401 52.3168 17.6024 52.1506L18.5822 52.3272C18.5037 52.6157 18.3629 52.8685 18.1598 53.0854C17.959 53.3001 17.7062 53.4675 17.4016 53.5875C17.0992 53.7052 16.7541 53.7641 16.3663 53.7641ZM19.7966 53.6567V48.3386H20.7903V49.2041H20.8561C20.9669 48.911 21.1481 48.6825 21.3997 48.5186C21.6513 48.3524 21.9525 48.2693 22.3034 48.2693C22.6589 48.2693 22.9566 48.3524 23.1967 48.5186C23.439 48.6848 23.6179 48.9133 23.7333 49.2041H23.7887C23.9157 48.9202 24.1177 48.694 24.3947 48.5255C24.6716 48.3547 25.0017 48.2693 25.3849 48.2693C25.8673 48.2693 26.2609 48.4205 26.5656 48.7229C26.8725 49.0253 27.026 49.4811 27.026 50.0905V53.6567H25.9908V50.1875C25.9908 49.8274 25.8927 49.5665 25.6965 49.405C25.5003 49.2434 25.266 49.1626 24.9936 49.1626C24.6566 49.1626 24.3947 49.2665 24.2077 49.4742C24.0207 49.6796 23.9272 49.9439 23.9272 50.2671V53.6567H22.8955V50.1217C22.8955 49.8331 22.8054 49.6012 22.6254 49.4257C22.4453 49.2503 22.2111 49.1626 21.9225 49.1626C21.7263 49.1626 21.5451 49.2145 21.3789 49.3184C21.2151 49.42 21.0823 49.5619 20.9808 49.7443C20.8815 49.9266 20.8319 50.1378 20.8319 50.3779V53.6567H19.7966ZM28.4136 53.6567V48.3386H29.4488V53.6567H28.4136ZM28.9364 47.518C28.7564 47.518 28.6017 47.458 28.4724 47.3379C28.3455 47.2156 28.282 47.0702 28.282 46.9017C28.282 46.7309 28.3455 46.5854 28.4724 46.4654C28.6017 46.3431 28.7564 46.2819 28.9364 46.2819C29.1164 46.2819 29.2699 46.3431 29.3969 46.4654C29.5262 46.5854 29.5908 46.7309 29.5908 46.9017C29.5908 47.0702 29.5262 47.2156 29.3969 47.3379C29.2699 47.458 29.1164 47.518 28.9364 47.518ZM33.0817 53.7641C32.567 53.7641 32.1238 53.6475 31.7522 53.4144C31.3828 53.1789 31.0989 52.8546 30.9004 52.4415C30.7019 52.0283 30.6027 51.5551 30.6027 51.0219C30.6027 50.4818 30.7042 50.0051 30.9073 49.5919C31.1105 49.1764 31.3967 48.8521 31.766 48.619C32.1353 48.3859 32.5704 48.2693 33.0713 48.2693C33.4753 48.2693 33.8353 48.3443 34.1516 48.4944C34.4678 48.6421 34.7229 48.8498 34.9168 49.1176C35.113 49.3853 35.2295 49.6981 35.2665 50.0559H34.2589C34.2035 49.8066 34.0766 49.5919 33.8781 49.4119C33.6819 49.2318 33.4187 49.1418 33.0886 49.1418C32.8001 49.1418 32.5474 49.218 32.3304 49.3703C32.1157 49.5204 31.9484 49.735 31.8283 50.0143C31.7083 50.2913 31.6483 50.6191 31.6483 50.9976C31.6483 51.3854 31.7072 51.7201 31.8249 52.0017C31.9426 52.2833 32.1088 52.5015 32.3235 52.6561C32.5404 52.8108 32.7955 52.8881 33.0886 52.8881C33.2848 52.8881 33.4626 52.8523 33.6218 52.7808C33.7834 52.7069 33.9184 52.6019 34.0269 52.4657C34.1377 52.3295 34.2151 52.1656 34.2589 51.974H35.2665C35.2295 52.318 35.1176 52.625 34.9306 52.895C34.7436 53.1651 34.4932 53.3774 34.1793 53.5321C33.8677 53.6867 33.5018 53.7641 33.0817 53.7641ZM37.9212 53.7745C37.5842 53.7745 37.2795 53.7121 37.0072 53.5875C36.7348 53.4605 36.519 53.277 36.3597 53.037C36.2027 52.7969 36.1243 52.5026 36.1243 52.1541C36.1243 51.854 36.182 51.607 36.2974 51.4131C36.4128 51.2192 36.5686 51.0657 36.7648 50.9526C36.961 50.8395 37.1803 50.7541 37.4226 50.6964C37.665 50.6387 37.912 50.5949 38.1636 50.5649C38.4821 50.5279 38.7406 50.4979 38.9392 50.4748C39.1377 50.4494 39.2819 50.409 39.3719 50.3536C39.462 50.2983 39.507 50.2082 39.507 50.0836V50.0593C39.507 49.757 39.4216 49.5227 39.2508 49.3565C39.0823 49.1903 38.8307 49.1072 38.496 49.1072C38.1474 49.1072 37.8727 49.1845 37.6719 49.3392C37.4734 49.4915 37.3361 49.6612 37.2599 49.8481L36.287 49.6266C36.4024 49.3034 36.5709 49.0426 36.7925 48.8441C37.0164 48.6432 37.2738 48.4978 37.5646 48.4078C37.8554 48.3155 38.1613 48.2693 38.4821 48.2693C38.6945 48.2693 38.9195 48.2947 39.1573 48.3455C39.3973 48.394 39.6212 48.484 39.829 48.6155C40.039 48.7471 40.211 48.9352 40.3449 49.1799C40.4787 49.4223 40.5457 49.7373 40.5457 50.1251V53.6567H39.5347V52.9296H39.4931C39.4262 53.0635 39.3258 53.1951 39.1919 53.3244C39.058 53.4536 38.8861 53.5609 38.676 53.6464C38.466 53.7318 38.2144 53.7745 37.9212 53.7745ZM38.1463 52.9435C38.4325 52.9435 38.6772 52.8869 38.8803 52.7738C39.0857 52.6607 39.2415 52.513 39.3477 52.3307C39.4562 52.146 39.5104 51.9486 39.5104 51.7386V51.053C39.4735 51.09 39.402 51.1246 39.2958 51.1569C39.1919 51.1869 39.073 51.2135 38.9392 51.2366C38.8053 51.2573 38.6749 51.2769 38.5479 51.2954C38.421 51.3116 38.3148 51.3254 38.2294 51.337C38.0286 51.3623 37.845 51.4051 37.6789 51.4651C37.515 51.5251 37.3834 51.6116 37.2841 51.7247C37.1872 51.8355 37.1387 51.9833 37.1387 52.1679C37.1387 52.4241 37.2334 52.618 37.4226 52.7496C37.6119 52.8789 37.8531 52.9435 38.1463 52.9435ZM42.9598 46.5658V53.6567H41.9246V46.5658H42.9598Z" fill="black"/>
</svg>
