<svg width="61" height="56" viewBox="0 0 61 56" fill="none" xmlns="http://www.w3.org/2000/svg">
<rect x="11.5" y="0.277222" width="36" height="37.8585" rx="12" fill="#E6FDE3"/>
<ellipse cx="25.5877" cy="15.5767" rx="7.58774" ry="2.70752" fill="#52C44B"/>
<ellipse cx="35.3148" cy="22.1281" rx="6.68524" ry="4.51254" fill="#52C44B"/>
<ellipse cx="37.3538" cy="14.0056" rx="2.90808" ry="2.00557" fill="#52C44B"/>
<path d="M1.0864 46.5658H2.38479L4.64225 52.0779H4.72534L6.9828 46.5658H8.28118V53.6567H7.26325V48.5255H7.19747L5.1062 53.6464H4.26139L2.17012 48.5221H2.10434V53.6567H1.0864V46.5658ZM9.75355 53.6567V48.3386H10.7888V53.6567H9.75355ZM10.2764 47.518C10.0963 47.518 9.94167 47.458 9.81241 47.3379C9.68546 47.2156 9.62198 47.0702 9.62198 46.9017C9.62198 46.7309 9.68546 46.5854 9.81241 46.4654C9.94167 46.3431 10.0963 46.2819 10.2764 46.2819C10.4564 46.2819 10.6099 46.3431 10.7369 46.4654C10.8661 46.5854 10.9308 46.7309 10.9308 46.9017C10.9308 47.0702 10.8661 47.2156 10.7369 47.3379C10.6099 47.458 10.4564 47.518 10.2764 47.518ZM14.4217 53.7641C13.9069 53.7641 13.4638 53.6475 13.0921 53.4144C12.7228 53.1789 12.4389 52.8546 12.2404 52.4415C12.0419 52.0283 11.9426 51.5551 11.9426 51.0219C11.9426 50.4818 12.0442 50.0051 12.2473 49.5919C12.4504 49.1764 12.7367 48.8521 13.106 48.619C13.4753 48.3859 13.9104 48.2693 14.4113 48.2693C14.8152 48.2693 15.1753 48.3443 15.4915 48.4944C15.8078 48.6421 16.0628 48.8498 16.2567 49.1176C16.4529 49.3853 16.5695 49.6981 16.6064 50.0559H15.5989C15.5435 49.8066 15.4165 49.5919 15.218 49.4119C15.0218 49.2318 14.7587 49.1418 14.4286 49.1418C14.1401 49.1418 13.8873 49.218 13.6703 49.3703C13.4557 49.5204 13.2883 49.735 13.1683 50.0143C13.0483 50.2913 12.9883 50.6191 12.9883 50.9976C12.9883 51.3854 13.0471 51.7201 13.1648 52.0017C13.2826 52.2833 13.4488 52.5015 13.6634 52.6561C13.8804 52.8108 14.1355 52.8881 14.4286 52.8881C14.6248 52.8881 14.8025 52.8523 14.9618 52.7808C15.1234 52.7069 15.2584 52.6019 15.3669 52.4657C15.4777 52.3295 15.555 52.1656 15.5989 51.974H16.6064C16.5695 52.318 16.4575 52.625 16.2706 52.895C16.0836 53.1651 15.8332 53.3774 15.5192 53.5321C15.2076 53.6867 14.8418 53.7641 14.4217 53.7641ZM17.7135 53.6567V48.3386H18.7141V49.1834H18.7695C18.8665 48.8971 19.0373 48.6721 19.282 48.5082C19.5289 48.342 19.8082 48.2589 20.1199 48.2589C20.1845 48.2589 20.2607 48.2612 20.3484 48.2658C20.4384 48.2705 20.5088 48.2762 20.5596 48.2832V49.2734C20.518 49.2619 20.4442 49.2492 20.338 49.2353C20.2318 49.2191 20.1256 49.2111 20.0194 49.2111C19.7748 49.2111 19.5566 49.263 19.3651 49.3669C19.1758 49.4684 19.0257 49.6104 18.915 49.7927C18.8042 49.9728 18.7488 50.1782 18.7488 50.409V53.6567H17.7135ZM23.5052 53.7641C23.0066 53.7641 22.5715 53.6498 22.1999 53.4213C21.8282 53.1928 21.5397 52.8731 21.3343 52.4622C21.1288 52.0514 21.0261 51.5712 21.0261 51.0219C21.0261 50.4702 21.1288 49.9878 21.3343 49.5746C21.5397 49.1614 21.8282 48.8406 22.1999 48.6121C22.5715 48.3836 23.0066 48.2693 23.5052 48.2693C24.0038 48.2693 24.4389 48.3836 24.8105 48.6121C25.1821 48.8406 25.4706 49.1614 25.6761 49.5746C25.8815 49.9878 25.9842 50.4702 25.9842 51.0219C25.9842 51.5712 25.8815 52.0514 25.6761 52.4622C25.4706 52.8731 25.1821 53.1928 24.8105 53.4213C24.4389 53.6498 24.0038 53.7641 23.5052 53.7641ZM23.5086 52.895C23.8318 52.895 24.0995 52.8096 24.3119 52.6388C24.5243 52.468 24.6812 52.2406 24.7828 51.9567C24.8867 51.6728 24.9386 51.36 24.9386 51.0184C24.9386 50.6791 24.8867 50.3675 24.7828 50.0836C24.6812 49.7974 24.5243 49.5677 24.3119 49.3946C24.0995 49.2215 23.8318 49.1349 23.5086 49.1349C23.1832 49.1349 22.9131 49.2215 22.6984 49.3946C22.4861 49.5677 22.328 49.7974 22.2241 50.0836C22.1225 50.3675 22.0718 50.6791 22.0718 51.0184C22.0718 51.36 22.1225 51.6728 22.2241 51.9567C22.328 52.2406 22.4861 52.468 22.6984 52.6388C22.9131 52.8096 23.1832 52.895 23.5086 52.895ZM27.2229 53.6567V46.5658H28.2581V49.2007H28.3204C28.3805 49.0899 28.467 48.9618 28.5801 48.8164C28.6932 48.6709 28.8502 48.544 29.051 48.4355C29.2518 48.3247 29.5173 48.2693 29.8473 48.2693C30.2767 48.2693 30.6598 48.3778 30.9968 48.5948C31.3339 48.8117 31.5981 49.1245 31.7897 49.5331C31.9836 49.9416 32.0806 50.4333 32.0806 51.008C32.0806 51.5828 31.9848 52.0756 31.7932 52.4865C31.6016 52.895 31.3385 53.2101 31.0038 53.4317C30.6691 53.651 30.2871 53.7606 29.8577 53.7606C29.5346 53.7606 29.2703 53.7064 29.0649 53.5979C28.8617 53.4894 28.7025 53.3624 28.587 53.217C28.4716 53.0716 28.3828 52.9423 28.3204 52.8292H28.2339V53.6567H27.2229ZM28.2373 50.9976C28.2373 51.3716 28.2916 51.6994 28.4001 51.981C28.5086 52.2626 28.6655 52.483 28.871 52.6423C29.0764 52.7992 29.328 52.8777 29.6258 52.8777C29.9351 52.8777 30.1936 52.7958 30.4013 52.6319C30.6091 52.4657 30.766 52.2406 30.8722 51.9567C30.9807 51.6728 31.0349 51.3531 31.0349 50.9976C31.0349 50.6468 30.9818 50.3317 30.8757 50.0524C30.7718 49.7731 30.6148 49.5527 30.4048 49.3911C30.197 49.2295 29.9374 49.1487 29.6258 49.1487C29.3257 49.1487 29.0718 49.2261 28.864 49.3807C28.6586 49.5354 28.5028 49.7512 28.3966 50.0282C28.2904 50.3052 28.2373 50.6283 28.2373 50.9976ZM33.2431 53.6567V48.3386H34.2783V53.6567H33.2431ZM33.7659 47.518C33.5858 47.518 33.4312 47.458 33.3019 47.3379C33.175 47.2156 33.1115 47.0702 33.1115 46.9017C33.1115 46.7309 33.175 46.5854 33.3019 46.4654C33.4312 46.3431 33.5858 46.2819 33.7659 46.2819C33.9459 46.2819 34.0994 46.3431 34.2264 46.4654C34.3556 46.5854 34.4203 46.7309 34.4203 46.9017C34.4203 47.0702 34.3556 47.2156 34.2264 47.3379C34.0994 47.458 33.9459 47.518 33.7659 47.518ZM37.9112 53.7641C37.4126 53.7641 36.9775 53.6498 36.6059 53.4213C36.2342 53.1928 35.9457 52.8731 35.7403 52.4622C35.5348 52.0514 35.4321 51.5712 35.4321 51.0219C35.4321 50.4702 35.5348 49.9878 35.7403 49.5746C35.9457 49.1614 36.2342 48.8406 36.6059 48.6121C36.9775 48.3836 37.4126 48.2693 37.9112 48.2693C38.4098 48.2693 38.8449 48.3836 39.2165 48.6121C39.5881 48.8406 39.8766 49.1614 40.0821 49.5746C40.2875 49.9878 40.3902 50.4702 40.3902 51.0219C40.3902 51.5712 40.2875 52.0514 40.0821 52.4622C39.8766 52.8731 39.5881 53.1928 39.2165 53.4213C38.8449 53.6498 38.4098 53.7641 37.9112 53.7641ZM37.9146 52.895C38.2378 52.895 38.5055 52.8096 38.7179 52.6388C38.9303 52.468 39.0872 52.2406 39.1888 51.9567C39.2927 51.6728 39.3446 51.36 39.3446 51.0184C39.3446 50.6791 39.2927 50.3675 39.1888 50.0836C39.0872 49.7974 38.9303 49.5677 38.7179 49.3946C38.5055 49.2215 38.2378 49.1349 37.9146 49.1349C37.5892 49.1349 37.3191 49.2215 37.1044 49.3946C36.8921 49.5677 36.734 49.7974 36.6301 50.0836C36.5285 50.3675 36.4778 50.6791 36.4778 51.0184C36.4778 51.36 36.5285 51.6728 36.6301 51.9567C36.734 52.2406 36.8921 52.468 37.1044 52.6388C37.3191 52.8096 37.5892 52.895 37.9146 52.895ZM42.581 46.5658V53.6567H41.5458V46.5658H42.581ZM46.2139 53.7641C45.7153 53.7641 45.2802 53.6498 44.9086 53.4213C44.537 53.1928 44.2484 52.8731 44.043 52.4622C43.8376 52.0514 43.7349 51.5712 43.7349 51.0219C43.7349 50.4702 43.8376 49.9878 44.043 49.5746C44.2484 49.1614 44.537 48.8406 44.9086 48.6121C45.2802 48.3836 45.7153 48.2693 46.2139 48.2693C46.7125 48.2693 47.1476 48.3836 47.5192 48.6121C47.8908 48.8406 48.1794 49.1614 48.3848 49.5746C48.5902 49.9878 48.693 50.4702 48.693 51.0219C48.693 51.5712 48.5902 52.0514 48.3848 52.4622C48.1794 52.8731 47.8908 53.1928 47.5192 53.4213C47.1476 53.6498 46.7125 53.7641 46.2139 53.7641ZM46.2174 52.895C46.5405 52.895 46.8083 52.8096 47.0206 52.6388C47.233 52.468 47.39 52.2406 47.4915 51.9567C47.5954 51.6728 47.6473 51.36 47.6473 51.0184C47.6473 50.6791 47.5954 50.3675 47.4915 50.0836C47.39 49.7974 47.233 49.5677 47.0206 49.3946C46.8083 49.2215 46.5405 49.1349 46.2174 49.1349C45.8919 49.1349 45.6218 49.2215 45.4072 49.3946C45.1948 49.5677 45.0367 49.7974 44.9328 50.0836C44.8313 50.3675 44.7805 50.6791 44.7805 51.0184C44.7805 51.36 44.8313 51.6728 44.9328 51.9567C45.0367 52.2406 45.1948 52.468 45.4072 52.6388C45.6218 52.8096 45.8919 52.895 46.2174 52.895ZM52.0783 55.7619C51.6559 55.7619 51.2923 55.7065 50.9876 55.5957C50.6853 55.4849 50.4383 55.3383 50.2467 55.1559C50.0551 54.9736 49.912 54.7739 49.8174 54.557L50.7072 54.1899C50.7695 54.2915 50.8526 54.3988 50.9565 54.5119C51.0627 54.6274 51.2058 54.7255 51.3858 54.8062C51.5682 54.887 51.8024 54.9274 52.0887 54.9274C52.4811 54.9274 52.8054 54.8316 53.0616 54.64C53.3178 54.4508 53.4459 54.1484 53.4459 53.7329V52.6873H53.3801C53.3178 52.8004 53.2278 52.9262 53.1101 53.0647C52.9947 53.2032 52.8354 53.3232 52.6323 53.4248C52.4291 53.5263 52.1648 53.5771 51.8394 53.5771C51.4193 53.5771 51.0407 53.479 50.7037 53.2828C50.369 53.0843 50.1036 52.7923 49.9074 52.4068C49.7135 52.019 49.6165 51.5424 49.6165 50.9769C49.6165 50.4114 49.7123 49.9266 49.9039 49.5227C50.0978 49.1187 50.3633 48.8094 50.7003 48.5948C51.0373 48.3778 51.4193 48.2693 51.8463 48.2693C52.1764 48.2693 52.443 48.3247 52.6461 48.4355C52.8492 48.544 53.0073 48.6709 53.1205 48.8164C53.2359 48.9618 53.3247 49.0899 53.3871 49.2007H53.4632V48.3386H54.4777V53.7745C54.4777 54.2315 54.3715 54.6066 54.1592 54.8997C53.9468 55.1929 53.6594 55.4098 53.297 55.5506C52.9369 55.6915 52.5307 55.7619 52.0783 55.7619ZM52.0679 52.7184C52.3657 52.7184 52.6173 52.6492 52.8227 52.5107C53.0304 52.3699 53.1874 52.1691 53.2936 51.9082C53.4021 51.6451 53.4563 51.33 53.4563 50.963C53.4563 50.6052 53.4032 50.2902 53.297 50.0178C53.1909 49.7454 53.035 49.5331 52.8296 49.3807C52.6242 49.2261 52.3703 49.1487 52.0679 49.1487C51.7563 49.1487 51.4966 49.2295 51.2889 49.3911C51.0811 49.5504 50.9242 49.7674 50.818 50.042C50.7141 50.3167 50.6622 50.6237 50.6622 50.963C50.6622 51.3116 50.7153 51.6174 50.8214 51.8805C50.9276 52.1437 51.0846 52.3491 51.2923 52.4968C51.5024 52.6446 51.7609 52.7184 52.0679 52.7184ZM56.5205 55.6511C56.3658 55.6511 56.225 55.6384 56.0981 55.613C55.9711 55.5899 55.8765 55.5645 55.8142 55.5368L56.0635 54.6885C56.2527 54.7393 56.4212 54.7612 56.569 54.7543C56.7167 54.7474 56.8471 54.692 56.9602 54.5881C57.0756 54.4842 57.1772 54.3146 57.2649 54.0791L57.393 53.726L55.4472 48.3386H56.5551L57.902 52.4657H57.9574L59.3042 48.3386H60.4156L58.224 54.3665C58.1224 54.6435 57.9931 54.8778 57.8362 55.0694C57.6792 55.2633 57.4923 55.4087 57.2753 55.5056C57.0583 55.6026 56.8067 55.6511 56.5205 55.6511Z" fill="black"/>
</svg>
