<svg width="41" height="56" viewBox="0 0 41 56" fill="none" xmlns="http://www.w3.org/2000/svg">
<rect x="2.5" y="0.277222" width="36" height="37.8585" rx="12" fill="#E6FDE3"/>
<path fill-rule="evenodd" clip-rule="evenodd" d="M15.6316 9.40841C16.8711 9.50271 17.976 10.0786 18.7595 10.9494L20.1292 9.57977L21.0224 10.473L19.4811 12.0142C19.7893 12.6392 19.9624 13.3426 19.9624 14.0865C19.9624 15.5532 20.4771 16.8997 21.3357 17.9553L22.7639 16.5272L23.6571 17.4203L22.2289 18.8485C23.2845 19.7071 24.631 20.2218 26.0977 20.2218C26.5115 20.2218 26.9128 20.2754 27.2951 20.376L28.3478 18.5526L29.4417 19.1842L28.4711 20.8655C29.8583 21.6805 30.7895 23.1883 30.7895 24.9135C30.7895 25.6004 30.6419 26.2527 30.3767 26.8405L32.03 27.795L31.3984 28.8889L29.7064 27.9121C28.8458 28.9467 27.5487 29.6053 26.0977 29.6053C25.9771 29.6053 25.8568 29.6039 25.7368 29.6012V31.5H24.4737V29.5213C22.5334 29.3195 20.6993 28.7602 19.0386 27.9105L18.0733 29.5825L16.9793 28.9509L17.9384 27.2897C16.6916 26.5175 15.5622 25.5736 14.5833 24.4911L12.9203 26.1541L12.0271 25.2609L13.7716 23.5164C12.7372 22.1664 11.9196 20.6415 11.3708 18.9938L9.47924 19.5006L9.15231 18.2805L11.0211 17.7798C10.7321 16.5961 10.5789 15.3592 10.5789 14.0865C10.5789 13.6564 10.6368 13.2399 10.7452 12.8442L9 11.8365L9.63158 10.7427L11.2456 11.6745C11.9177 10.5553 13.0434 9.73952 14.3684 9.48141V7.5H15.6316V9.40841ZM15.2707 10.6579C13.3772 10.6579 11.8421 12.1929 11.8421 14.0865C11.8421 21.9596 18.2246 28.3421 26.0977 28.3421C27.9913 28.3421 29.5263 26.8071 29.5263 24.9135C29.5263 23.02 27.9913 21.485 26.0977 21.485C22.0117 21.485 18.6992 18.1725 18.6992 14.0865C18.6992 12.1929 17.1642 10.6579 15.2707 10.6579ZM15 13.8158C14.6512 13.8158 14.3684 14.0985 14.3684 14.4474C14.3684 14.7962 14.6512 15.0789 15 15.0789C15.3488 15.0789 15.6316 14.7962 15.6316 14.4474C15.6316 14.0985 15.3488 13.8158 15 13.8158ZM13.1053 14.4474C13.1053 13.4009 13.9535 12.5526 15 12.5526C16.0465 12.5526 16.8947 13.4009 16.8947 14.4474C16.8947 15.4938 16.0465 16.3421 15 16.3421C13.9535 16.3421 13.1053 15.4938 13.1053 14.4474ZM20.0526 23.2895C20.0526 22.9407 20.3354 22.6579 20.6842 22.6579C21.033 22.6579 21.3158 22.9407 21.3158 23.2895C21.3158 23.6383 21.033 23.9211 20.6842 23.9211C20.3354 23.9211 20.0526 23.6383 20.0526 23.2895ZM20.6842 21.3947C19.6377 21.3947 18.7895 22.243 18.7895 23.2895C18.7895 24.3359 19.6377 25.1842 20.6842 25.1842C21.7307 25.1842 22.5789 24.3359 22.5789 23.2895C22.5789 22.243 21.7307 21.3947 20.6842 21.3947ZM17.5263 19.5C17.5263 20.1976 16.9608 20.7632 16.2632 20.7632C15.5655 20.7632 15 20.1976 15 19.5C15 18.8024 15.5655 18.2368 16.2632 18.2368C16.9608 18.2368 17.5263 18.8024 17.5263 19.5ZM25.7368 25.8158C26.4345 25.8158 27 25.2503 27 24.5526C27 23.855 26.4345 23.2895 25.7368 23.2895C25.0392 23.2895 24.4737 23.855 24.4737 24.5526C24.4737 25.2503 25.0392 25.8158 25.7368 25.8158Z" fill="#52C44B"/>
<path d="M0.907815 53.6567V46.5658H3.43534C3.98701 46.5658 4.44404 46.6662 4.80643 46.8671C5.16882 47.0679 5.44004 47.3426 5.62008 47.6911C5.80013 48.0373 5.89015 48.4274 5.89015 48.8614C5.89015 49.2976 5.79897 49.69 5.61662 50.0386C5.43658 50.3848 5.16421 50.6595 4.79951 50.8626C4.43711 51.0634 3.98123 51.1638 3.43187 51.1638H1.69377V50.2567H3.33493C3.68347 50.2567 3.96623 50.1967 4.18321 50.0767C4.40018 49.9543 4.55945 49.7881 4.66101 49.5781C4.76257 49.368 4.81335 49.1291 4.81335 48.8614C4.81335 48.5936 4.76257 48.3559 4.66101 48.1481C4.55945 47.9404 4.39903 47.7777 4.17974 47.6599C3.96277 47.5422 3.67655 47.4834 3.32108 47.4834H1.97768V53.6567H0.907815ZM8.09654 46.5658V53.6567H7.06129V46.5658H8.09654ZM11.0369 53.7745C10.6999 53.7745 10.3953 53.7121 10.1229 53.5875C9.85051 53.4605 9.63469 53.277 9.47542 53.037C9.31846 52.7969 9.23998 52.5026 9.23998 52.1541C9.23998 51.854 9.29769 51.607 9.4131 51.4131C9.52851 51.2192 9.68432 51.0657 9.88052 50.9526C10.0767 50.8395 10.296 50.7541 10.5384 50.6964C10.7807 50.6387 11.0277 50.5949 11.2793 50.5649C11.5978 50.5279 11.8564 50.4979 12.0549 50.4748C12.2534 50.4494 12.3976 50.409 12.4877 50.3536C12.5777 50.2983 12.6227 50.2082 12.6227 50.0836V50.0593C12.6227 49.757 12.5373 49.5227 12.3665 49.3565C12.198 49.1903 11.9464 49.1072 11.6117 49.1072C11.2632 49.1072 10.9885 49.1845 10.7877 49.3392C10.5891 49.4915 10.4518 49.6612 10.3756 49.8481L9.40271 49.6266C9.51812 49.3034 9.68662 49.0426 9.90821 48.8441C10.1321 48.6432 10.3895 48.4978 10.6803 48.4078C10.9712 48.3155 11.277 48.2693 11.5978 48.2693C11.8102 48.2693 12.0353 48.2947 12.273 48.3455C12.5131 48.394 12.737 48.484 12.9447 48.6155C13.1548 48.7471 13.3267 48.9352 13.4606 49.1799C13.5945 49.4223 13.6614 49.7373 13.6614 50.1251V53.6567H12.6504V52.9296H12.6089C12.5419 53.0635 12.4415 53.1951 12.3076 53.3244C12.1738 53.4536 12.0018 53.5609 11.7917 53.6464C11.5817 53.7318 11.3301 53.7745 11.0369 53.7745ZM11.262 52.9435C11.5482 52.9435 11.7929 52.8869 11.996 52.7738C12.2014 52.6607 12.3573 52.513 12.4634 52.3307C12.5719 52.146 12.6262 51.9486 12.6262 51.7386V51.053C12.5892 51.09 12.5177 51.1246 12.4115 51.1569C12.3076 51.1869 12.1888 51.2135 12.0549 51.2366C11.921 51.2573 11.7906 51.2769 11.6636 51.2954C11.5367 51.3116 11.4305 51.3254 11.3451 51.337C11.1443 51.3623 10.9608 51.4051 10.7946 51.4651C10.6307 51.5251 10.4991 51.6116 10.3999 51.7247C10.3029 51.8355 10.2545 51.9833 10.2545 52.1679C10.2545 52.4241 10.3491 52.618 10.5384 52.7496C10.7276 52.8789 10.9688 52.9435 11.262 52.9435ZM16.0755 50.4991V53.6567H15.0403V48.3386H16.034V49.2041H16.0998C16.2221 48.9225 16.4137 48.6963 16.6745 48.5255C16.9377 48.3547 17.2689 48.2693 17.6682 48.2693C18.0306 48.2693 18.348 48.3455 18.6204 48.4978C18.8927 48.6479 19.1039 48.8718 19.254 49.1695C19.404 49.4673 19.479 49.8354 19.479 50.274V53.6567H18.4438V50.3987C18.4438 50.0132 18.3434 49.712 18.1426 49.495C17.9418 49.2757 17.6659 49.1661 17.3151 49.1661C17.075 49.1661 16.8615 49.218 16.6745 49.3219C16.4899 49.4257 16.3433 49.5781 16.2348 49.7789C16.1286 49.9774 16.0755 50.2175 16.0755 50.4991ZM21.8196 51.8528L21.8127 50.5891H21.9927L24.1117 48.3386H25.3512L22.9345 50.9007H22.7717L21.8196 51.8528ZM20.8674 53.6567V46.5658H21.9027V53.6567H20.8674ZM24.2259 53.6567L22.3216 51.1292L23.0349 50.4056L25.4966 53.6567H24.2259ZM28.7772 48.3386V49.1695H25.8723V48.3386H28.7772ZM26.6513 47.0644H27.6866V52.0952C27.6866 52.296 27.7166 52.4472 27.7766 52.5488C27.8366 52.648 27.9139 52.7161 28.0086 52.7531C28.1055 52.7877 28.2105 52.805 28.3236 52.805C28.4067 52.805 28.4794 52.7992 28.5418 52.7877C28.6041 52.7761 28.6526 52.7669 28.6872 52.76L28.8741 53.6152C28.8141 53.6383 28.7287 53.6614 28.6179 53.6844C28.5071 53.7098 28.3686 53.7237 28.2024 53.726C27.9301 53.7306 27.6762 53.6821 27.4407 53.5806C27.2053 53.479 27.0149 53.322 26.8694 53.1097C26.724 52.8973 26.6513 52.6307 26.6513 52.3099V47.0644ZM32.1054 53.7641C31.6068 53.7641 31.1717 53.6498 30.8001 53.4213C30.4285 53.1928 30.1399 52.8731 29.9345 52.4622C29.7291 52.0514 29.6263 51.5712 29.6263 51.0219C29.6263 50.4702 29.7291 49.9878 29.9345 49.5746C30.1399 49.1614 30.4285 48.8406 30.8001 48.6121C31.1717 48.3836 31.6068 48.2693 32.1054 48.2693C32.604 48.2693 33.0391 48.3836 33.4107 48.6121C33.7823 48.8406 34.0709 49.1614 34.2763 49.5746C34.4817 49.9878 34.5844 50.4702 34.5844 51.0219C34.5844 51.5712 34.4817 52.0514 34.2763 52.4622C34.0709 52.8731 33.7823 53.1928 33.4107 53.4213C33.0391 53.6498 32.604 53.7641 32.1054 53.7641ZM32.1089 52.895C32.432 52.895 32.6998 52.8096 32.9121 52.6388C33.1245 52.468 33.2814 52.2406 33.383 51.9567C33.4869 51.6728 33.5388 51.36 33.5388 51.0184C33.5388 50.6791 33.4869 50.3675 33.383 50.0836C33.2814 49.7974 33.1245 49.5677 32.9121 49.3946C32.6998 49.2215 32.432 49.1349 32.1089 49.1349C31.7834 49.1349 31.5133 49.2215 31.2987 49.3946C31.0863 49.5677 30.9282 49.7974 30.8243 50.0836C30.7228 50.3675 30.672 50.6791 30.672 51.0184C30.672 51.36 30.7228 51.6728 30.8243 51.9567C30.9282 52.2406 31.0863 52.468 31.2987 52.6388C31.5133 52.8096 31.7834 52.895 32.1089 52.895ZM36.7752 50.4991V53.6567H35.74V48.3386H36.7337V49.2041H36.7995C36.9218 48.9225 37.1134 48.6963 37.3742 48.5255C37.6374 48.3547 37.9686 48.2693 38.3679 48.2693C38.7303 48.2693 39.0477 48.3455 39.3201 48.4978C39.5925 48.6479 39.8037 48.8718 39.9537 49.1695C40.1037 49.4673 40.1787 49.8354 40.1787 50.274V53.6567H39.1435V50.3987C39.1435 50.0132 39.0431 49.712 38.8423 49.495C38.6415 49.2757 38.3656 49.1661 38.0148 49.1661C37.7747 49.1661 37.5612 49.218 37.3742 49.3219C37.1896 49.4257 37.043 49.5781 36.9345 49.7789C36.8283 49.9774 36.7752 50.2175 36.7752 50.4991Z" fill="black"/>
</svg>
