<svg width="43" height="56" viewBox="0 0 43 56" fill="none" xmlns="http://www.w3.org/2000/svg">
<rect x="3.5" y="0.239014" width="36" height="37.8585" rx="12" fill="#FFDAD9"/>
<path d="M21 24C23.7614 24 26 21.7614 26 19C26 16.2386 23.7614 14 21 14C18.2386 14 16 16.2386 16 19C16 21.7614 18.2386 24 21 24Z" stroke="#DB1121" stroke-width="2.35" stroke-linecap="round" stroke-linejoin="round"/>
<path d="M21 14V10M20 10H22" stroke="#DB1121" stroke-width="2.35" stroke-linecap="round" stroke-linejoin="round"/>
<path d="M24.5355 15.4645L27.364 12.6361M26.6569 11.929L28.0711 13.3432" stroke="#DB1121" stroke-width="2.35" stroke-linecap="round" stroke-linejoin="round"/>
<path d="M26 19H30M30 18V20" stroke="#DB1121" stroke-width="2.35" stroke-linecap="round" stroke-linejoin="round"/>
<path d="M24.5355 22.5355L27.3639 25.364M28.071 24.6569L26.6568 26.0711" stroke="#DB1121" stroke-width="2.35" stroke-linecap="round" stroke-linejoin="round"/>
<path d="M21 24V28M22 28H20" stroke="#DB1121" stroke-width="2.35" stroke-linecap="round" stroke-linejoin="round"/>
<path d="M17.4645 22.5355L14.636 25.3639M15.3431 26.071L13.9289 24.6568" stroke="#DB1121" stroke-width="2.35" stroke-linecap="round" stroke-linejoin="round"/>
<path d="M16 19H12M12 20V18" stroke="#DB1121" stroke-width="2.35" stroke-linecap="round" stroke-linejoin="round"/>
<path d="M17.4645 15.4645L14.6361 12.636M13.929 13.3431L15.3432 11.9289" stroke="#DB1121" stroke-width="2.35" stroke-linecap="round" stroke-linejoin="round"/>
<path d="M3.50353 53.6185H1.20799V46.5276H3.57624C4.27102 46.5276 4.8677 46.6696 5.36628 46.9535C5.86486 47.2351 6.24687 47.6402 6.51232 48.1688C6.78007 48.6951 6.91395 49.3264 6.91395 50.0627C6.91395 50.8013 6.77892 51.4361 6.50886 51.967C6.2411 52.4979 5.85332 52.9064 5.3455 53.1927C4.83769 53.4766 4.2237 53.6185 3.50353 53.6185ZM2.27785 52.6837H3.44467C3.9848 52.6837 4.43375 52.5821 4.79153 52.379C5.1493 52.1736 5.41706 51.877 5.59479 51.4892C5.77253 51.0991 5.86139 50.6236 5.86139 50.0627C5.86139 49.5064 5.77253 49.0344 5.59479 48.6466C5.41937 48.2588 5.15738 47.9645 4.80884 47.7637C4.46029 47.5629 4.0275 47.4625 3.51045 47.4625H2.27785V52.6837ZM8.16127 53.6185V48.3003H9.19651V53.6185H8.16127ZM8.68408 47.4798C8.50404 47.4798 8.34939 47.4198 8.22013 47.2997C8.09317 47.1774 8.0297 47.032 8.0297 46.8635C8.0297 46.6927 8.09317 46.5472 8.22013 46.4272C8.34939 46.3049 8.50404 46.2437 8.68408 46.2437C8.86412 46.2437 9.01762 46.3049 9.14458 46.4272C9.27384 46.5472 9.33847 46.6927 9.33847 46.8635C9.33847 47.032 9.27384 47.1774 9.14458 47.2997C9.01762 47.4198 8.86412 47.4798 8.68408 47.4798ZM14.5744 49.5987L13.6361 49.7649C13.5969 49.6449 13.5346 49.5306 13.4492 49.4222C13.3661 49.3137 13.253 49.2248 13.1098 49.1556C12.9667 49.0863 12.7878 49.0517 12.5732 49.0517C12.28 49.0517 12.0354 49.1175 11.8392 49.249C11.643 49.3783 11.5449 49.5456 11.5449 49.7511C11.5449 49.9288 11.6106 50.0719 11.7422 50.1804C11.8738 50.2889 12.0861 50.3778 12.3793 50.447L13.2241 50.6409C13.7134 50.754 14.0781 50.9283 14.3182 51.1637C14.5583 51.3992 14.6783 51.705 14.6783 52.0812C14.6783 52.3998 14.586 52.6837 14.4013 52.933C14.2189 53.18 13.9639 53.3739 13.6361 53.5147C13.3107 53.6555 12.9333 53.7259 12.5039 53.7259C11.9084 53.7259 11.4225 53.5989 11.0463 53.345C10.67 53.0888 10.4392 52.7252 10.3538 52.2544L11.3544 52.102C11.4167 52.3628 11.5449 52.5602 11.7387 52.6941C11.9326 52.8257 12.1854 52.8914 12.497 52.8914C12.8363 52.8914 13.1075 52.821 13.3107 52.6802C13.5138 52.5371 13.6153 52.3628 13.6153 52.1574C13.6153 51.9912 13.553 51.8516 13.4284 51.7385C13.306 51.6254 13.1179 51.54 12.864 51.4823L11.9638 51.2849C11.4675 51.1718 11.1005 50.9918 10.8628 50.7448C10.6273 50.4978 10.5096 50.185 10.5096 49.8065C10.5096 49.4926 10.5973 49.2179 10.7727 48.9824C10.9482 48.747 11.1905 48.5635 11.4998 48.4319C11.8091 48.298 12.1635 48.2311 12.5628 48.2311C13.1375 48.2311 13.59 48.3557 13.92 48.605C14.2501 48.852 14.4682 49.1832 14.5744 49.5987ZM18.1086 53.7259C17.5847 53.7259 17.1334 53.6139 16.7548 53.39C16.3786 53.1638 16.0878 52.8464 15.8823 52.4379C15.6792 52.027 15.5776 51.5457 15.5776 50.9941C15.5776 50.4493 15.6792 49.9692 15.8823 49.5537C16.0878 49.1382 16.374 48.8139 16.741 48.5808C17.1103 48.3477 17.5419 48.2311 18.0359 48.2311C18.336 48.2311 18.6268 48.2807 18.9084 48.38C19.19 48.4792 19.4428 48.635 19.6667 48.8474C19.8906 49.0598 20.0672 49.3356 20.1964 49.6749C20.3257 50.0119 20.3903 50.4216 20.3903 50.904V51.2711H16.1628V50.4955H19.3758C19.3758 50.2231 19.3204 49.9819 19.2097 49.7719C19.0989 49.5595 18.943 49.3921 18.7422 49.2698C18.5437 49.1475 18.3106 49.0863 18.0428 49.0863C17.752 49.0863 17.4981 49.1579 17.2811 49.301C17.0665 49.4418 16.9003 49.6264 16.7825 49.8549C16.6671 50.0812 16.6094 50.327 16.6094 50.5924V51.1983C16.6094 51.5538 16.6717 51.8562 16.7964 52.1055C16.9233 52.3548 17.0999 52.5452 17.3261 52.6768C17.5523 52.806 17.8166 52.8707 18.119 52.8707C18.3152 52.8707 18.4941 52.843 18.6557 52.7876C18.8172 52.7299 18.9569 52.6445 19.0746 52.5313C19.1923 52.4182 19.2824 52.2786 19.3447 52.1124L20.3245 52.289C20.246 52.5775 20.1052 52.8303 19.9021 53.0472C19.7013 53.2619 19.4486 53.4293 19.1439 53.5493C18.8415 53.667 18.4964 53.7259 18.1086 53.7259ZM23.0866 53.7363C22.7496 53.7363 22.4449 53.6739 22.1726 53.5493C21.9002 53.4223 21.6844 53.2388 21.5251 52.9988C21.3681 52.7587 21.2897 52.4644 21.2897 52.1159C21.2897 51.8158 21.3474 51.5688 21.4628 51.3749C21.5782 51.181 21.734 51.0275 21.9302 50.9144C22.1264 50.8013 22.3457 50.7159 22.588 50.6582C22.8304 50.6005 23.0774 50.5567 23.329 50.5266C23.6475 50.4897 23.9061 50.4597 24.1046 50.4366C24.3031 50.4112 24.4473 50.3708 24.5374 50.3154C24.6274 50.26 24.6724 50.17 24.6724 50.0454V50.0211C24.6724 49.7188 24.587 49.4845 24.4162 49.3183C24.2477 49.1521 23.9961 49.069 23.6614 49.069C23.3128 49.069 23.0382 49.1463 22.8373 49.301C22.6388 49.4533 22.5015 49.623 22.4253 49.8099L21.4524 49.5883C21.5678 49.2652 21.7363 49.0044 21.9579 48.8059C22.1818 48.605 22.4392 48.4596 22.73 48.3696C23.0208 48.2773 23.3267 48.2311 23.6475 48.2311C23.8599 48.2311 24.0849 48.2565 24.3227 48.3073C24.5627 48.3557 24.7866 48.4458 24.9944 48.5773C25.2044 48.7089 25.3764 48.897 25.5103 49.1417C25.6442 49.3841 25.7111 49.6991 25.7111 50.0869V53.6185H24.7001V52.8914H24.6585C24.5916 53.0253 24.4912 53.1569 24.3573 53.2861C24.2234 53.4154 24.0515 53.5227 23.8414 53.6081C23.6314 53.6935 23.3798 53.7363 23.0866 53.7363ZM23.3117 52.9053C23.5979 52.9053 23.8426 52.8487 24.0457 52.7356C24.2511 52.6225 24.4069 52.4748 24.5131 52.2924C24.6216 52.1078 24.6758 51.9104 24.6758 51.7004V51.0148C24.6389 51.0518 24.5674 51.0864 24.4612 51.1187C24.3573 51.1487 24.2384 51.1753 24.1046 51.1983C23.9707 51.2191 23.8403 51.2387 23.7133 51.2572C23.5864 51.2734 23.4802 51.2872 23.3948 51.2988C23.194 51.3241 23.0105 51.3668 22.8443 51.4269C22.6804 51.4869 22.5488 51.5734 22.4496 51.6865C22.3526 51.7973 22.3041 51.9451 22.3041 52.1297C22.3041 52.3859 22.3988 52.5798 22.588 52.7114C22.7773 52.8407 23.0185 52.9053 23.3117 52.9053ZM31.0752 49.5987L30.1369 49.7649C30.0976 49.6449 30.0353 49.5306 29.9499 49.4222C29.8668 49.3137 29.7537 49.2248 29.6106 49.1556C29.4675 49.0863 29.2886 49.0517 29.0739 49.0517C28.7808 49.0517 28.5361 49.1175 28.3399 49.249C28.1437 49.3783 28.0456 49.5456 28.0456 49.7511C28.0456 49.9288 28.1114 50.0719 28.2429 50.1804C28.3745 50.2889 28.5869 50.3778 28.88 50.447L29.7248 50.6409C30.2142 50.754 30.5789 50.9283 30.8189 51.1637C31.059 51.3992 31.179 51.705 31.179 52.0812C31.179 52.3998 31.0867 52.6837 30.902 52.933C30.7197 53.18 30.4646 53.3739 30.1369 53.5147C29.8114 53.6555 29.434 53.7259 29.0047 53.7259C28.4091 53.7259 27.9233 53.5989 27.547 53.345C27.1708 53.0888 26.9399 52.7252 26.8545 52.2544L27.8552 52.102C27.9175 52.3628 28.0456 52.5602 28.2395 52.6941C28.4334 52.8257 28.6861 52.8914 28.9977 52.8914C29.337 52.8914 29.6083 52.821 29.8114 52.6802C30.0145 52.5371 30.1161 52.3628 30.1161 52.1574C30.1161 51.9912 30.0538 51.8516 29.9291 51.7385C29.8068 51.6254 29.6187 51.54 29.3647 51.4823L28.4645 51.2849C27.9683 51.1718 27.6013 50.9918 27.3635 50.7448C27.1281 50.4978 27.0103 50.185 27.0103 49.8065C27.0103 49.4926 27.0981 49.2179 27.2735 48.9824C27.4489 48.747 27.6913 48.5635 28.0006 48.4319C28.3099 48.298 28.6642 48.2311 29.0635 48.2311C29.6383 48.2311 30.0907 48.3557 30.4208 48.605C30.7508 48.852 30.969 49.1832 31.0752 49.5987ZM34.6094 53.7259C34.0854 53.7259 33.6341 53.6139 33.2556 53.39C32.8793 53.1638 32.5885 52.8464 32.3831 52.4379C32.1799 52.027 32.0784 51.5457 32.0784 50.9941C32.0784 50.4493 32.1799 49.9692 32.3831 49.5537C32.5885 49.1382 32.8747 48.8139 33.2417 48.5808C33.611 48.3477 34.0427 48.2311 34.5366 48.2311C34.8367 48.2311 35.1276 48.2807 35.4092 48.38C35.6908 48.4792 35.9435 48.635 36.1674 48.8474C36.3913 49.0598 36.5679 49.3356 36.6972 49.6749C36.8264 50.0119 36.891 50.4216 36.891 50.904V51.2711H32.6635V50.4955H35.8766C35.8766 50.2231 35.8212 49.9819 35.7104 49.7719C35.5996 49.5595 35.4438 49.3921 35.243 49.2698C35.0445 49.1475 34.8113 49.0863 34.5436 49.0863C34.2527 49.0863 33.9988 49.1579 33.7818 49.301C33.5672 49.4418 33.401 49.6264 33.2833 49.8549C33.1679 50.0812 33.1102 50.327 33.1102 50.5924V51.1983C33.1102 51.5538 33.1725 51.8562 33.2971 52.1055C33.4241 52.3548 33.6007 52.5452 33.8269 52.6768C34.0531 52.806 34.3174 52.8707 34.6197 52.8707C34.8159 52.8707 34.9948 52.843 35.1564 52.7876C35.318 52.7299 35.4576 52.6445 35.5754 52.5313C35.6931 52.4182 35.7831 52.2786 35.8454 52.1124L36.8253 52.289C36.7468 52.5775 36.606 52.8303 36.4029 53.0472C36.202 53.2619 35.9493 53.4293 35.6446 53.5493C35.3422 53.667 34.9971 53.7259 34.6094 53.7259ZM42.0249 49.5987L41.0866 49.7649C41.0473 49.6449 40.985 49.5306 40.8996 49.4222C40.8165 49.3137 40.7034 49.2248 40.5603 49.1556C40.4172 49.0863 40.2383 49.0517 40.0236 49.0517C39.7305 49.0517 39.4858 49.1175 39.2896 49.249C39.0934 49.3783 38.9953 49.5456 38.9953 49.7511C38.9953 49.9288 39.0611 50.0719 39.1926 50.1804C39.3242 50.2889 39.5366 50.3778 39.8297 50.447L40.6745 50.6409C41.1639 50.754 41.5286 50.9283 41.7686 51.1637C42.0087 51.3992 42.1287 51.705 42.1287 52.0812C42.1287 52.3998 42.0364 52.6837 41.8517 52.933C41.6694 53.18 41.4143 53.3739 41.0866 53.5147C40.7611 53.6555 40.3837 53.7259 39.9544 53.7259C39.3588 53.7259 38.873 53.5989 38.4967 53.345C38.1205 53.0888 37.8896 52.7252 37.8042 52.2544L38.8049 52.102C38.8672 52.3628 38.9953 52.5602 39.1892 52.6941C39.3831 52.8257 39.6358 52.8914 39.9474 52.8914C40.2868 52.8914 40.558 52.821 40.7611 52.6802C40.9642 52.5371 41.0658 52.3628 41.0658 52.1574C41.0658 51.9912 41.0035 51.8516 40.8788 51.7385C40.7565 51.6254 40.5684 51.54 40.3145 51.4823L39.4142 51.2849C38.918 51.1718 38.551 50.9918 38.3132 50.7448C38.0778 50.4978 37.96 50.185 37.96 49.8065C37.96 49.4926 38.0478 49.2179 38.2232 48.9824C38.3986 48.747 38.641 48.5635 38.9503 48.4319C39.2596 48.298 39.6139 48.2311 40.0132 48.2311C40.588 48.2311 41.0404 48.3557 41.3705 48.605C41.7006 48.852 41.9187 49.1832 42.0249 49.5987Z" fill="black"/>
</svg>
