<svg width="45" height="59" viewBox="0 0 45 59" fill="none" xmlns="http://www.w3.org/2000/svg">
<rect x="4.49994" y="3.23901" width="36" height="37.8585" rx="12" fill="#FFDAD9"/>
<path d="M22.4999 10.25C15.8725 10.25 10.4999 15.6226 10.4999 22.25C10.4999 28.8774 15.8725 34.25 22.4999 34.25C29.1273 34.25 34.4999 28.8774 34.4999 22.25C34.4999 15.6226 29.1273 10.25 22.4999 10.25ZM29.8538 29.6039C28.0304 31.4219 25.5953 32.496 23.0232 32.6167C20.4511 32.7375 17.9262 31.8963 15.9404 30.257C13.9546 28.6178 12.6503 26.298 12.2815 23.7496C11.9127 21.2012 12.5059 18.6068 13.9455 16.4719C15.3851 14.337 17.568 12.8145 20.0688 12.2011C22.5696 11.5877 25.2092 11.9274 27.4733 13.1539C29.7374 14.3804 31.4637 16.4059 32.3159 18.8357C33.1682 21.2656 33.0852 23.9256 32.0833 26.2977C31.5611 27.5336 30.804 28.6565 29.8538 29.6039Z" fill="#DB1121"/>
<path d="M26.8999 25.4501L18.0999 25.4501L18.0999 27.0501L26.8999 27.0501L26.8999 25.4501Z" fill="#DB1121"/>
<path d="M20.2314 20.8522L19.0293 19.7836L20.0978 18.5816L18.902 17.5186L17.8335 18.7207L16.6314 17.6522L15.5684 18.848L16.7705 19.9165L15.702 21.1186L16.8978 22.1816L17.9664 20.9795L19.1684 22.048L20.2314 20.8522Z" fill="#DB1121"/>
<path d="M28.8978 18.5816L27.702 17.5186L26.6335 18.7207L25.4314 17.6522L24.3684 18.848L25.5705 19.9165L24.502 21.1186L25.6978 22.1816L26.7664 20.9795L27.9684 22.048L29.0314 20.8522L27.8293 19.7836L28.8978 18.5816Z" fill="#DB1121"/>
<path d="M3.84074 49.5276H5.13912L7.39658 55.0397H7.47968L9.73713 49.5276H11.0355V56.6185H10.0176V51.4873H9.9518L7.86053 56.6081H7.01572L4.92446 51.4839H4.85867V56.6185H3.84074V49.5276ZM14.748 56.7259C14.2495 56.7259 13.8143 56.6116 13.4427 56.3831C13.0711 56.1546 12.7826 55.8349 12.5771 55.424C12.3717 55.0132 12.269 54.533 12.269 53.9837C12.269 53.432 12.3717 52.9496 12.5771 52.5364C12.7826 52.1232 13.0711 51.8024 13.4427 51.5739C13.8143 51.3454 14.2495 51.2311 14.748 51.2311C15.2466 51.2311 15.6817 51.3454 16.0533 51.5739C16.425 51.8024 16.7135 52.1232 16.9189 52.5364C17.1244 52.9496 17.2271 53.432 17.2271 53.9837C17.2271 54.533 17.1244 55.0132 16.9189 55.424C16.7135 55.8349 16.425 56.1546 16.0533 56.3831C15.6817 56.6116 15.2466 56.7259 14.748 56.7259ZM14.7515 55.8568C15.0746 55.8568 15.3424 55.7714 15.5548 55.6006C15.7671 55.4298 15.9241 55.2024 16.0256 54.9185C16.1295 54.6346 16.1814 54.3218 16.1814 53.9802C16.1814 53.6409 16.1295 53.3293 16.0256 53.0454C15.9241 52.7592 15.7671 52.5295 15.5548 52.3564C15.3424 52.1832 15.0746 52.0967 14.7515 52.0967C14.426 52.0967 14.156 52.1832 13.9413 52.3564C13.7289 52.5295 13.5708 52.7592 13.467 53.0454C13.3654 53.3293 13.3146 53.6409 13.3146 53.9802C13.3146 54.3218 13.3654 54.6346 13.467 54.9185C13.5708 55.2024 13.7289 55.4298 13.9413 55.6006C14.156 55.7714 14.426 55.8568 14.7515 55.8568ZM18.3826 56.6185V51.3003H19.3833V52.1452H19.4387C19.5356 51.8589 19.7064 51.6339 19.9511 51.47C20.1981 51.3038 20.4774 51.2207 20.789 51.2207C20.8536 51.2207 20.9298 51.223 21.0175 51.2276C21.1075 51.2323 21.1779 51.238 21.2287 51.245V52.2352C21.1872 52.2236 21.1133 52.2109 21.0071 52.1971C20.9009 52.1809 20.7947 52.1729 20.6886 52.1729C20.4439 52.1729 20.2258 52.2248 20.0342 52.3287C19.8449 52.4302 19.6949 52.5722 19.5841 52.7545C19.4733 52.9346 19.4179 53.14 19.4179 53.3708V56.6185H18.3826ZM23.6247 56.7363C23.2876 56.7363 22.983 56.6739 22.7106 56.5493C22.4382 56.4223 22.2224 56.2388 22.0631 55.9988C21.9062 55.7587 21.8277 55.4644 21.8277 55.1159C21.8277 54.8158 21.8854 54.5688 22.0008 54.3749C22.1162 54.181 22.272 54.0275 22.4682 53.9144C22.6644 53.8013 22.8837 53.7159 23.1261 53.6582C23.3684 53.6005 23.6154 53.5567 23.867 53.5266C24.1856 53.4897 24.4441 53.4597 24.6426 53.4366C24.8411 53.4112 24.9854 53.3708 25.0754 53.3154C25.1654 53.26 25.2104 53.17 25.2104 53.0454V53.0211C25.2104 52.7188 25.125 52.4845 24.9542 52.3183C24.7857 52.1521 24.5341 52.069 24.1994 52.069C23.8509 52.069 23.5762 52.1463 23.3754 52.301C23.1769 52.4533 23.0395 52.623 22.9633 52.8099L21.9904 52.5883C22.1058 52.2652 22.2743 52.0044 22.4959 51.8059C22.7198 51.605 22.9772 51.4596 23.268 51.3696C23.5589 51.2773 23.8647 51.2311 24.1856 51.2311C24.3979 51.2311 24.623 51.2565 24.8607 51.3073C25.1008 51.3557 25.3247 51.4458 25.5324 51.5773C25.7425 51.7089 25.9144 51.897 26.0483 52.1417C26.1822 52.3841 26.2491 52.6991 26.2491 53.0869V56.6185H25.2381V55.8914H25.1966C25.1296 56.0253 25.0292 56.1569 24.8953 56.2861C24.7615 56.4154 24.5895 56.5227 24.3794 56.6081C24.1694 56.6935 23.9178 56.7363 23.6247 56.7363ZM23.8497 55.9053C24.1359 55.9053 24.3806 55.8487 24.5837 55.7356C24.7892 55.6225 24.945 55.4748 25.0511 55.2924C25.1596 55.1078 25.2139 54.9104 25.2139 54.7004V54.0148C25.1769 54.0518 25.1054 54.0864 24.9992 54.1187C24.8953 54.1487 24.7765 54.1753 24.6426 54.1983C24.5087 54.2191 24.3783 54.2387 24.2513 54.2572C24.1244 54.2734 24.0182 54.2872 23.9328 54.2988C23.732 54.3241 23.5485 54.3668 23.3823 54.4269C23.2184 54.4869 23.0868 54.5734 22.9876 54.6865C22.8906 54.7973 22.8422 54.9451 22.8422 55.1297C22.8422 55.3859 22.9368 55.5798 23.1261 55.7114C23.3153 55.8407 23.5566 55.9053 23.8497 55.9053ZM28.6632 49.5276V56.6185H27.628V49.5276H28.6632ZM30.056 56.6185V51.3003H31.0912V56.6185H30.056ZM30.5788 50.4798C30.3988 50.4798 30.2441 50.4198 30.1148 50.2997C29.9879 50.1774 29.9244 50.032 29.9244 49.8635C29.9244 49.6927 29.9879 49.5472 30.1148 49.4272C30.2441 49.3049 30.3988 49.2437 30.5788 49.2437C30.7588 49.2437 30.9123 49.3049 31.0393 49.4272C31.1686 49.5472 31.2332 49.6927 31.2332 49.8635C31.2332 50.032 31.1686 50.1774 31.0393 50.2997C30.9123 50.4198 30.7588 50.4798 30.5788 50.4798ZM34.9665 51.3003V52.1313H32.0616V51.3003H34.9665ZM32.8406 50.0262H33.8758V55.057C33.8758 55.2578 33.9058 55.409 33.9658 55.5106C34.0259 55.6098 34.1032 55.6779 34.1978 55.7149C34.2948 55.7495 34.3998 55.7668 34.5129 55.7668C34.596 55.7668 34.6687 55.761 34.731 55.7495C34.7934 55.7379 34.8418 55.7287 34.8764 55.7218L35.0634 56.577C35.0034 56.6001 34.918 56.6231 34.8072 56.6462C34.6964 56.6716 34.5579 56.6855 34.3917 56.6878C34.1193 56.6924 33.8654 56.6439 33.63 56.5424C33.3946 56.4408 33.2041 56.2838 33.0587 56.0715C32.9133 55.8591 32.8406 55.5925 32.8406 55.2717V50.0262ZM36.766 58.6128C36.6114 58.6128 36.4706 58.6002 36.3436 58.5748C36.2167 58.5517 36.122 58.5263 36.0597 58.4986L36.309 57.6503C36.4983 57.7011 36.6668 57.723 36.8145 57.7161C36.9622 57.7092 37.0926 57.6538 37.2057 57.5499C37.3212 57.446 37.4227 57.2764 37.5104 57.0409L37.6385 56.6878L35.6927 51.3003H36.8007L38.1475 55.4275H38.2029L39.5498 51.3003H40.6612L38.4695 57.3283C38.3679 57.6053 38.2387 57.8396 38.0817 58.0312C37.9248 58.2251 37.7378 58.3705 37.5208 58.4674C37.3038 58.5644 37.0523 58.6128 36.766 58.6128Z" fill="black"/>
</svg>
