<svg width="52" height="56" viewBox="0 0 52 56" fill="none" xmlns="http://www.w3.org/2000/svg">
<rect x="8" width="36" height="37.8585" rx="12" fill="#FEF7E7"/>
<path d="M24.1389 27.1235L23.1071 20.2248L21.0342 23.0267C19.2424 20.8159 19.094 17.594 20.8649 15.2004C22.5436 12.9312 25.4386 12.0934 27.9828 12.9208L27.6258 10.5333L30.5529 10.0956C26.2744 7.90164 20.9144 9.06079 17.9611 13.0526C14.9999 17.0553 15.4702 22.5385 18.8447 25.9863L17.2401 28.1552L24.1389 27.1235V27.1235ZM33.2519 12.1136L34.9325 9.84183L28.0339 10.8734L29.0656 17.7722L31.0566 15.0809C32.7723 17.2879 32.8899 20.4486 31.1458 22.8063C29.4947 25.0381 26.6671 25.885 24.1538 25.125L24.496 27.4126L21.3934 27.8765C25.6808 30.1081 31.0735 28.9559 34.0392 24.9473C36.972 20.9829 36.5386 15.5666 33.2519 12.1136L33.2519 12.1136Z" fill="#FF9C0B"/>
<path d="M4.6814 48.3522C4.64446 48.0244 4.49212 47.7705 4.22437 47.5904C3.95661 47.4081 3.61961 47.3169 3.21336 47.3169C2.92252 47.3169 2.67092 47.3631 2.45856 47.4554C2.2462 47.5454 2.08117 47.6701 1.96345 47.8293C1.84803 47.9863 1.79033 48.1652 1.79033 48.366C1.79033 48.5345 1.82957 48.6799 1.90805 48.8023C1.98884 48.9246 2.09386 49.0273 2.22312 49.1104C2.35469 49.1912 2.49549 49.2593 2.64553 49.3147C2.79557 49.3678 2.93983 49.4116 3.07832 49.4463L3.7708 49.6263C3.997 49.6817 4.22898 49.7567 4.46673 49.8514C4.70448 49.946 4.92492 50.0706 5.12804 50.2253C5.33117 50.3799 5.49505 50.5715 5.6197 50.8C5.74665 51.0286 5.81013 51.3021 5.81013 51.6206C5.81013 52.0223 5.70625 52.3789 5.49851 52.6905C5.29308 53.0021 4.99416 53.2479 4.60176 53.428C4.21167 53.608 3.73964 53.698 3.18566 53.698C2.65476 53.698 2.19542 53.6138 1.80764 53.4453C1.41986 53.2768 1.11632 53.0379 0.897039 52.7286C0.677757 52.417 0.556574 52.0477 0.533492 51.6206H1.60682C1.6276 51.8768 1.71069 52.0904 1.85611 52.2612C2.00384 52.4297 2.19196 52.5555 2.42048 52.6386C2.6513 52.7193 2.90405 52.7597 3.17873 52.7597C3.48111 52.7597 3.75002 52.7124 3.98546 52.6178C4.22321 52.5208 4.41018 52.387 4.54636 52.2162C4.68255 52.043 4.75064 51.8411 4.75064 51.6102C4.75064 51.4002 4.69063 51.2282 4.5706 51.0943C4.45288 50.9605 4.29246 50.8497 4.08933 50.762C3.88852 50.6742 3.66116 50.5969 3.40725 50.53L2.56936 50.3015C2.00153 50.1468 1.55142 49.9195 1.21904 49.6194C0.88896 49.3193 0.723921 48.9223 0.723921 48.4283C0.723921 48.0198 0.834717 47.6632 1.05631 47.3585C1.2779 47.0538 1.57797 46.8172 1.95652 46.6487C2.33507 46.4779 2.7621 46.3925 3.23759 46.3925C3.71771 46.3925 4.14127 46.4767 4.50828 46.6452C4.8776 46.8137 5.16843 47.0457 5.38079 47.3412C5.59315 47.6343 5.70395 47.9713 5.71318 48.3522H4.6814ZM9.48802 48.2621V49.0931H6.5831V48.2621H9.48802ZM7.36213 46.988H8.39737V52.0188C8.39737 52.2196 8.42738 52.3708 8.48739 52.4724C8.54741 52.5716 8.62473 52.6397 8.71937 52.6766C8.81632 52.7113 8.92134 52.7286 9.03445 52.7286C9.11754 52.7286 9.19025 52.7228 9.25257 52.7113C9.3149 52.6997 9.36337 52.6905 9.39799 52.6836L9.58496 53.5388C9.52495 53.5619 9.43954 53.5849 9.32875 53.608C9.21795 53.6334 9.07946 53.6473 8.91326 53.6496C8.64089 53.6542 8.38699 53.6057 8.15154 53.5042C7.9161 53.4026 7.72567 53.2456 7.58026 53.0333C7.43484 52.8209 7.36213 52.5543 7.36213 52.2335V46.988ZM12.1809 53.698C11.8439 53.698 11.5392 53.6357 11.2668 53.5111C10.9944 53.3841 10.7786 53.2006 10.6193 52.9606C10.4624 52.7205 10.3839 52.4262 10.3839 52.0777C10.3839 51.7776 10.4416 51.5306 10.557 51.3367C10.6724 51.1428 10.8282 50.9893 11.0244 50.8762C11.2206 50.7631 11.4399 50.6777 11.6823 50.62C11.9246 50.5623 12.1716 50.5184 12.4232 50.4884C12.7418 50.4515 13.0003 50.4215 13.1988 50.3984C13.3973 50.373 13.5416 50.3326 13.6316 50.2772C13.7216 50.2218 13.7666 50.1318 13.7666 50.0072V49.9829C13.7666 49.6806 13.6812 49.4463 13.5104 49.2801C13.3419 49.1139 13.0903 49.0308 12.7556 49.0308C12.4071 49.0308 12.1324 49.1081 11.9316 49.2628C11.7331 49.4151 11.5957 49.5848 11.5196 49.7717L10.5466 49.5501C10.662 49.227 10.8305 48.9662 11.0521 48.7676C11.276 48.5668 11.5334 48.4214 11.8242 48.3314C12.1151 48.2391 12.4209 48.1929 12.7418 48.1929C12.9541 48.1929 13.1792 48.2183 13.4169 48.2691C13.657 48.3175 13.8809 48.4076 14.0886 48.5391C14.2987 48.6707 14.4706 48.8588 14.6045 49.1035C14.7384 49.3459 14.8053 49.6609 14.8053 50.0487V53.5803H13.7943V52.8532H13.7528C13.6858 52.9871 13.5854 53.1187 13.4515 53.2479C13.3177 53.3772 13.1457 53.4845 12.9357 53.5699C12.7256 53.6553 12.474 53.698 12.1809 53.698ZM12.4059 52.8671C12.6921 52.8671 12.9368 52.8105 13.1399 52.6974C13.3454 52.5843 13.5012 52.4366 13.6074 52.2542C13.7158 52.0696 13.7701 51.8722 13.7701 51.6622V50.9766C13.7332 51.0136 13.6616 51.0482 13.5554 51.0805C13.4515 51.1105 13.3327 51.1371 13.1988 51.1601C13.0649 51.1809 12.9345 51.2005 12.8076 51.219C12.6806 51.2352 12.5744 51.249 12.489 51.2605C12.2882 51.2859 12.1047 51.3286 11.9385 51.3886C11.7746 51.4487 11.643 51.5352 11.5438 51.6483C11.4468 51.7591 11.3984 51.9068 11.3984 52.0915C11.3984 52.3477 11.493 52.5416 11.6823 52.6732C11.8716 52.8024 12.1128 52.8671 12.4059 52.8671ZM16.1842 53.5803V48.2621H17.1848V49.107H17.2402C17.3372 48.8207 17.508 48.5957 17.7527 48.4318C17.9996 48.2656 18.2789 48.1825 18.5906 48.1825C18.6552 48.1825 18.7314 48.1848 18.8191 48.1894C18.9091 48.194 18.9795 48.1998 19.0303 48.2067V49.197C18.9887 49.1854 18.9149 49.1727 18.8087 49.1589C18.7025 49.1427 18.5963 49.1347 18.4901 49.1347C18.2455 49.1347 18.0273 49.1866 17.8358 49.2905C17.6465 49.392 17.4964 49.534 17.3857 49.7163C17.2749 49.8964 17.2195 50.1018 17.2195 50.3326V53.5803H16.1842ZM22.7229 48.2621V49.0931H19.818V48.2621H22.7229ZM20.597 46.988H21.6322V52.0188C21.6322 52.2196 21.6622 52.3708 21.7223 52.4724C21.7823 52.5716 21.8596 52.6397 21.9542 52.6766C22.0512 52.7113 22.1562 52.7286 22.2693 52.7286C22.3524 52.7286 22.4251 52.7228 22.4874 52.7113C22.5498 52.6997 22.5982 52.6905 22.6329 52.6836L22.8198 53.5388C22.7598 53.5619 22.6744 53.5849 22.5636 53.608C22.4528 53.6334 22.3143 53.6473 22.1481 53.6496C21.8758 53.6542 21.6218 53.6057 21.3864 53.5042C21.151 53.4026 20.9605 53.2456 20.8151 53.0333C20.6697 52.8209 20.597 52.5543 20.597 52.2335V46.988ZM32.4209 48.7953H31.3407C31.2991 48.5645 31.2218 48.3614 31.1087 48.186C30.9956 48.0105 30.8571 47.8617 30.6932 47.7393C30.5293 47.617 30.3458 47.5247 30.1427 47.4623C29.9419 47.4 29.7284 47.3689 29.5022 47.3689C29.0936 47.3689 28.7278 47.4716 28.4046 47.677C28.0838 47.8824 27.8299 48.1837 27.6429 48.5807C27.4582 48.9777 27.3659 49.4624 27.3659 50.0349C27.3659 50.6119 27.4582 51.099 27.6429 51.496C27.8299 51.893 28.0849 52.1931 28.4081 52.3962C28.7312 52.5993 29.0948 52.7009 29.4987 52.7009C29.7226 52.7009 29.935 52.6709 30.1358 52.6109C30.3389 52.5485 30.5224 52.4574 30.6863 52.3373C30.8502 52.2173 30.9887 52.0707 31.1018 51.8976C31.2172 51.7222 31.2968 51.5214 31.3407 51.2952L32.4209 51.2986C32.3632 51.6472 32.2513 51.968 32.0851 52.2612C31.9212 52.552 31.71 52.8036 31.4515 53.016C31.1953 53.226 30.9021 53.3887 30.572 53.5042C30.242 53.6196 29.8819 53.6773 29.4918 53.6773C28.8778 53.6773 28.3307 53.5318 27.8506 53.241C27.3705 52.9479 26.992 52.5289 26.715 51.9842C26.4403 51.4394 26.303 50.7897 26.303 50.0349C26.303 49.2778 26.4415 48.628 26.7184 48.0856C26.9954 47.5408 27.374 47.123 27.8541 46.8322C28.3342 46.539 28.8801 46.3925 29.4918 46.3925C29.868 46.3925 30.2189 46.4467 30.5443 46.5552C30.8721 46.6614 31.1664 46.8183 31.4272 47.0261C31.6881 47.2315 31.9039 47.4831 32.0747 47.7809C32.2455 48.0763 32.3609 48.4145 32.4209 48.7953ZM34.2915 55.5746C34.1368 55.5746 33.996 55.5619 33.8691 55.5366C33.7421 55.5135 33.6475 55.4881 33.5852 55.4604L33.8345 54.6121C34.0237 54.6629 34.1922 54.6848 34.34 54.6779C34.4877 54.671 34.6181 54.6156 34.7312 54.5117C34.8466 54.4078 34.9482 54.2382 35.0359 54.0027L35.164 53.6496L33.2182 48.2621H34.3261L35.673 52.3893H35.7284L37.0752 48.2621H38.1866L35.995 54.2901C35.8934 54.5671 35.7641 54.8014 35.6072 54.993C35.4502 55.1869 35.2633 55.3323 35.0463 55.4292C34.8293 55.5262 34.5777 55.5746 34.2915 55.5746ZM41.2188 53.6877C40.7041 53.6877 40.2609 53.5711 39.8892 53.338C39.5199 53.1025 39.236 52.7782 39.0375 52.365C38.839 51.9519 38.7397 51.4787 38.7397 50.9455C38.7397 50.4053 38.8413 49.9287 39.0444 49.5155C39.2476 49.1 39.5338 48.7757 39.9031 48.5426C40.2724 48.3095 40.7075 48.1929 41.2084 48.1929C41.6123 48.1929 41.9724 48.2679 42.2887 48.4179C42.6049 48.5657 42.86 48.7734 43.0538 49.0412C43.25 49.3089 43.3666 49.6217 43.4035 49.9795H42.396C42.3406 49.7302 42.2136 49.5155 42.0151 49.3355C41.8189 49.1554 41.5558 49.0654 41.2257 49.0654C40.9372 49.0654 40.6844 49.1416 40.4675 49.2939C40.2528 49.444 40.0854 49.6586 39.9654 49.9379C39.8454 50.2149 39.7854 50.5427 39.7854 50.9212C39.7854 51.309 39.8442 51.6437 39.962 51.9253C40.0797 52.2069 40.2459 52.425 40.4605 52.5797C40.6775 52.7344 40.9326 52.8117 41.2257 52.8117C41.4219 52.8117 41.5997 52.7759 41.7589 52.7043C41.9205 52.6305 42.0555 52.5255 42.164 52.3893C42.2748 52.2531 42.3521 52.0892 42.396 51.8976H43.4035C43.3666 52.2415 43.2547 52.5485 43.0677 52.8186C42.8807 53.0887 42.6303 53.301 42.3164 53.4557C42.0047 53.6103 41.6389 53.6877 41.2188 53.6877ZM45.5459 46.4894V53.5803H44.5106V46.4894H45.5459ZM49.2307 53.6877C48.7067 53.6877 48.2555 53.5757 47.8769 53.3518C47.5007 53.1256 47.2098 52.8082 47.0044 52.3997C46.8013 51.9888 46.6997 51.5075 46.6997 50.9559C46.6997 50.4111 46.8013 49.931 47.0044 49.5155C47.2098 49.1 47.496 48.7757 47.8631 48.5426C48.2324 48.3095 48.664 48.1929 49.158 48.1929C49.4581 48.1929 49.7489 48.2425 50.0305 48.3418C50.3121 48.441 50.5649 48.5968 50.7888 48.8092C51.0127 49.0216 51.1892 49.2974 51.3185 49.6367C51.4478 49.9737 51.5124 50.3834 51.5124 50.8658V51.2328H47.2848V50.4573H50.4979C50.4979 50.1849 50.4425 49.9437 50.3317 49.7336C50.2209 49.5213 50.0651 49.3539 49.8643 49.2316C49.6658 49.1093 49.4327 49.0481 49.1649 49.0481C48.8741 49.0481 48.6202 49.1197 48.4032 49.2628C48.1885 49.4036 48.0223 49.5882 47.9046 49.8167C47.7892 50.0429 47.7315 50.2888 47.7315 50.5542V51.1601C47.7315 51.5156 47.7938 51.818 47.9185 52.0673C48.0454 52.3166 48.222 52.507 48.4482 52.6386C48.6744 52.7678 48.9387 52.8325 49.2411 52.8325C49.4373 52.8325 49.6162 52.8048 49.7777 52.7494C49.9393 52.6917 50.079 52.6062 50.1967 52.4931C50.3144 52.38 50.4044 52.2404 50.4668 52.0742L51.4466 52.2508C51.3681 52.5393 51.2273 52.7921 51.0242 53.009C50.8234 53.2237 50.5706 53.391 50.2659 53.5111C49.9636 53.6288 49.6185 53.6877 49.2307 53.6877Z" fill="black"/>
</svg>
