<svg width="44" height="56" viewBox="0 0 44 56" fill="none" xmlns="http://www.w3.org/2000/svg">
<rect x="4.5" y="0.200806" width="36" height="37.8585" rx="12" fill="#FEF7E7"/>
<path d="M12.3496 19.8089C12.3496 19.8089 10.0006 17.5991 10.4806 14.7192C10.9606 11.8392 16.7204 15.1991 17.2004 17.5991C17.2004 17.5991 18.6404 15.1991 21.0403 14.7192C21.0403 14.7192 20.5603 12.3192 21.0403 10.8793C21.0403 10.8793 26.3202 8.9593 28.2401 13.7592C28.2401 13.7592 33.52 14.7192 34 19.039L32.56 19.999L33.82 21.079C33.82 21.079 33.7621 24.2881 28.3612 25.7435C28.3612 25.7435 27.2802 29.1188 23.4403 28.1588L23.9202 25.7589C23.9202 25.7589 21.0403 26.2389 17.2004 21.919C17.2004 21.919 15.7605 26.2389 10.0006 25.2789C10.0006 25.2789 9.89864 21.5387 12.3496 19.8089Z" stroke="#FF9C0B" stroke-width="1.99957" stroke-miterlimit="10" stroke-linecap="round" stroke-linejoin="round"/>
<path d="M23.7907 16.8389C23.7907 16.8389 21.0327 18.6776 23.331 21.8952" stroke="#FF9C0B" stroke-width="1.99957" stroke-miterlimit="10" stroke-linecap="round" stroke-linejoin="round"/>
<path d="M5.06604 48.3522C5.02911 48.0244 4.87676 47.7705 4.60901 47.5904C4.34125 47.4081 4.00425 47.3169 3.598 47.3169C3.30716 47.3169 3.05556 47.3631 2.84321 47.4554C2.63085 47.5454 2.46581 47.6701 2.34809 47.8293C2.23268 47.9863 2.17497 48.1652 2.17497 48.366C2.17497 48.5345 2.21421 48.6799 2.29269 48.8023C2.37348 48.9246 2.4785 49.0273 2.60777 49.1104C2.73934 49.1912 2.88014 49.2593 3.03017 49.3147C3.18021 49.3678 3.32447 49.4116 3.46297 49.4463L4.15544 49.6263C4.38165 49.6817 4.61363 49.7567 4.85137 49.8514C5.08912 49.946 5.30956 50.0706 5.51268 50.2253C5.71581 50.3799 5.87969 50.5715 6.00434 50.8C6.13129 51.0286 6.19477 51.3021 6.19477 51.6206C6.19477 52.0223 6.0909 52.3789 5.88316 52.6905C5.67772 53.0021 5.37881 53.2479 4.98641 53.428C4.59631 53.608 4.12428 53.698 3.5703 53.698C3.03941 53.698 2.58007 53.6138 2.19228 53.4453C1.8045 53.2768 1.50097 53.0379 1.28168 52.7286C1.0624 52.417 0.941218 52.0477 0.918135 51.6206H1.99147C2.01224 51.8768 2.09534 52.0904 2.24076 52.2612C2.38848 52.4297 2.5766 52.5555 2.80512 52.6386C3.03594 52.7193 3.2887 52.7597 3.56338 52.7597C3.86576 52.7597 4.13467 52.7124 4.37011 52.6178C4.60785 52.5208 4.79482 52.387 4.93101 52.2162C5.06719 52.043 5.13529 51.8411 5.13529 51.6102C5.13529 51.4002 5.07527 51.2282 4.95524 51.0943C4.83752 50.9605 4.6771 50.8497 4.47398 50.762C4.27316 50.6742 4.0458 50.5969 3.79189 50.53L2.954 50.3015C2.38618 50.1468 1.93607 49.9195 1.60368 49.6194C1.2736 49.3193 1.10856 48.9223 1.10856 48.4283C1.10856 48.0198 1.21936 47.6632 1.44095 47.3585C1.66254 47.0538 1.96261 46.8172 2.34116 46.6487C2.71972 46.4779 3.14674 46.3925 3.62224 46.3925C4.10235 46.3925 4.52591 46.4767 4.89292 46.6452C5.26224 46.8137 5.55308 47.0457 5.76544 47.3412C5.97779 47.6343 6.08859 47.9713 6.09782 48.3522H5.06604ZM8.93782 53.698C8.60082 53.698 8.29613 53.6357 8.02376 53.5111C7.75139 53.3841 7.53557 53.2006 7.3763 52.9606C7.21934 52.7205 7.14086 52.4262 7.14086 52.0777C7.14086 51.7776 7.19856 51.5306 7.31398 51.3367C7.42939 51.1428 7.58519 50.9893 7.78139 50.8762C7.97759 50.7631 8.19688 50.6777 8.43924 50.62C8.68161 50.5623 8.92859 50.5184 9.18019 50.4884C9.49872 50.4515 9.75725 50.4215 9.95576 50.3984C10.1543 50.373 10.2985 50.3326 10.3885 50.2772C10.4786 50.2218 10.5236 50.1318 10.5236 50.0072V49.9829C10.5236 49.6806 10.4382 49.4463 10.2674 49.2801C10.0989 49.1139 9.84727 49.0308 9.51257 49.0308C9.16403 49.0308 8.88935 49.1081 8.68853 49.2628C8.49002 49.4151 8.35268 49.5848 8.27651 49.7717L7.30359 49.5501C7.419 49.227 7.5875 48.9662 7.80909 48.7676C8.03299 48.5668 8.29036 48.4214 8.5812 48.3314C8.87204 48.2391 9.17788 48.1929 9.49872 48.1929C9.71108 48.1929 9.93614 48.2183 10.1739 48.2691C10.4139 48.3175 10.6378 48.4076 10.8456 48.5391C11.0556 48.6707 11.2276 48.8588 11.3615 49.1035C11.4954 49.3459 11.5623 49.6609 11.5623 50.0487V53.5803H10.5513V52.8532H10.5097C10.4428 52.9871 10.3424 53.1187 10.2085 53.2479C10.0746 53.3772 9.90267 53.4845 9.69262 53.5699C9.48257 53.6553 9.23097 53.698 8.93782 53.698ZM9.16288 52.8671C9.4491 52.8671 9.69377 52.8105 9.8969 52.6974C10.1023 52.5843 10.2581 52.4366 10.3643 52.2542C10.4728 52.0696 10.527 51.8722 10.527 51.6622V50.9766C10.4901 51.0136 10.4186 51.0482 10.3124 51.0805C10.2085 51.1105 10.0896 51.1371 9.95576 51.1601C9.82188 51.1809 9.69146 51.2005 9.56451 51.219C9.43756 51.2352 9.33138 51.249 9.24597 51.2605C9.04515 51.2859 8.86165 51.3286 8.69546 51.3886C8.53157 51.4487 8.4 51.5352 8.30075 51.6483C8.2038 51.7591 8.15533 51.9068 8.15533 52.0915C8.15533 52.3477 8.24997 52.5416 8.43924 52.6732C8.62852 52.8024 8.86973 52.8671 9.16288 52.8671ZM12.9412 53.5803V48.2621H13.9349V49.1277H14.0007C14.1115 48.8346 14.2926 48.6061 14.5442 48.4422C14.7958 48.276 15.0971 48.1929 15.4479 48.1929C15.8034 48.1929 16.1012 48.276 16.3412 48.4422C16.5836 48.6084 16.7625 48.8369 16.8779 49.1277H16.9333C17.0602 48.8438 17.2622 48.6176 17.5392 48.4491C17.8162 48.2783 18.1463 48.1929 18.5294 48.1929C19.0118 48.1929 19.4054 48.3441 19.7101 48.6465C20.0171 48.9488 20.1706 49.4047 20.1706 50.0141V53.5803H19.1353V50.111C19.1353 49.751 19.0372 49.4901 18.841 49.3285C18.6448 49.167 18.4105 49.0862 18.1382 49.0862C17.8012 49.0862 17.5392 49.1901 17.3522 49.3978C17.1653 49.6032 17.0718 49.8675 17.0718 50.1907V53.5803H16.04V50.0453C16.04 49.7567 15.95 49.5247 15.7699 49.3493C15.5899 49.1739 15.3556 49.0862 15.0671 49.0862C14.8709 49.0862 14.6897 49.1381 14.5235 49.242C14.3596 49.3436 14.2269 49.4855 14.1253 49.6679C14.026 49.8502 13.9764 50.0614 13.9764 50.3015V53.5803H12.9412ZM21.5581 55.5746V48.2621H22.5691V49.1243H22.6557C22.7157 49.0135 22.8023 48.8854 22.9154 48.7399C23.0285 48.5945 23.1854 48.4676 23.3862 48.3591C23.5871 48.2483 23.8525 48.1929 24.1826 48.1929C24.6119 48.1929 24.9951 48.3014 25.3321 48.5184C25.6691 48.7353 25.9334 49.0481 26.125 49.4567C26.3189 49.8652 26.4158 50.3569 26.4158 50.9316C26.4158 51.5064 26.32 51.9992 26.1284 52.41C25.9368 52.8186 25.6737 53.1337 25.339 53.3553C25.0043 53.5746 24.6223 53.6842 24.193 53.6842C23.8698 53.6842 23.6055 53.6299 23.4001 53.5215C23.197 53.413 23.0377 53.286 22.9223 53.1406C22.8069 52.9952 22.718 52.8659 22.6557 52.7528H22.5934V55.5746H21.5581ZM22.5726 50.9212C22.5726 51.2952 22.6268 51.6229 22.7353 51.9045C22.8438 52.1861 23.0008 52.4066 23.2062 52.5659C23.4116 52.7228 23.6632 52.8013 23.961 52.8013C24.2703 52.8013 24.5288 52.7193 24.7366 52.5555C24.9443 52.3893 25.1013 52.1642 25.2074 51.8803C25.3159 51.5964 25.3702 51.2767 25.3702 50.9212C25.3702 50.5704 25.3171 50.2553 25.2109 49.976C25.107 49.6967 24.9501 49.4763 24.74 49.3147C24.5323 49.1531 24.2726 49.0723 23.961 49.0723C23.6609 49.0723 23.407 49.1497 23.1993 49.3043C22.9938 49.459 22.838 49.6748 22.7319 49.9518C22.6257 50.2288 22.5726 50.5519 22.5726 50.9212ZM28.6109 46.4894V53.5803H27.5757V46.4894H28.6109ZM30.0037 53.5803V48.2621H31.0389V53.5803H30.0037ZM30.5265 47.4416C30.3464 47.4416 30.1918 47.3815 30.0625 47.2615C29.9356 47.1392 29.8721 46.9938 29.8721 46.8253C29.8721 46.6545 29.9356 46.509 30.0625 46.389C30.1918 46.2667 30.3464 46.2055 30.5265 46.2055C30.7065 46.2055 30.86 46.2667 30.987 46.389C31.1162 46.509 31.1809 46.6545 31.1809 46.8253C31.1809 46.9938 31.1162 47.1392 30.987 47.2615C30.86 47.3815 30.7065 47.4416 30.5265 47.4416ZM33.4669 50.4227V53.5803H32.4317V48.2621H33.4253V49.1277H33.4911C33.6135 48.8461 33.8051 48.6199 34.0659 48.4491C34.329 48.2783 34.6603 48.1929 35.0596 48.1929C35.422 48.1929 35.7394 48.2691 36.0117 48.4214C36.2841 48.5714 36.4953 48.7953 36.6453 49.0931C36.7954 49.3909 36.8704 49.759 36.8704 50.1976V53.5803H35.8351V50.3222C35.8351 49.9368 35.7347 49.6355 35.5339 49.4186C35.3331 49.1993 35.0573 49.0896 34.7064 49.0896C34.4664 49.0896 34.2529 49.1416 34.0659 49.2455C33.8812 49.3493 33.7347 49.5017 33.6262 49.7025C33.52 49.901 33.4669 50.141 33.4669 50.4227ZM40.4886 55.6854C40.0662 55.6854 39.7026 55.63 39.3979 55.5192C39.0955 55.4084 38.8486 55.2619 38.657 55.0795C38.4654 54.8972 38.3223 54.6975 38.2276 54.4805L39.1175 54.1135C39.1798 54.2151 39.2629 54.3224 39.3668 54.4355C39.4729 54.5509 39.616 54.649 39.7961 54.7298C39.9784 54.8106 40.2127 54.851 40.4989 54.851C40.8913 54.851 41.2157 54.7552 41.4719 54.5636C41.7281 54.3744 41.8562 54.072 41.8562 53.6565V52.6109H41.7904C41.7281 52.724 41.6381 52.8498 41.5203 52.9883C41.4049 53.1268 41.2457 53.2468 41.0425 53.3483C40.8394 53.4499 40.5751 53.5007 40.2497 53.5007C39.8296 53.5007 39.451 53.4026 39.114 53.2064C38.7793 53.0079 38.5139 52.7159 38.3177 52.3304C38.1238 51.9426 38.0268 51.466 38.0268 50.9005C38.0268 50.3349 38.1226 49.8502 38.3142 49.4463C38.5081 49.0423 38.7735 48.733 39.1105 48.5184C39.4475 48.3014 39.8296 48.1929 40.2566 48.1929C40.5867 48.1929 40.8533 48.2483 41.0564 48.3591C41.2595 48.4676 41.4176 48.5945 41.5307 48.7399C41.6461 48.8854 41.735 49.0135 41.7973 49.1243H41.8735V48.2621H42.888V53.698C42.888 54.1551 42.7818 54.5302 42.5694 54.8233C42.3571 55.1165 42.0697 55.3334 41.7073 55.4742C41.3472 55.615 40.941 55.6854 40.4886 55.6854ZM40.4782 52.642C40.7759 52.642 41.0275 52.5728 41.233 52.4343C41.4407 52.2935 41.5977 52.0927 41.7038 51.8318C41.8123 51.5687 41.8666 51.2536 41.8666 50.8866C41.8666 50.5288 41.8135 50.2138 41.7073 49.9414C41.6011 49.669 41.4453 49.4567 41.2399 49.3043C41.0345 49.1497 40.7806 49.0723 40.4782 49.0723C40.1666 49.0723 39.9069 49.1531 39.6991 49.3147C39.4914 49.474 39.3344 49.6909 39.2283 49.9656C39.1244 50.2403 39.0725 50.5473 39.0725 50.8866C39.0725 51.2352 39.1255 51.541 39.2317 51.8041C39.3379 52.0673 39.4949 52.2727 39.7026 52.4204C39.9127 52.5682 40.1712 52.642 40.4782 52.642Z" fill="black"/>
</svg>
