<svg width="78" height="56" viewBox="0 0 78 56" fill="none" xmlns="http://www.w3.org/2000/svg">
<rect x="21.5" y="0.200806" width="36" height="37.8585" rx="12" fill="#FEF7E7"/>
<path d="M48.4918 26.9224C48.7662 27.0074 49.0245 27.1684 49.212 27.4519L50.1014 23.8498C50.1014 23.8498 49.5648 22.0699 47.693 22.0183" stroke="#FF9C0B" stroke-width="1.69206" stroke-miterlimit="10" stroke-linecap="round" stroke-linejoin="round"/>
<path d="M42.9413 31.1551L42.3371 31.4562C42.075 31.5868 41.7715 31.3416 41.8721 31.0747C42.2871 29.9739 43.7762 29.3403 43.7762 29.3403C41.6203 27.007 41.7406 23.9817 41.7406 23.9817C41.6173 19.5129 44.4539 18.4254 44.4539 18.4254C44.4539 18.4254 48.051 19.592 47.9277 24.0608C47.9277 24.0608 47.9446 26.493 45.2108 29.3403C45.2108 29.3403 46.6934 29.9806 47.0544 31.0921C47.1409 31.3584 46.8435 31.5921 46.586 31.4639L45.9664 31.1552C45.0179 30.6825 43.8899 30.6825 42.9413 31.1551Z" stroke="#FF9C0B" stroke-width="1.69206" stroke-miterlimit="10" stroke-linecap="round" stroke-linejoin="round"/>
<path d="M40.5239 25.0903C40.333 25.1004 40.1162 25.1202 39.8701 25.1524V23.8729C39.8701 23.8729 40.1678 22.6074 41.8432 22.3207" stroke="#FF9C0B" stroke-width="1.69206" stroke-miterlimit="10" stroke-linecap="round" stroke-linejoin="round"/>
<path d="M44.4539 18.4254L44.4938 9.41799C44.4938 9.41799 43.1651 6.25558 38.5661 8.05222C34.3105 9.71466 32.0405 18.0242 30.9647 22.5609" stroke="#FF9C0B" stroke-width="1.69206" stroke-miterlimit="10" stroke-linecap="round" stroke-linejoin="round"/>
<path d="M31.5904 24.2076L30.0539 30.4704C28.782 30.442 28 29.9665 28 29.9665L29.5365 23.7037C29.5365 23.7037 30.473 24.2076 31.5904 24.2076Z" stroke="#FF9C0B" stroke-width="1.69206" stroke-miterlimit="10" stroke-linecap="round" stroke-linejoin="round"/>
<path d="M28.3235 28.6448C28.3235 28.6448 29.26 29.1487 30.3773 29.1487" stroke="#FF9C0B" stroke-width="1.69206" stroke-miterlimit="10" stroke-linecap="round" stroke-linejoin="round"/>
<path d="M0.802834 53.5803V46.4894H1.8727V49.5709H5.40777V46.4894H6.4811V53.5803H5.40777V50.4884H1.8727V53.5803H0.802834ZM9.50374 53.698C9.16674 53.698 8.86205 53.6357 8.58968 53.5111C8.31731 53.3841 8.10148 53.2006 7.94222 52.9606C7.78526 52.7205 7.70678 52.4262 7.70678 52.0777C7.70678 51.7776 7.76448 51.5306 7.87989 51.3367C7.99531 51.1428 8.15111 50.9893 8.34731 50.8762C8.54351 50.7631 8.7628 50.6777 9.00516 50.62C9.24753 50.5623 9.49451 50.5184 9.7461 50.4884C10.0646 50.4515 10.3232 50.4215 10.5217 50.3984C10.7202 50.373 10.8644 50.3326 10.9545 50.2772C11.0445 50.2218 11.0895 50.1318 11.0895 50.0072V49.9829C11.0895 49.6806 11.0041 49.4463 10.8333 49.2801C10.6648 49.1139 10.4132 49.0308 10.0785 49.0308C9.72995 49.0308 9.45527 49.1081 9.25445 49.2628C9.05594 49.4151 8.9186 49.5848 8.84243 49.7717L7.86951 49.5501C7.98492 49.227 8.15342 48.9662 8.37501 48.7676C8.59891 48.5668 8.85628 48.4214 9.14712 48.3314C9.43796 48.2391 9.7438 48.1929 10.0646 48.1929C10.277 48.1929 10.5021 48.2183 10.7398 48.2691C10.9799 48.3175 11.2038 48.4076 11.4115 48.5391C11.6215 48.6707 11.7935 48.8588 11.9274 49.1035C12.0613 49.3459 12.1282 49.6609 12.1282 50.0487V53.5803H11.1172V52.8532H11.0757C11.0087 52.9871 10.9083 53.1187 10.7744 53.2479C10.6405 53.3772 10.4686 53.4845 10.2585 53.5699C10.0485 53.6553 9.79689 53.698 9.50374 53.698ZM9.72879 52.8671C10.015 52.8671 10.2597 52.8105 10.4628 52.6974C10.6682 52.5843 10.8241 52.4366 10.9302 52.2542C11.0387 52.0696 11.093 51.8722 11.093 51.6622V50.9766C11.056 51.0136 10.9845 51.0482 10.8783 51.0805C10.7744 51.1105 10.6556 51.1371 10.5217 51.1601C10.3878 51.1809 10.2574 51.2005 10.1304 51.219C10.0035 51.2352 9.89729 51.249 9.81189 51.2605C9.61107 51.2859 9.42757 51.3286 9.26137 51.3886C9.09749 51.4487 8.96592 51.5352 8.86667 51.6483C8.76972 51.7591 8.72125 51.9068 8.72125 52.0915C8.72125 52.3477 8.81588 52.5416 9.00516 52.6732C9.19444 52.8024 9.43565 52.8671 9.72879 52.8671ZM13.5071 53.5803V48.2621H14.5077V49.107H14.5631C14.6601 48.8207 14.8309 48.5957 15.0755 48.4318C15.3225 48.2656 15.6018 48.1825 15.9134 48.1825C15.9781 48.1825 16.0542 48.1848 16.1419 48.1894C16.232 48.194 16.3024 48.1998 16.3531 48.2067V49.197C16.3116 49.1854 16.2377 49.1727 16.1316 49.1589C16.0254 49.1427 15.9192 49.1347 15.813 49.1347C15.5683 49.1347 15.3502 49.1866 15.1586 49.2905C14.9694 49.392 14.8193 49.534 14.7085 49.7163C14.5977 49.8964 14.5423 50.1018 14.5423 50.3326V53.5803H13.5071ZM21.9604 48.2621L20.0319 53.5803H18.924L16.992 48.2621H18.1034L19.4502 52.3546H19.5056L20.849 48.2621H21.9604ZM25.0445 53.6877C24.5206 53.6877 24.0693 53.5757 23.6908 53.3518C23.3145 53.1256 23.0237 52.8082 22.8182 52.3997C22.6151 51.9888 22.5135 51.5075 22.5135 50.9559C22.5135 50.4111 22.6151 49.931 22.8182 49.5155C23.0237 49.1 23.3099 48.7757 23.6769 48.5426C24.0462 48.3095 24.4779 48.1929 24.9718 48.1929C25.2719 48.1929 25.5627 48.2425 25.8443 48.3418C26.1259 48.441 26.3787 48.5968 26.6026 48.8092C26.8265 49.0216 27.0031 49.2974 27.1323 49.6367C27.2616 49.9737 27.3262 50.3834 27.3262 50.8658V51.2328H23.0987V50.4573H26.3118C26.3118 50.1849 26.2564 49.9437 26.1456 49.7336C26.0348 49.5213 25.879 49.3539 25.6781 49.2316C25.4796 49.1093 25.2465 49.0481 24.9787 49.0481C24.6879 49.0481 24.434 49.1197 24.217 49.2628C24.0024 49.4036 23.8362 49.5882 23.7185 49.8167C23.603 50.0429 23.5453 50.2888 23.5453 50.5542V51.1601C23.5453 51.5156 23.6077 51.818 23.7323 52.0673C23.8593 52.3166 24.0358 52.507 24.262 52.6386C24.4882 52.7678 24.7525 52.8325 25.0549 52.8325C25.2511 52.8325 25.43 52.8048 25.5916 52.7494C25.7532 52.6917 25.8928 52.6062 26.0105 52.4931C26.1283 52.38 26.2183 52.2404 26.2806 52.0742L27.2604 52.2508C27.182 52.5393 27.0412 52.7921 26.838 53.009C26.6372 53.2237 26.3845 53.391 26.0798 53.5111C25.7774 53.6288 25.4323 53.6877 25.0445 53.6877ZM32.46 49.5605L31.5217 49.7267C31.4825 49.6067 31.4202 49.4924 31.3348 49.3839C31.2517 49.2755 31.1386 49.1866 30.9955 49.1173C30.8524 49.0481 30.6735 49.0135 30.4588 49.0135C30.1656 49.0135 29.921 49.0793 29.7248 49.2108C29.5286 49.3401 29.4305 49.5074 29.4305 49.7129C29.4305 49.8906 29.4963 50.0337 29.6278 50.1422C29.7594 50.2507 29.9718 50.3396 30.2649 50.4088L31.1097 50.6027C31.5991 50.7158 31.9638 50.8901 32.2038 51.1255C32.4439 51.361 32.5639 51.6668 32.5639 52.043C32.5639 52.3616 32.4716 52.6455 32.2869 52.8948C32.1046 53.1418 31.8495 53.3356 31.5217 53.4765C31.1963 53.6173 30.8189 53.6877 30.3895 53.6877C29.794 53.6877 29.3081 53.5607 28.9319 53.3068C28.5557 53.0506 28.3248 52.687 28.2394 52.2162L29.24 52.0638C29.3024 52.3246 29.4305 52.522 29.6244 52.6559C29.8183 52.7874 30.071 52.8532 30.3826 52.8532C30.7219 52.8532 30.9932 52.7828 31.1963 52.642C31.3994 52.4989 31.501 52.3246 31.501 52.1192C31.501 51.953 31.4386 51.8134 31.314 51.7003C31.1917 51.5872 31.0035 51.5018 30.7496 51.444L29.8494 51.2467C29.3531 51.1336 28.9861 50.9535 28.7484 50.7066C28.513 50.4596 28.3952 50.1468 28.3952 49.7683C28.3952 49.4543 28.4829 49.1797 28.6584 48.9442C28.8338 48.7088 29.0762 48.5253 29.3855 48.3937C29.6948 48.2598 30.0491 48.1929 30.4484 48.1929C31.0232 48.1929 31.4756 48.3175 31.8057 48.5668C32.1357 48.8138 32.3539 49.145 32.46 49.5605ZM36.1847 48.2621V49.0931H33.2798V48.2621H36.1847ZM34.0588 46.988H35.094V52.0188C35.094 52.2196 35.124 52.3708 35.184 52.4724C35.2441 52.5716 35.3214 52.6397 35.416 52.6766C35.513 52.7113 35.618 52.7286 35.7311 52.7286C35.8142 52.7286 35.8869 52.7228 35.9492 52.7113C36.0116 52.6997 36.06 52.6905 36.0946 52.6836L36.2816 53.5388C36.2216 53.5619 36.1362 53.5849 36.0254 53.608C35.9146 53.6334 35.7761 53.6473 35.6099 53.6496C35.3375 53.6542 35.0836 53.6057 34.8482 53.5042C34.6128 53.4026 34.4223 53.2456 34.2769 53.0333C34.1315 52.8209 34.0588 52.5543 34.0588 52.2335V46.988ZM41.9737 53.6807C41.4982 53.6807 41.0885 53.5942 40.7446 53.4211C40.403 53.2479 40.1398 53.0125 39.9552 52.7147C39.7705 52.4147 39.6782 52.0754 39.6782 51.6968C39.6782 51.4083 39.7382 51.1521 39.8582 50.9282C39.9783 50.7019 40.1456 50.4931 40.3603 50.3015C40.5749 50.1099 40.8231 49.9171 41.1047 49.7233L42.2473 48.9165C42.4412 48.7896 42.5923 48.6557 42.7008 48.5149C42.8093 48.3718 42.8636 48.1952 42.8636 47.9852C42.8636 47.819 42.792 47.6597 42.6489 47.5073C42.5058 47.355 42.3142 47.2788 42.0741 47.2788C41.9079 47.2788 41.7614 47.3192 41.6344 47.4C41.5098 47.4808 41.4117 47.5847 41.3401 47.7116C41.2709 47.8363 41.2363 47.9678 41.2363 48.1063C41.2363 48.2679 41.2801 48.4306 41.3678 48.5945C41.4578 48.7584 41.5733 48.9281 41.7141 49.1035C41.8549 49.2766 42.0026 49.4567 42.1572 49.6436L45.4499 53.5803H44.2797L41.5548 50.3776C41.3263 50.1076 41.1139 49.8537 40.9177 49.6159C40.7215 49.3759 40.5622 49.1335 40.4399 48.8888C40.3199 48.6418 40.2599 48.3752 40.2599 48.089C40.2599 47.7636 40.3337 47.475 40.4815 47.2234C40.6315 46.9695 40.8404 46.771 41.1081 46.6279C41.3759 46.4848 41.6898 46.4132 42.0499 46.4132C42.4146 46.4132 42.7274 46.4848 42.9882 46.6279C43.2513 46.7687 43.4533 46.9568 43.5941 47.1923C43.7372 47.4254 43.8088 47.6805 43.8088 47.9575C43.8088 48.2945 43.7245 48.5922 43.556 48.8507C43.3898 49.107 43.1602 49.3424 42.867 49.5571L41.444 50.6062C41.167 50.8093 40.9743 51.0101 40.8658 51.2086C40.7596 51.4048 40.7065 51.5583 40.7065 51.6691C40.7065 51.8722 40.7584 52.0603 40.8623 52.2335C40.9685 52.4066 41.1162 52.5451 41.3055 52.6489C41.4971 52.7528 41.721 52.8048 41.9772 52.8048C42.2403 52.8048 42.4965 52.7482 42.7458 52.6351C42.9974 52.5197 43.2248 52.3546 43.4279 52.14C43.6334 51.9253 43.7961 51.6679 43.9161 51.3679C44.0361 51.0678 44.0962 50.732 44.0962 50.3603H45.031C45.031 50.8174 44.9791 51.204 44.8752 51.5202C44.7713 51.8341 44.6455 52.0904 44.4978 52.2889C44.3524 52.4851 44.215 52.6386 44.0858 52.7494C44.0442 52.7863 44.005 52.8232 43.9681 52.8602C43.9311 52.8971 43.8919 52.934 43.8503 52.9709C43.6103 53.2133 43.3194 53.3922 42.9778 53.5076C42.6385 53.623 42.3038 53.6807 41.9737 53.6807ZM48.9244 53.5803V46.4894H51.4519C52.0036 46.4894 52.4606 46.5898 52.823 46.7906C53.1854 46.9915 53.4566 47.2661 53.6367 47.6147C53.8167 47.9609 53.9067 48.351 53.9067 48.785C53.9067 49.2212 53.8156 49.6136 53.6332 49.9622C53.4532 50.3084 53.1808 50.5831 52.8161 50.7862C52.4537 50.987 51.9978 51.0874 51.4485 51.0874H49.7104V50.1803H51.3515C51.7001 50.1803 51.9828 50.1203 52.1998 50.0002C52.4168 49.8779 52.576 49.7117 52.6776 49.5017C52.7792 49.2916 52.83 49.0527 52.83 48.785C52.83 48.5172 52.7792 48.2795 52.6776 48.0717C52.576 47.864 52.4156 47.7012 52.1963 47.5835C51.9794 47.4658 51.6931 47.4069 51.3377 47.4069H49.9943V53.5803H48.9244ZM56.578 53.698C56.241 53.698 55.9363 53.6357 55.6639 53.5111C55.3915 53.3841 55.1757 53.2006 55.0164 52.9606C54.8595 52.7205 54.781 52.4262 54.781 52.0777C54.781 51.7776 54.8387 51.5306 54.9541 51.3367C55.0695 51.1428 55.2253 50.9893 55.4215 50.8762C55.6177 50.7631 55.837 50.6777 56.0794 50.62C56.3217 50.5623 56.5687 50.5184 56.8203 50.4884C57.1389 50.4515 57.3974 50.4215 57.5959 50.3984C57.7944 50.373 57.9387 50.3326 58.0287 50.2772C58.1187 50.2218 58.1637 50.1318 58.1637 50.0072V49.9829C58.1637 49.6806 58.0783 49.4463 57.9075 49.2801C57.739 49.1139 57.4874 49.0308 57.1527 49.0308C56.8042 49.0308 56.5295 49.1081 56.3287 49.2628C56.1302 49.4151 55.9928 49.5848 55.9166 49.7717L54.9437 49.5501C55.0591 49.227 55.2276 48.9662 55.4492 48.7676C55.6731 48.5668 55.9305 48.4214 56.2213 48.3314C56.5122 48.2391 56.818 48.1929 57.1389 48.1929C57.3512 48.1929 57.5763 48.2183 57.814 48.2691C58.0541 48.3175 58.278 48.4076 58.4857 48.5391C58.6958 48.6707 58.8677 48.8588 59.0016 49.1035C59.1355 49.3459 59.2024 49.6609 59.2024 50.0487V53.5803H58.1914V52.8532H58.1499C58.0829 52.9871 57.9825 53.1187 57.8486 53.2479C57.7148 53.3772 57.5428 53.4845 57.3328 53.5699C57.1227 53.6553 56.8711 53.698 56.578 53.698ZM56.803 52.8671C57.0892 52.8671 57.3339 52.8105 57.537 52.6974C57.7425 52.5843 57.8983 52.4366 58.0045 52.2542C58.1129 52.0696 58.1672 51.8722 58.1672 51.6622V50.9766C58.1302 51.0136 58.0587 51.0482 57.9525 51.0805C57.8486 51.1105 57.7298 51.1371 57.5959 51.1601C57.462 51.1809 57.3316 51.2005 57.2046 51.219C57.0777 51.2352 56.9715 51.249 56.8861 51.2605C56.6853 51.2859 56.5018 51.3286 56.3356 51.3886C56.1717 51.4487 56.0401 51.5352 55.9409 51.6483C55.8439 51.7591 55.7955 51.9068 55.7955 52.0915C55.7955 52.3477 55.8901 52.5416 56.0794 52.6732C56.2687 52.8024 56.5099 52.8671 56.803 52.8671ZM60.5813 53.5803V48.2621H61.5819V49.107H61.6373C61.7343 48.8207 61.9051 48.5957 62.1498 48.4318C62.3967 48.2656 62.676 48.1825 62.9876 48.1825C63.0523 48.1825 63.1285 48.1848 63.2162 48.1894C63.3062 48.194 63.3766 48.1998 63.4274 48.2067V49.197C63.3858 49.1854 63.312 49.1727 63.2058 49.1589C63.0996 49.1427 62.9934 49.1347 62.8872 49.1347C62.6426 49.1347 62.4244 49.1866 62.2329 49.2905C62.0436 49.392 61.8935 49.534 61.7827 49.7163C61.672 49.8964 61.6166 50.1018 61.6166 50.3326V53.5803H60.5813ZM67.12 48.2621V49.0931H64.2151V48.2621H67.12ZM64.9941 46.988H66.0293V52.0188C66.0293 52.2196 66.0593 52.3708 66.1194 52.4724C66.1794 52.5716 66.2567 52.6397 66.3513 52.6766C66.4483 52.7113 66.5533 52.7286 66.6664 52.7286C66.7495 52.7286 66.8222 52.7228 66.8845 52.7113C66.9469 52.6997 66.9953 52.6905 67.03 52.6836L67.2169 53.5388C67.1569 53.5619 67.0715 53.5849 66.9607 53.608C66.8499 53.6334 66.7114 53.6473 66.5452 53.6496C66.2728 53.6542 66.0189 53.6057 65.7835 53.5042C65.5481 53.4026 65.3576 53.2456 65.2122 53.0333C65.0668 52.8209 64.9941 52.5543 64.9941 52.2335V46.988ZM68.2651 53.5803V48.2621H69.3004V53.5803H68.2651ZM68.788 47.4416C68.6079 47.4416 68.4533 47.3815 68.324 47.2615C68.1971 47.1392 68.1336 46.9938 68.1336 46.8253C68.1336 46.6545 68.1971 46.509 68.324 46.389C68.4533 46.2667 68.6079 46.2055 68.788 46.2055C68.968 46.2055 69.1215 46.2667 69.2485 46.389C69.3777 46.509 69.4423 46.6545 69.4423 46.8253C69.4423 46.9938 69.3777 47.1392 69.2485 47.2615C69.1215 47.3815 68.968 47.4416 68.788 47.4416ZM72.2408 53.698C71.9038 53.698 71.5991 53.6357 71.3267 53.5111C71.0544 53.3841 70.8385 53.2006 70.6793 52.9606C70.5223 52.7205 70.4438 52.4262 70.4438 52.0777C70.4438 51.7776 70.5015 51.5306 70.617 51.3367C70.7324 51.1428 70.8882 50.9893 71.0844 50.8762C71.2806 50.7631 71.4999 50.6777 71.7422 50.62C71.9846 50.5623 72.2316 50.5184 72.4832 50.4884C72.8017 50.4515 73.0602 50.4215 73.2587 50.3984C73.4572 50.373 73.6015 50.3326 73.6915 50.2772C73.7815 50.2218 73.8266 50.1318 73.8266 50.0072V49.9829C73.8266 49.6806 73.7412 49.4463 73.5703 49.2801C73.4018 49.1139 73.1502 49.0308 72.8156 49.0308C72.467 49.0308 72.1923 49.1081 71.9915 49.2628C71.793 49.4151 71.6557 49.5848 71.5795 49.7717L70.6066 49.5501C70.722 49.227 70.8905 48.9662 71.1121 48.7676C71.336 48.5668 71.5933 48.4214 71.8842 48.3314C72.175 48.2391 72.4809 48.1929 72.8017 48.1929C73.0141 48.1929 73.2391 48.2183 73.4769 48.2691C73.7169 48.3175 73.9408 48.4076 74.1486 48.5391C74.3586 48.6707 74.5306 48.8588 74.6645 49.1035C74.7983 49.3459 74.8653 49.6609 74.8653 50.0487V53.5803H73.8543V52.8532H73.8127C73.7458 52.9871 73.6454 53.1187 73.5115 53.2479C73.3776 53.3772 73.2056 53.4845 72.9956 53.5699C72.7855 53.6553 72.5339 53.698 72.2408 53.698ZM72.4659 52.8671C72.7521 52.8671 72.9967 52.8105 73.1999 52.6974C73.4053 52.5843 73.5611 52.4366 73.6673 52.2542C73.7758 52.0696 73.83 51.8722 73.83 51.6622V50.9766C73.7931 51.0136 73.7215 51.0482 73.6154 51.0805C73.5115 51.1105 73.3926 51.1371 73.2587 51.1601C73.1249 51.1809 72.9944 51.2005 72.8675 51.219C72.7405 51.2352 72.6344 51.249 72.549 51.2605C72.3481 51.2859 72.1646 51.3286 71.9984 51.3886C71.8346 51.4487 71.703 51.5352 71.6037 51.6483C71.5068 51.7591 71.4583 51.9068 71.4583 52.0915C71.4583 52.3477 71.5529 52.5416 71.7422 52.6732C71.9315 52.8024 72.1727 52.8671 72.4659 52.8671ZM77.2794 46.4894V53.5803H76.2442V46.4894H77.2794Z" fill="black"/>
</svg>
