<svg width="56" height="54" viewBox="0 0 56 54" fill="none" xmlns="http://www.w3.org/2000/svg">
<rect x="10.5" y="0.256226" width="36" height="36" rx="12" fill="#FEF7E7"/>
<path d="M32.0001 14L28.0001 18M28.0001 18L24.0001 22M28.0001 18L24.0001 14M28.0001 18L32.0001 22" stroke="#FF9C0B" stroke-width="2.22" stroke-linecap="round" stroke-linejoin="round"/>
<path d="M28 28C33.5228 28 38 23.5228 38 18C38 12.4772 33.5228 8 28 8C22.4772 8 18 12.4772 18 18C18 23.5228 22.4772 28 28 28Z" stroke="#FF9C0B" stroke-width="2.22" stroke-linecap="round" stroke-linejoin="round"/>
<path d="M7.06096 46.7212H5.9807C5.93915 46.4904 5.86183 46.2873 5.74872 46.1119C5.63562 45.9364 5.49713 45.7876 5.33324 45.6652C5.16936 45.5429 4.98585 45.4506 4.78273 45.3882C4.58191 45.3259 4.3684 45.2948 4.14219 45.2948C3.73363 45.2948 3.36778 45.3975 3.04462 45.6029C2.72378 45.8083 2.46987 46.1096 2.2829 46.5066C2.09824 46.9036 2.00591 47.3883 2.00591 47.9608C2.00591 48.5378 2.09824 49.0249 2.2829 49.4219C2.46987 49.8189 2.72493 50.119 3.04808 50.3221C3.37124 50.5252 3.73479 50.6268 4.13873 50.6268C4.36263 50.6268 4.57498 50.5968 4.7758 50.5368C4.97893 50.4744 5.16243 50.3833 5.32632 50.2632C5.4902 50.1432 5.6287 49.9966 5.7418 49.8235C5.85721 49.6481 5.93685 49.4473 5.9807 49.2211L7.06096 49.2245C7.00325 49.5731 6.8913 49.8939 6.72511 50.1871C6.56122 50.4779 6.35002 50.7295 6.0915 50.9419C5.83528 51.1519 5.54214 51.3146 5.21206 51.4301C4.88198 51.5455 4.5219 51.6032 4.1318 51.6032C3.51781 51.6032 2.97076 51.4578 2.49065 51.1669C2.01053 50.8738 1.63198 50.4548 1.35499 49.9101C1.08031 49.3653 0.942971 48.7156 0.942971 47.9608C0.942971 47.2037 1.08147 46.5539 1.35845 46.0115C1.63544 45.4667 2.01399 45.0489 2.49411 44.7581C2.97422 44.4649 3.52012 44.3184 4.1318 44.3184C4.50805 44.3184 4.8589 44.3726 5.18436 44.4811C5.51213 44.5873 5.80643 44.7442 6.06726 44.952C6.32809 45.1574 6.54391 45.409 6.71472 45.7068C6.88553 46.0022 7.00094 46.3404 7.06096 46.7212ZM9.29331 44.4153V51.5062H8.25807V44.4153H9.29331ZM12.9262 51.6136C12.4276 51.6136 11.9925 51.4993 11.6209 51.2708C11.2493 51.0423 10.9607 50.7226 10.7553 50.3117C10.5499 49.9008 10.4471 49.4207 10.4471 48.8714C10.4471 48.3197 10.5499 47.8373 10.7553 47.4241C10.9607 47.0109 11.2493 46.6901 11.6209 46.4616C11.9925 46.2331 12.4276 46.1188 12.9262 46.1188C13.4248 46.1188 13.8599 46.2331 14.2315 46.4616C14.6031 46.6901 14.8917 47.0109 15.0971 47.4241C15.3025 47.8373 15.4052 48.3197 15.4052 48.8714C15.4052 49.4207 15.3025 49.9008 15.0971 50.3117C14.8917 50.7226 14.6031 51.0423 14.2315 51.2708C13.8599 51.4993 13.4248 51.6136 12.9262 51.6136ZM12.9297 50.7445C13.2528 50.7445 13.5206 50.6591 13.7329 50.4883C13.9453 50.3175 14.1022 50.0901 14.2038 49.8062C14.3077 49.5223 14.3596 49.2095 14.3596 48.8679C14.3596 48.5286 14.3077 48.217 14.2038 47.9331C14.1022 47.6469 13.9453 47.4172 13.7329 47.2441C13.5206 47.0709 13.2528 46.9844 12.9297 46.9844C12.6042 46.9844 12.3341 47.0709 12.1195 47.2441C11.9071 47.4172 11.749 47.6469 11.6451 47.9331C11.5436 48.217 11.4928 48.5286 11.4928 48.8679C11.4928 49.2095 11.5436 49.5223 11.6451 49.8062C11.749 50.0901 11.9071 50.3175 12.1195 50.4883C12.3341 50.6591 12.6042 50.7445 12.9297 50.7445ZM20.546 47.4864L19.6077 47.6526C19.5684 47.5326 19.5061 47.4183 19.4207 47.3098C19.3376 47.2014 19.2245 47.1125 19.0814 47.0432C18.9383 46.974 18.7594 46.9394 18.5447 46.9394C18.2516 46.9394 18.0069 47.0052 17.8107 47.1367C17.6145 47.266 17.5164 47.4333 17.5164 47.6388C17.5164 47.8165 17.5822 47.9596 17.7138 48.0681C17.8453 48.1766 18.0577 48.2655 18.3508 48.3347L19.1957 48.5286C19.685 48.6417 20.0497 48.816 20.2898 49.0514C20.5298 49.2869 20.6498 49.5927 20.6498 49.9689C20.6498 50.2875 20.5575 50.5714 20.3729 50.8207C20.1905 51.0677 19.9354 51.2616 19.6077 51.4024C19.2822 51.5432 18.9048 51.6136 18.4755 51.6136C17.88 51.6136 17.3941 51.4866 17.0178 51.2327C16.6416 50.9765 16.4108 50.6129 16.3254 50.1421L17.326 49.9897C17.3883 50.2505 17.5164 50.4479 17.7103 50.5818C17.9042 50.7133 18.1569 50.7791 18.4686 50.7791C18.8079 50.7791 19.0791 50.7087 19.2822 50.5679C19.4853 50.4248 19.5869 50.2505 19.5869 50.0451C19.5869 49.8789 19.5246 49.7393 19.3999 49.6262C19.2776 49.5131 19.0895 49.4277 18.8356 49.37L17.9354 49.1726C17.4391 49.0595 17.0721 48.8795 16.8343 48.6325C16.5989 48.3855 16.4812 48.0727 16.4812 47.6942C16.4812 47.3802 16.5689 47.1056 16.7443 46.8701C16.9197 46.6347 17.1621 46.4512 17.4714 46.3196C17.7807 46.1857 18.135 46.1188 18.5343 46.1188C19.1091 46.1188 19.5615 46.2434 19.8916 46.4927C20.2217 46.7397 20.4398 47.0709 20.546 47.4864ZM24.0802 51.6136C23.5562 51.6136 23.1049 51.5016 22.7264 51.2777C22.3502 51.0515 22.0593 50.7341 21.8539 50.3256C21.6508 49.9147 21.5492 49.4334 21.5492 48.8818C21.5492 48.337 21.6508 47.8569 21.8539 47.4414C22.0593 47.0259 22.3455 46.7016 22.7125 46.4685C23.0819 46.2354 23.5135 46.1188 24.0075 46.1188C24.3075 46.1188 24.5984 46.1684 24.88 46.2677C25.1616 46.3669 25.4143 46.5227 25.6382 46.7351C25.8621 46.9475 26.0387 47.2233 26.168 47.5626C26.2972 47.8996 26.3619 48.3093 26.3619 48.7917V49.1587H22.1343V48.3832H25.3474C25.3474 48.1108 25.292 47.8696 25.1812 47.6595C25.0704 47.4472 24.9146 47.2798 24.7138 47.1575C24.5153 47.0352 24.2821 46.974 24.0144 46.974C23.7236 46.974 23.4696 47.0456 23.2527 47.1887C23.038 47.3295 22.8718 47.5141 22.7541 47.7426C22.6387 47.9688 22.581 48.2147 22.581 48.4801V49.086C22.581 49.4415 22.6433 49.7439 22.7679 49.9932C22.8949 50.2425 23.0715 50.4329 23.2977 50.5645C23.5239 50.6937 23.7882 50.7584 24.0906 50.7584C24.2868 50.7584 24.4657 50.7307 24.6272 50.6753C24.7888 50.6176 24.9285 50.5321 25.0462 50.419C25.1639 50.3059 25.2539 50.1663 25.3162 50.0001L26.2961 50.1767C26.2176 50.4652 26.0768 50.718 25.8737 50.9349C25.6729 51.1496 25.4201 51.317 25.1154 51.437C24.813 51.5547 24.468 51.6136 24.0802 51.6136ZM36.0634 46.7212H34.9831C34.9416 46.4904 34.8643 46.2873 34.7512 46.1119C34.6381 45.9364 34.4996 45.7876 34.3357 45.6652C34.1718 45.5429 33.9883 45.4506 33.7852 45.3882C33.5844 45.3259 33.3708 45.2948 33.1446 45.2948C32.7361 45.2948 32.3702 45.3975 32.0471 45.6029C31.7262 45.8083 31.4723 46.1096 31.2853 46.5066C31.1007 46.9036 31.0084 47.3883 31.0084 47.9608C31.0084 48.5378 31.1007 49.0249 31.2853 49.4219C31.4723 49.8189 31.7274 50.119 32.0505 50.3221C32.3737 50.5252 32.7372 50.6268 33.1412 50.6268C33.3651 50.6268 33.5774 50.5968 33.7782 50.5368C33.9814 50.4744 34.1649 50.3833 34.3288 50.2632C34.4926 50.1432 34.6311 49.9966 34.7442 49.8235C34.8597 49.6481 34.9393 49.4473 34.9831 49.2211L36.0634 49.2245C36.0057 49.5731 35.8937 49.8939 35.7276 50.1871C35.5637 50.4779 35.3525 50.7295 35.0939 50.9419C34.8377 51.1519 34.5446 51.3146 34.2145 51.4301C33.8844 51.5455 33.5243 51.6032 33.1342 51.6032C32.5203 51.6032 31.9732 51.4578 31.4931 51.1669C31.013 50.8738 30.6344 50.4548 30.3574 49.9101C30.0828 49.3653 29.9454 48.7156 29.9454 47.9608C29.9454 47.2037 30.0839 46.5539 30.3609 46.0115C30.6379 45.4667 31.0164 45.0489 31.4965 44.7581C31.9767 44.4649 32.5226 44.3184 33.1342 44.3184C33.5105 44.3184 33.8613 44.3726 34.1868 44.4811C34.5146 44.5873 34.8089 44.7442 35.0697 44.952C35.3305 45.1574 35.5464 45.409 35.7172 45.7068C35.888 46.0022 36.0034 46.3404 36.0634 46.7212ZM37.9339 53.5005C37.7793 53.5005 37.6385 53.4878 37.5115 53.4625C37.3846 53.4394 37.2899 53.414 37.2276 53.3863L37.4769 52.538C37.6662 52.5888 37.8347 52.6107 37.9824 52.6038C38.1301 52.5969 38.2606 52.5415 38.3737 52.4376C38.4891 52.3337 38.5906 52.1641 38.6783 51.9286L38.8065 51.5755L36.8606 46.188H37.9686L39.3154 50.3152H39.3708L40.7177 46.188H41.8291L39.6374 52.216C39.5359 52.493 39.4066 52.7273 39.2496 52.9189C39.0927 53.1128 38.9057 53.2582 38.6887 53.3551C38.4718 53.4521 38.2202 53.5005 37.9339 53.5005ZM44.8613 51.6136C44.3465 51.6136 43.9033 51.497 43.5317 51.2639C43.1624 51.0284 42.8785 50.7041 42.68 50.2909C42.4815 49.8778 42.3822 49.4046 42.3822 48.8714C42.3822 48.3312 42.4838 47.8546 42.6869 47.4414C42.89 47.0259 43.1762 46.7016 43.5456 46.4685C43.9149 46.2354 44.35 46.1188 44.8509 46.1188C45.2548 46.1188 45.6149 46.1938 45.9311 46.3438C46.2473 46.4916 46.5024 46.6993 46.6963 46.9671C46.8925 47.2348 47.0091 47.5476 47.046 47.9054H46.0385C45.9831 47.6561 45.8561 47.4414 45.6576 47.2614C45.4614 47.0813 45.1983 46.9913 44.8682 46.9913C44.5796 46.9913 44.3269 47.0675 44.1099 47.2198C43.8953 47.3699 43.7279 47.5845 43.6079 47.8638C43.4878 48.1408 43.4278 48.4686 43.4278 48.8471C43.4278 49.2349 43.4867 49.5696 43.6044 49.8512C43.7221 50.1328 43.8883 50.351 44.103 50.5056C44.32 50.6603 44.575 50.7376 44.8682 50.7376C45.0644 50.7376 45.2421 50.7018 45.4014 50.6302C45.563 50.5564 45.698 50.4514 45.8065 50.3152C45.9173 50.179 45.9946 50.0151 46.0385 49.8235H47.046C47.0091 50.1674 46.8971 50.4744 46.7101 50.7445C46.5232 51.0146 46.2727 51.2269 45.9588 51.3816C45.6472 51.5362 45.2814 51.6136 44.8613 51.6136ZM49.1883 44.4153V51.5062H48.1531V44.4153H49.1883ZM52.8731 51.6136C52.3492 51.6136 51.8979 51.5016 51.5194 51.2777C51.1431 51.0515 50.8523 50.7341 50.6469 50.3256C50.4437 49.9147 50.3422 49.4334 50.3422 48.8818C50.3422 48.337 50.4437 47.8569 50.6469 47.4414C50.8523 47.0259 51.1385 46.7016 51.5055 46.4685C51.8748 46.2354 52.3065 46.1188 52.8004 46.1188C53.1005 46.1188 53.3913 46.1684 53.673 46.2677C53.9546 46.3669 54.2073 46.5227 54.4312 46.7351C54.6551 46.9475 54.8317 47.2233 54.9609 47.5626C55.0902 47.8996 55.1548 48.3093 55.1548 48.7917V49.1587H50.9273V48.3832H54.1404C54.1404 48.1108 54.085 47.8696 53.9742 47.6595C53.8634 47.4472 53.7076 47.2798 53.5068 47.1575C53.3082 47.0352 53.0751 46.974 52.8074 46.974C52.5165 46.974 52.2626 47.0456 52.0456 47.1887C51.831 47.3295 51.6648 47.5141 51.5471 47.7426C51.4317 47.9688 51.3739 48.2147 51.3739 48.4801V49.086C51.3739 49.4415 51.4363 49.7439 51.5609 49.9932C51.6879 50.2425 51.8644 50.4329 52.0907 50.5645C52.3169 50.6937 52.5812 50.7584 52.8835 50.7584C53.0797 50.7584 53.2586 50.7307 53.4202 50.6753C53.5818 50.6176 53.7214 50.5321 53.8391 50.419C53.9569 50.3059 54.0469 50.1663 54.1092 50.0001L55.0891 50.1767C55.0106 50.4652 54.8698 50.718 54.6666 50.9349C54.4658 51.1496 54.2131 51.317 53.9084 51.437C53.606 51.5547 53.2609 51.6136 52.8731 51.6136Z" fill="black"/>
</svg>
