<svg width="52" height="54" viewBox="0 0 52 54" fill="none" xmlns="http://www.w3.org/2000/svg">
<rect x="8.5" y="0.256226" width="36" height="36" rx="12" fill="#F0F9FF"/>
<path d="M14 6.5H38V30.5H14V6.5Z" fill="#F0F9FF"/>
<path d="M35.8109 7.67188C34.7609 8.04922 34.0156 8.37219 34.0156 8.37219L33.875 8.43313L31.2969 7.68359C31.4891 8.19922 31.5594 8.68344 31.5453 9.1325C32.2906 9.56562 32.7969 9.90266 32.7969 9.90266L32.8906 9.96406L34.0484 9.53516L34.1891 9.58719C34.1891 9.58719 35.1875 9.94484 36.5047 10.3044C36.6125 10.2884 36.7203 10.2748 36.8281 10.2622V7.67188H35.8109ZM26.4875 8.06187C26.4453 8.06187 26.4078 8.06234 26.3656 8.06375C25.2406 8.08859 23.6656 8.48469 22.3438 8.91641C20.8344 9.41 19.6344 9.93078 19.6344 9.93078L19.4937 9.99172L16.918 9.24219C17.1027 9.74422 17.1758 10.2158 17.1664 10.655C17.3272 10.6419 17.4852 10.6339 17.6394 10.6316V10.632C17.8273 10.6292 18.0102 10.6353 18.1859 10.6508C19.0016 10.7239 19.9344 11.068 20.825 11.4828C21.2891 11.6281 21.875 11.8016 22.5219 11.9703C24.0266 12.3641 25.8547 12.6969 26.9562 12.5516C27.0828 12.5328 27.2188 12.5047 27.3641 12.4719C27.2797 12.2562 27.1672 12.0312 27.0172 11.7875L26.4547 10.8594L29.3141 11.6938C29.6703 11.5156 30.0172 11.3281 30.3453 11.1425C30.9359 10.8045 31.4281 10.4952 31.7891 10.2622C31.4188 10.0325 30.9125 9.72922 30.2891 9.39641C29.1453 8.78047 27.7203 8.15656 26.8203 8.07641C26.7125 8.06703 26.6047 8.06187 26.4875 8.06187ZM28.0766 9.02562C28.1884 9.02562 28.2958 9.07007 28.3749 9.14919C28.454 9.22831 28.4984 9.33561 28.4984 9.4475C28.4984 9.55939 28.454 9.66669 28.3749 9.74581C28.2958 9.82493 28.1884 9.86937 28.0766 9.86937C27.9647 9.86937 27.8574 9.82493 27.7783 9.74581C27.6991 9.66669 27.6547 9.55939 27.6547 9.4475C27.6547 9.33561 27.6991 9.22831 27.7783 9.14919C27.8574 9.07007 27.9647 9.02562 28.0766 9.02562ZM24.2938 9.15922L24.4156 9.99453C23.8625 10.0719 23.7359 10.2364 23.7359 10.2467C23.7312 10.2519 23.7266 10.257 23.7453 10.31C23.7687 10.3625 23.8203 10.4488 23.9141 10.5364C24.0922 10.7117 24.4016 10.8889 24.7109 10.9672C25.0203 11.0455 25.3109 11.0272 25.5219 10.9095L25.9344 11.6422C25.4797 11.9 24.9594 11.9 24.5047 11.7875C24.0453 11.6703 23.6281 11.4406 23.3234 11.1397C23.1687 10.9897 23.0422 10.8209 22.9625 10.6198C22.8828 10.4188 22.8594 10.1708 22.9484 9.94203C23.1266 9.48406 23.6094 9.25531 24.2938 9.15922ZM36.8281 11.1223C35.8203 11.2531 34.6297 11.5719 33.5938 11.9094C32.0844 12.4016 30.8844 12.9266 30.8844 12.9266L30.7438 12.9828L28.1703 12.2375C28.4047 12.8844 28.4609 13.4797 28.3859 14.0187C28.3344 14.4219 28.2219 14.7875 28.0859 15.1344L30.9172 14.0844L31.0578 14.1359C31.0578 14.1359 32.2625 14.5719 33.7719 14.9609C34.7516 15.2188 35.8625 15.4484 36.8281 15.5375V14.7828C36.4719 14.8812 36.0969 14.8625 35.7547 14.7781C35.2953 14.6609 34.8781 14.4313 34.5734 14.1313C34.4187 13.9813 34.2922 13.8125 34.2125 13.6109C34.1328 13.4141 34.1094 13.1656 34.1984 12.9359C34.3766 12.4766 34.8594 12.2469 35.5438 12.1531L35.6656 12.9875C35.1125 13.0672 34.9859 13.2313 34.9859 13.2406C34.9813 13.2453 34.9766 13.25 34.9953 13.3016C35.0187 13.3531 35.0703 13.4422 35.1641 13.5266C35.3422 13.7047 35.6516 13.8781 35.9609 13.9578C36.2703 14.0375 36.5609 14.0187 36.7719 13.9016L36.8281 14V11.1223ZM17.6572 11.4781C16.948 11.4922 16.0611 11.6563 15.1719 11.8813V12.6547C15.3003 12.6219 15.4386 12.5938 15.5867 12.575L15.7039 13.4094C15.4391 13.4469 15.2736 13.5078 15.1719 13.5547V13.9156C15.1817 13.9297 15.192 13.9391 15.2028 13.9484C15.3823 14.1266 15.6908 14.3 16.0002 14.3797C16.3095 14.4594 16.6025 14.4406 16.8111 14.3234L17.2264 15.0547C16.7717 15.3125 16.2523 15.3125 15.7939 15.2C15.5741 15.1438 15.3645 15.0594 15.1719 14.9562V15.5609L16.3063 15.8937C16.8275 15.9641 17.323 16.0063 17.7528 15.9969C18.2187 15.8094 18.9922 15.5094 19.9438 15.2C20.3234 15.0781 20.7219 14.9516 21.125 14.8391C21.2984 14.7453 21.4719 14.6516 21.6359 14.5578C22.2266 14.2156 22.7188 13.9109 23.0797 13.6766C22.7094 13.4469 22.2031 13.1422 21.5797 12.8094C20.4359 12.1953 19.0109 11.5719 18.1109 11.4922C18.005 11.4828 17.8934 11.4781 17.7762 11.4781H17.6572ZM19.3672 12.4391C19.4791 12.4391 19.5864 12.4835 19.6655 12.5626C19.7446 12.6417 19.7891 12.749 19.7891 12.8609C19.7891 12.9728 19.7446 13.0801 19.6655 13.1592C19.5864 13.2384 19.4791 13.2828 19.3672 13.2828C19.2553 13.2828 19.148 13.2384 19.0689 13.1592C18.9898 13.0801 18.9453 12.9728 18.9453 12.8609C18.9453 12.749 18.9898 12.6417 19.0689 12.5626C19.148 12.4835 19.2553 12.4391 19.3672 12.4391ZM24.2281 15.1484C23.1031 15.1719 21.5281 15.5703 20.2062 16.0016C18.6969 16.4937 17.4964 17.0187 17.4964 17.0187L17.3562 17.0797L15.1719 16.4375V19.0531L17.5273 18.1766L17.6727 18.2281C17.6727 18.2281 18.875 18.6641 20.3844 19.0531C21.8891 19.4469 23.7172 19.7797 24.8188 19.6344C25.7047 19.5172 27.0922 18.8609 28.2078 18.2281C28.7984 17.8859 29.2906 17.5766 29.6516 17.3469C29.2812 17.1172 28.775 16.8125 28.1516 16.4797C27.0078 15.8609 25.5828 15.2422 24.6828 15.1625C24.5797 15.1531 24.4672 15.1484 24.35 15.1484H24.2281ZM25.9391 16.1094C26.051 16.1094 26.1583 16.1538 26.2374 16.2329C26.3165 16.3121 26.3609 16.4194 26.3609 16.5312C26.3609 16.6431 26.3165 16.7504 26.2374 16.8296C26.1583 16.9087 26.051 16.9531 25.9391 16.9531C25.8272 16.9531 25.7199 16.9087 25.6408 16.8296C25.5616 16.7504 25.5172 16.6431 25.5172 16.5312C25.5172 16.4194 25.5616 16.3121 25.6408 16.2329C25.7199 16.1538 25.8272 16.1094 25.9391 16.1094ZM22.1562 16.2453L22.2781 17.0797C21.725 17.1594 21.5984 17.3234 21.5984 17.3328C21.5938 17.3375 21.5891 17.3422 21.6078 17.3937C21.6313 17.4453 21.6828 17.5344 21.7766 17.6187C21.9547 17.7969 22.2641 17.9703 22.5734 18.05C22.8828 18.1297 23.1734 18.1109 23.3844 17.9937L23.7969 18.725C23.3422 18.9828 22.8266 18.9828 22.3672 18.8703C21.9078 18.7531 21.4906 18.5234 21.1859 18.2234C21.0312 18.0734 20.9047 17.9047 20.825 17.7031C20.7453 17.5063 20.7219 17.2578 20.8109 17.0281C20.9891 16.5688 21.4719 16.3391 22.1562 16.2453ZM33.9922 17.3656C34.2266 18.0125 34.2828 18.6125 34.2078 19.1516C34.1562 19.5547 34.0438 19.9203 33.9078 20.2672L36.7391 19.2172L36.8281 19.25V18.0078C36.7812 18.0266 36.7062 18.0594 36.7062 18.0594L36.5656 18.1203L33.9922 17.3656ZM15.1719 19.5687V23.9609C16.0583 23.7875 17.3323 23.1781 18.3711 22.5875C18.9641 22.2453 19.4562 21.9359 19.8172 21.7062C19.4469 21.4766 18.9406 21.1719 18.3186 20.8391C17.3014 20.2906 16.0667 19.7422 15.1719 19.5687ZM30.2609 19.9859C29.1359 20.0094 27.5609 20.4078 26.2391 20.8391C24.7297 21.3312 23.5297 21.8563 23.5297 21.8563L23.3891 21.9172L20.8156 21.1625C21.05 21.8094 21.1062 22.4094 21.0312 22.9484C20.9797 23.3516 20.8672 23.7172 20.7313 24.0641L23.5625 23.0141L23.7031 23.0656C23.7031 23.0656 24.9078 23.5016 26.4172 23.8906C27.9219 24.2844 29.75 24.6172 30.8516 24.4719C31.7375 24.3547 33.125 23.6984 34.2406 23.0656C34.8312 22.7234 35.3234 22.4141 35.6844 22.1844C35.3141 21.9547 34.8078 21.65 34.1844 21.3172C33.0406 20.7031 31.6156 20.0797 30.7156 20C30.6078 19.9906 30.5 19.9859 30.3828 19.9859H30.2609ZM16.1047 20.4688C16.2166 20.4688 16.3239 20.5132 16.403 20.5923C16.4821 20.6714 16.5266 20.7787 16.5266 20.8906C16.5266 21.0025 16.4821 21.1098 16.403 21.1889C16.3239 21.2681 16.2166 21.3125 16.1047 21.3125C15.9928 21.3125 15.8855 21.2681 15.8064 21.1889C15.7273 21.1098 15.6828 21.0025 15.6828 20.8906C15.6828 20.7787 15.7273 20.6714 15.8064 20.5923C15.8855 20.5132 15.9928 20.4688 16.1047 20.4688ZM31.9719 20.9469C32.0838 20.9469 32.1911 20.9913 32.2702 21.0704C32.3493 21.1496 32.3937 21.2569 32.3937 21.3688C32.3937 21.4806 32.3493 21.5879 32.2702 21.6671C32.1911 21.7462 32.0838 21.7906 31.9719 21.7906C31.86 21.7906 31.7527 21.7462 31.6736 21.6671C31.5944 21.5879 31.55 21.4806 31.55 21.3688C31.55 21.2569 31.5944 21.1496 31.6736 21.0704C31.7527 20.9913 31.86 20.9469 31.9719 20.9469ZM28.1891 21.0828L28.3109 21.9172C27.7578 21.9969 27.6312 22.1609 27.6312 22.1703C27.6266 22.175 27.6219 22.1797 27.6406 22.2313C27.6641 22.2828 27.7156 22.3719 27.8094 22.4562C27.9875 22.6344 28.2969 22.8078 28.6063 22.8875C28.9156 22.9672 29.2062 22.9484 29.4172 22.8312L29.8297 23.5625C29.375 23.8203 28.8594 23.8203 28.4 23.7078C27.9406 23.5906 27.5234 23.3609 27.2188 23.0609C27.0641 22.9109 26.9375 22.7422 26.8578 22.5406C26.7781 22.3438 26.7547 22.0953 26.8438 21.8656C27.0219 21.4062 27.5047 21.1766 28.1891 21.0828ZM33.8937 24.9781C32.7687 25.0016 31.1938 25.4 29.8719 25.8312C28.3625 26.3234 27.1625 26.8484 27.1625 26.8484L27.0219 26.9094L24.4484 26.1547C24.6406 26.6844 24.7109 27.1859 24.6922 27.6453C25.2219 27.9359 25.6953 28.2172 26.0422 28.4328L27.1953 28.0062L27.3359 28.0578C27.3359 28.0578 28.5406 28.4937 30.05 28.8828C30.7062 29.0562 31.4234 29.2156 32.1125 29.3281H35.0844C35.6141 29.1734 36.2234 28.9109 36.8281 28.6109V25.8125C35.9281 25.3953 35 25.0484 34.3484 24.9922C34.2406 24.9828 34.1328 24.9781 34.0156 24.9781H33.8937ZM35.6047 25.9391C35.7166 25.9391 35.8239 25.9835 35.903 26.0626C35.9821 26.1417 36.0266 26.2491 36.0266 26.3609C36.0266 26.4728 35.9821 26.5801 35.903 26.6592C35.8239 26.7384 35.7166 26.7828 35.6047 26.7828C35.4928 26.7828 35.3855 26.7384 35.3064 26.6592C35.2273 26.5801 35.1828 26.4728 35.1828 26.3609C35.1828 26.2491 35.2273 26.1417 35.3064 26.0626C35.3855 25.9835 35.4928 25.9391 35.6047 25.9391ZM31.8219 26.075L31.9437 26.9094C31.3906 26.9891 31.2641 27.1531 31.2641 27.1625C31.2594 27.1672 31.2547 27.1719 31.2734 27.2234C31.2969 27.275 31.3484 27.3641 31.4422 27.4484C31.6203 27.6266 31.9297 27.8 32.2391 27.8797C32.5484 27.9594 32.8391 27.9406 33.05 27.8234L33.4625 28.5547C33.0078 28.8125 32.4922 28.8125 32.0328 28.7C31.5734 28.5828 31.1562 28.3531 30.8516 28.0531C30.6969 27.9031 30.5703 27.7344 30.4906 27.5328C30.4109 27.3359 30.3875 27.0875 30.4766 26.8578C30.6547 26.3984 31.1375 26.1688 31.8219 26.075ZM20.225 26.9844C19.1 27.0078 17.525 27.4062 16.2027 27.8375C15.8361 27.9547 15.4892 28.0766 15.1719 28.1937V29.3281H16.7633C16.7389 29.1781 16.7473 29.0188 16.8064 28.8641C16.9841 28.4047 17.4702 28.175 18.1555 28.0812L18.2727 28.9156C17.7228 28.9953 17.5981 29.1594 17.5934 29.1688C17.5916 29.1734 17.5845 29.1781 17.6056 29.2297C17.6159 29.2531 17.6347 29.2906 17.6619 29.3281H25.4188C25.4984 29.2766 25.5781 29.2297 25.6484 29.1828C25.2781 28.9531 24.7719 28.6484 24.1484 28.3156C23.0047 27.6969 21.5797 27.0781 20.6797 26.9984C20.5719 26.9891 20.4641 26.9844 20.3469 26.9844H20.225ZM21.9359 27.9453C22.0478 27.9453 22.1551 27.9898 22.2342 28.0689C22.3134 28.148 22.3578 28.2553 22.3578 28.3672C22.3578 28.4791 22.3134 28.5864 22.2342 28.6655C22.1551 28.7446 22.0478 28.7891 21.9359 28.7891C21.824 28.7891 21.7167 28.7446 21.6376 28.6655C21.5585 28.5864 21.5141 28.4791 21.5141 28.3672C21.5141 28.2553 21.5585 28.148 21.6376 28.0689C21.7167 27.9898 21.824 27.9453 21.9359 27.9453Z" fill="#006BB2"/>
<path d="M6.7653 46.7212H5.68505C5.6435 46.4904 5.56617 46.2873 5.45307 46.1119C5.33997 45.9364 5.20147 45.7876 5.03759 45.6652C4.8737 45.5429 4.6902 45.4506 4.48707 45.3882C4.28625 45.3259 4.07274 45.2948 3.84654 45.2948C3.43798 45.2948 3.07212 45.3975 2.74897 45.6029C2.42812 45.8083 2.17422 46.1096 1.98725 46.5066C1.80259 46.9036 1.71026 47.3883 1.71026 47.9608C1.71026 48.5378 1.80259 49.0249 1.98725 49.4219C2.17422 49.8189 2.42928 50.119 2.75243 50.3221C3.07558 50.5252 3.43913 50.6268 3.84307 50.6268C4.06697 50.6268 4.27933 50.5968 4.48015 50.5368C4.68327 50.4744 4.86678 50.3833 5.03066 50.2632C5.19455 50.1432 5.33304 49.9966 5.44614 49.8235C5.56156 49.6481 5.64119 49.4473 5.68505 49.2211L6.7653 49.2245C6.7076 49.5731 6.59565 49.8939 6.42945 50.1871C6.26557 50.4779 6.05437 50.7295 5.79584 50.9419C5.53963 51.1519 5.24648 51.3146 4.9164 51.4301C4.58633 51.5455 4.22624 51.6032 3.83615 51.6032C3.22216 51.6032 2.6751 51.4578 2.19499 51.1669C1.71488 50.8738 1.33633 50.4548 1.05934 49.9101C0.784657 49.3653 0.647317 48.7156 0.647317 47.9608C0.647317 47.2037 0.785811 46.5539 1.0628 46.0115C1.33979 45.4667 1.71834 45.0489 2.19845 44.7581C2.67857 44.4649 3.22447 44.3184 3.83615 44.3184C4.21239 44.3184 4.56324 44.3726 4.88871 44.4811C5.21648 44.5873 5.51078 44.7442 5.77161 44.952C6.03244 45.1574 6.24826 45.409 6.41907 45.7068C6.58988 46.0022 6.70529 46.3404 6.7653 46.7212ZM7.96241 51.5062V46.188H8.96303V47.0329H9.01843C9.11538 46.7466 9.28619 46.5216 9.53086 46.3577C9.77784 46.1915 10.0571 46.1084 10.3688 46.1084C10.4334 46.1084 10.5096 46.1107 10.5973 46.1153C10.6873 46.12 10.7577 46.1257 10.8085 46.1326V47.1229C10.7669 47.1113 10.6931 47.0986 10.5869 47.0848C10.4807 47.0686 10.3745 47.0606 10.2683 47.0606C10.0237 47.0606 9.80554 47.1125 9.61396 47.2164C9.42468 47.3179 9.27465 47.4599 9.16385 47.6422C9.05306 47.8223 8.99766 48.0277 8.99766 48.2585V51.5062H7.96241ZM13.806 51.6136C13.282 51.6136 12.8308 51.5016 12.4522 51.2777C12.076 51.0515 11.7851 50.7341 11.5797 50.3256C11.3766 49.9147 11.275 49.4334 11.275 48.8818C11.275 48.337 11.3766 47.8569 11.5797 47.4414C11.7851 47.0259 12.0714 46.7016 12.4384 46.4685C12.8077 46.2354 13.2393 46.1188 13.7333 46.1188C14.0334 46.1188 14.3242 46.1684 14.6058 46.2677C14.8874 46.3669 15.1402 46.5227 15.3641 46.7351C15.588 46.9475 15.7645 47.2233 15.8938 47.5626C16.0231 47.8996 16.0877 48.3093 16.0877 48.7917V49.1587H11.8602V48.3832H15.0732C15.0732 48.1108 15.0178 47.8696 14.907 47.6595C14.7962 47.4472 14.6404 47.2798 14.4396 47.1575C14.2411 47.0352 14.008 46.974 13.7402 46.974C13.4494 46.974 13.1955 47.0456 12.9785 47.1887C12.7638 47.3295 12.5976 47.5141 12.4799 47.7426C12.3645 47.9688 12.3068 48.2147 12.3068 48.4801V49.086C12.3068 49.4415 12.3691 49.7439 12.4938 49.9932C12.6207 50.2425 12.7973 50.4329 13.0235 50.5645C13.2497 50.6937 13.514 50.7584 13.8164 50.7584C14.0126 50.7584 14.1915 50.7307 14.3531 50.6753C14.5146 50.6176 14.6543 50.5321 14.772 50.419C14.8897 50.3059 14.9797 50.1663 15.0421 50.0001L16.0219 50.1767C15.9434 50.4652 15.8026 50.718 15.5995 50.9349C15.3987 51.1496 15.1459 51.317 14.8413 51.437C14.5389 51.5547 14.1938 51.6136 13.806 51.6136ZM18.784 51.6239C18.447 51.6239 18.1423 51.5616 17.87 51.437C17.5976 51.31 17.3818 51.1265 17.2225 50.8865C17.0655 50.6464 16.987 50.3521 16.987 50.0036C16.987 49.7035 17.0448 49.4565 17.1602 49.2626C17.2756 49.0687 17.4314 48.9152 17.6276 48.8021C17.8238 48.689 18.0431 48.6036 18.2854 48.5459C18.5278 48.4882 18.7748 48.4443 19.0264 48.4143C19.3449 48.3774 19.6034 48.3474 19.8019 48.3243C20.0005 48.2989 20.1447 48.2585 20.2347 48.2031C20.3248 48.1477 20.3698 48.0577 20.3698 47.9331V47.9088C20.3698 47.6065 20.2844 47.3722 20.1136 47.206C19.9451 47.0398 19.6935 46.9567 19.3588 46.9567C19.0102 46.9567 18.7355 47.034 18.5347 47.1887C18.3362 47.341 18.1989 47.5107 18.1227 47.6976L17.1498 47.476C17.2652 47.1529 17.4337 46.8921 17.6553 46.6935C17.8792 46.4927 18.1366 46.3473 18.4274 46.2573C18.7182 46.165 19.0241 46.1188 19.3449 46.1188C19.5573 46.1188 19.7823 46.1442 20.0201 46.195C20.2601 46.2434 20.484 46.3335 20.6918 46.465C20.9018 46.5966 21.0738 46.7847 21.2077 47.0294C21.3415 47.2718 21.4085 47.5868 21.4085 47.9746V51.5062H20.3975V50.7791H20.3559C20.289 50.913 20.1886 51.0446 20.0547 51.1738C19.9208 51.3031 19.7489 51.4104 19.5388 51.4958C19.3288 51.5812 19.0772 51.6239 18.784 51.6239ZM19.0091 50.793C19.2953 50.793 19.54 50.7364 19.7431 50.6233C19.9485 50.5102 20.1043 50.3625 20.2105 50.1801C20.319 49.9955 20.3732 49.7981 20.3732 49.5881V48.9025C20.3363 48.9395 20.2647 48.9741 20.1586 49.0064C20.0547 49.0364 19.9358 49.063 19.8019 49.086C19.6681 49.1068 19.5377 49.1264 19.4107 49.1449C19.2837 49.1611 19.1776 49.1749 19.0922 49.1864C18.8913 49.2118 18.7078 49.2545 18.5416 49.3146C18.3778 49.3746 18.2462 49.4611 18.1469 49.5742C18.05 49.685 18.0015 49.8328 18.0015 50.0174C18.0015 50.2736 18.0962 50.4675 18.2854 50.5991C18.4747 50.7283 18.7159 50.793 19.0091 50.793ZM25.2699 46.188V47.019H22.365V46.188H25.2699ZM23.144 44.9139H24.1792V49.9447C24.1792 50.1455 24.2092 50.2967 24.2693 50.3983C24.3293 50.4975 24.4066 50.5656 24.5012 50.6026C24.5982 50.6372 24.7032 50.6545 24.8163 50.6545C24.8994 50.6545 24.9721 50.6487 25.0344 50.6372C25.0968 50.6256 25.1452 50.6164 25.1799 50.6095L25.3668 51.4647C25.3068 51.4878 25.2214 51.5108 25.1106 51.5339C24.9998 51.5593 24.8613 51.5732 24.6951 51.5755C24.4228 51.5801 24.1688 51.5316 23.9334 51.4301C23.698 51.3285 23.5075 51.1715 23.3621 50.9592C23.2167 50.7468 23.144 50.4802 23.144 50.1594V44.9139ZM29.0785 51.5062V44.4153H33.4757V45.3363H30.1483V47.4968H33.1606V48.4143H30.1483V51.5062H29.0785ZM36.2369 51.6239C35.8999 51.6239 35.5952 51.5616 35.3228 51.437C35.0505 51.31 34.8346 51.1265 34.6754 50.8865C34.5184 50.6464 34.4399 50.3521 34.4399 50.0036C34.4399 49.7035 34.4976 49.4565 34.613 49.2626C34.7285 49.0687 34.8843 48.9152 35.0805 48.8021C35.2767 48.689 35.4959 48.6036 35.7383 48.5459C35.9807 48.4882 36.2277 48.4443 36.4793 48.4143C36.7978 48.3774 37.0563 48.3474 37.2548 48.3243C37.4533 48.2989 37.5976 48.2585 37.6876 48.2031C37.7776 48.1477 37.8227 48.0577 37.8227 47.9331V47.9088C37.8227 47.6065 37.7372 47.3722 37.5664 47.206C37.3979 47.0398 37.1463 46.9567 36.8116 46.9567C36.4631 46.9567 36.1884 47.034 35.9876 47.1887C35.7891 47.341 35.6518 47.5107 35.5756 47.6976L34.6027 47.476C34.7181 47.1529 34.8866 46.8921 35.1082 46.6935C35.3321 46.4927 35.5894 46.3473 35.8803 46.2573C36.1711 46.165 36.477 46.1188 36.7978 46.1188C37.0102 46.1188 37.2352 46.1442 37.473 46.195C37.713 46.2434 37.9369 46.3335 38.1447 46.465C38.3547 46.5966 38.5267 46.7847 38.6605 47.0294C38.7944 47.2718 38.8614 47.5868 38.8614 47.9746V51.5062H37.8504V50.7791H37.8088C37.7419 50.913 37.6415 51.0446 37.5076 51.1738C37.3737 51.3031 37.2017 51.4104 36.9917 51.4958C36.7816 51.5812 36.53 51.6239 36.2369 51.6239ZM36.4619 50.793C36.7482 50.793 36.9928 50.7364 37.196 50.6233C37.4014 50.5102 37.5572 50.3625 37.6634 50.1801C37.7719 49.9955 37.8261 49.7981 37.8261 49.5881V48.9025C37.7892 48.9395 37.7176 48.9741 37.6115 49.0064C37.5076 49.0364 37.3887 49.063 37.2548 49.086C37.1209 49.1068 36.9905 49.1264 36.8636 49.1449C36.7366 49.1611 36.6304 49.1749 36.545 49.1864C36.3442 49.2118 36.1607 49.2545 35.9945 49.3146C35.8306 49.3746 35.6991 49.4611 35.5998 49.5742C35.5029 49.685 35.4544 49.8328 35.4544 50.0174C35.4544 50.2736 35.549 50.4675 35.7383 50.5991C35.9276 50.7283 36.1688 50.793 36.4619 50.793ZM40.2402 51.5062V46.188H41.2409V47.0329H41.2963C41.3932 46.7466 41.564 46.5216 41.8087 46.3577C42.0557 46.1915 42.335 46.1084 42.6466 46.1084C42.7112 46.1084 42.7874 46.1107 42.8751 46.1153C42.9651 46.12 43.0355 46.1257 43.0863 46.1326V47.1229C43.0448 47.1113 42.9709 47.0986 42.8647 47.0848C42.7585 47.0686 42.6524 47.0606 42.5462 47.0606C42.3015 47.0606 42.0834 47.1125 41.8918 47.2164C41.7025 47.3179 41.5525 47.4599 41.4417 47.6422C41.3309 47.8223 41.2755 48.0277 41.2755 48.2585V51.5062H40.2402ZM43.9822 51.5062V46.188H44.9759V47.0536H45.0417C45.1525 46.7605 45.3337 46.532 45.5853 46.3681C45.8369 46.2019 46.1381 46.1188 46.4889 46.1188C46.8444 46.1188 47.1422 46.2019 47.3822 46.3681C47.6246 46.5343 47.8035 46.7628 47.9189 47.0536H47.9743C48.1012 46.7697 48.3032 46.5435 48.5802 46.375C48.8572 46.2042 49.1873 46.1188 49.5704 46.1188C50.0529 46.1188 50.4464 46.27 50.7511 46.5724C51.0581 46.8747 51.2116 47.3306 51.2116 47.94V51.5062H50.1763V48.0369C50.1763 47.6769 50.0782 47.416 49.882 47.2544C49.6858 47.0929 49.4516 47.0121 49.1792 47.0121C48.8422 47.0121 48.5802 47.116 48.3932 47.3237C48.2063 47.5291 48.1128 47.7934 48.1128 48.1166V51.5062H47.081V47.9712C47.081 47.6826 46.991 47.4507 46.8109 47.2752C46.6309 47.0998 46.3966 47.0121 46.1081 47.0121C45.9119 47.0121 45.7307 47.064 45.5645 47.1679C45.4006 47.2695 45.2679 47.4114 45.1663 47.5938C45.0671 47.7761 45.0174 47.9873 45.0174 48.2274V51.5062H43.9822Z" fill="black"/>
</svg>
