<svg width="53" height="54" viewBox="0 0 53 54" fill="none" xmlns="http://www.w3.org/2000/svg">
<rect x="8.5" y="0.256226" width="36" height="36" rx="12" fill="#F0F9FF"/>
<path d="M34.11 11H36V9H18V11H19.89C18.0398 12.86 17.0008 15.3765 17 18C17 21.97 19.31 25.39 22.66 27H31.34C33.0362 26.1864 34.4678 24.9096 35.4693 23.3171C36.4708 21.7246 37.0015 19.8813 37 18C37 15.27 35.89 12.8 34.11 11ZM21.32 12.41L22.7 11H31.3L32.68 12.41C33.2241 12.9531 33.6857 13.573 34.05 14.25C32.9511 14.0723 31.9076 13.6446 31 13C28.56 14.71 25.44 14.71 23 13C22.06 13.66 21 14.09 19.95 14.25C20.31 13.58 20.77 12.96 21.32 12.41ZM30.85 25H23.15C21.8904 24.317 20.8394 23.3055 20.1086 22.0729C19.3779 20.8404 18.9948 19.4329 19 18C19 17.43 19.07 16.86 19.19 16.32C20.5188 16.284 21.8218 15.9454 23 15.33C25.5 16.63 28.5 16.63 31 15.33C32.2 15.95 33.5 16.29 34.81 16.32C34.93 16.86 35 17.43 35 18C35.0052 19.4329 34.6221 20.8404 33.8914 22.0729C33.1606 23.3055 32.1096 24.317 30.85 25ZM32 20.5C32 21.88 30.32 23 28.25 23C27.09 23 26.06 22.64 25.33 22.16C24.67 23 23.33 23 22 23C23.1 23 23.5 21.88 23.5 20.5C23.5 19.12 23.1 18 22 18C23.33 18 24.67 18 25.37 18.91C26.06 18.36 27.09 18 28.25 18C30.32 18 32 19.12 32 20.5Z" fill="#006BB2"/>
<path d="M7.07963 46.7212H5.99938C5.95783 46.4904 5.8805 46.2873 5.7674 46.1119C5.6543 45.9364 5.5158 45.7876 5.35192 45.6652C5.18803 45.5429 5.00453 45.4506 4.8014 45.3882C4.60059 45.3259 4.38707 45.2948 4.16087 45.2948C3.75231 45.2948 3.38645 45.3975 3.0633 45.6029C2.74245 45.8083 2.48855 46.1096 2.30158 46.5066C2.11692 46.9036 2.02459 47.3883 2.02459 47.9608C2.02459 48.5378 2.11692 49.0249 2.30158 49.4219C2.48855 49.8189 2.74361 50.119 3.06676 50.3221C3.38991 50.5252 3.75346 50.6268 4.1574 50.6268C4.3813 50.6268 4.59366 50.5968 4.79448 50.5368C4.9976 50.4744 5.18111 50.3833 5.34499 50.2632C5.50888 50.1432 5.64737 49.9966 5.76048 49.8235C5.87589 49.6481 5.95552 49.4473 5.99938 49.2211L7.07963 49.2245C7.02193 49.5731 6.90998 49.8939 6.74379 50.1871C6.5799 50.4779 6.3687 50.7295 6.11017 50.9419C5.85396 51.1519 5.56081 51.3146 5.23074 51.4301C4.90066 51.5455 4.54057 51.6032 4.15048 51.6032C3.53649 51.6032 2.98944 51.4578 2.50932 51.1669C2.02921 50.8738 1.65066 50.4548 1.37367 49.9101C1.09899 49.3653 0.961648 48.7156 0.961648 47.9608C0.961648 47.2037 1.10014 46.5539 1.37713 46.0115C1.65412 45.4667 2.03267 45.0489 2.51278 44.7581C2.9929 44.4649 3.5388 44.3184 4.15048 44.3184C4.52672 44.3184 4.87757 44.3726 5.20304 44.4811C5.53081 44.5873 5.82511 44.7442 6.08594 44.952C6.34677 45.1574 6.56259 45.409 6.7334 45.7068C6.90421 46.0022 7.01962 46.3404 7.07963 46.7212ZM8.27674 51.5062V46.188H9.27737V47.0329H9.33276C9.42971 46.7466 9.60052 46.5216 9.84519 46.3577C10.0922 46.1915 10.3715 46.1084 10.6831 46.1084C10.7477 46.1084 10.8239 46.1107 10.9116 46.1153C11.0016 46.12 11.072 46.1257 11.1228 46.1326V47.1229C11.0813 47.1113 11.0074 47.0986 10.9012 47.0848C10.795 47.0686 10.6889 47.0606 10.5827 47.0606C10.338 47.0606 10.1199 47.1125 9.92829 47.2164C9.73901 47.3179 9.58898 47.4599 9.47818 47.6422C9.36739 47.8223 9.31199 48.0277 9.31199 48.2585V51.5062H8.27674ZM14.1203 51.6136C13.5964 51.6136 13.1451 51.5016 12.7666 51.2777C12.3903 51.0515 12.0995 50.7341 11.894 50.3256C11.6909 49.9147 11.5894 49.4334 11.5894 48.8818C11.5894 48.337 11.6909 47.8569 11.894 47.4414C12.0995 47.0259 12.3857 46.7016 12.7527 46.4685C13.122 46.2354 13.5537 46.1188 14.0476 46.1188C14.3477 46.1188 14.6385 46.1684 14.9201 46.2677C15.2017 46.3669 15.4545 46.5227 15.6784 46.7351C15.9023 46.9475 16.0789 47.2233 16.2081 47.5626C16.3374 47.8996 16.402 48.3093 16.402 48.7917V49.1587H12.1745V48.3832H15.3876C15.3876 48.1108 15.3322 47.8696 15.2214 47.6595C15.1106 47.4472 14.9548 47.2798 14.754 47.1575C14.5554 47.0352 14.3223 46.974 14.0546 46.974C13.7637 46.974 13.5098 47.0456 13.2928 47.1887C13.0782 47.3295 12.912 47.5141 12.7943 47.7426C12.6788 47.9688 12.6211 48.2147 12.6211 48.4801V49.086C12.6211 49.4415 12.6835 49.7439 12.8081 49.9932C12.9351 50.2425 13.1116 50.4329 13.3378 50.5645C13.5641 50.6937 13.8283 50.7584 14.1307 50.7584C14.3269 50.7584 14.5058 50.7307 14.6674 50.6753C14.829 50.6176 14.9686 50.5321 15.0863 50.419C15.2041 50.3059 15.2941 50.1663 15.3564 50.0001L16.3362 50.1767C16.2578 50.4652 16.117 50.718 15.9138 50.9349C15.713 51.1496 15.4603 51.317 15.1556 51.437C14.8532 51.5547 14.5081 51.6136 14.1203 51.6136ZM19.0983 51.6239C18.7613 51.6239 18.4567 51.5616 18.1843 51.437C17.9119 51.31 17.6961 51.1265 17.5368 50.8865C17.3799 50.6464 17.3014 50.3521 17.3014 50.0036C17.3014 49.7035 17.3591 49.4565 17.4745 49.2626C17.5899 49.0687 17.7457 48.9152 17.9419 48.8021C18.1381 48.689 18.3574 48.6036 18.5998 48.5459C18.8421 48.4882 19.0891 48.4443 19.3407 48.4143C19.6592 48.3774 19.9178 48.3474 20.1163 48.3243C20.3148 48.2989 20.4591 48.2585 20.5491 48.2031C20.6391 48.1477 20.6841 48.0577 20.6841 47.9331V47.9088C20.6841 47.6065 20.5987 47.3722 20.4279 47.206C20.2594 47.0398 20.0078 46.9567 19.6731 46.9567C19.3246 46.9567 19.0499 47.034 18.8491 47.1887C18.6505 47.341 18.5132 47.5107 18.437 47.6976L17.4641 47.476C17.5795 47.1529 17.748 46.8921 17.9696 46.6935C18.1935 46.4927 18.4509 46.3473 18.7417 46.2573C19.0326 46.165 19.3384 46.1188 19.6592 46.1188C19.8716 46.1188 20.0967 46.1442 20.3344 46.195C20.5745 46.2434 20.7984 46.3335 21.0061 46.465C21.2162 46.5966 21.3881 46.7847 21.522 47.0294C21.6559 47.2718 21.7228 47.5868 21.7228 47.9746V51.5062H20.7118V50.7791H20.6703C20.6033 50.913 20.5029 51.0446 20.369 51.1738C20.2352 51.3031 20.0632 51.4104 19.8531 51.4958C19.6431 51.5812 19.3915 51.6239 19.0983 51.6239ZM19.3234 50.793C19.6096 50.793 19.8543 50.7364 20.0574 50.6233C20.2629 50.5102 20.4187 50.3625 20.5248 50.1801C20.6333 49.9955 20.6876 49.7981 20.6876 49.5881V48.9025C20.6506 48.9395 20.5791 48.9741 20.4729 49.0064C20.369 49.0364 20.2502 49.063 20.1163 49.086C19.9824 49.1068 19.852 49.1264 19.725 49.1449C19.5981 49.1611 19.4919 49.1749 19.4065 49.1864C19.2057 49.2118 19.0222 49.2545 18.856 49.3146C18.6921 49.3746 18.5605 49.4611 18.4613 49.5742C18.3643 49.685 18.3159 49.8328 18.3159 50.0174C18.3159 50.2736 18.4105 50.4675 18.5998 50.5991C18.789 50.7283 19.0303 50.793 19.3234 50.793ZM25.5842 46.188V47.019H22.6793V46.188H25.5842ZM23.4583 44.9139H24.4936V49.9447C24.4936 50.1455 24.5236 50.2967 24.5836 50.3983C24.6436 50.4975 24.7209 50.5656 24.8156 50.6026C24.9125 50.6372 25.0175 50.6545 25.1306 50.6545C25.2137 50.6545 25.2864 50.6487 25.3488 50.6372C25.4111 50.6256 25.4596 50.6164 25.4942 50.6095L25.6812 51.4647C25.6211 51.4878 25.5357 51.5108 25.4249 51.5339C25.3141 51.5593 25.1756 51.5732 25.0095 51.5755C24.7371 51.5801 24.4832 51.5316 24.2477 51.4301C24.0123 51.3285 23.8219 51.1715 23.6764 50.9592C23.531 50.7468 23.4583 50.4802 23.4583 50.1594V44.9139ZM29.3928 51.5062V44.4153H31.9203C32.472 44.4153 32.929 44.5157 33.2914 44.7165C33.6538 44.9174 33.925 45.192 34.1051 45.5406C34.2851 45.8868 34.3751 46.2769 34.3751 46.7109C34.3751 47.1471 34.284 47.5395 34.1016 47.8881C33.9216 48.2343 33.6492 48.509 33.2845 48.7121C32.9221 48.9129 32.4662 49.0133 31.9169 49.0133H30.1788V48.1062H31.8199C32.1685 48.1062 32.4512 48.0462 32.6682 47.9261C32.8852 47.8038 33.0444 47.6376 33.146 47.4276C33.2476 47.2175 33.2983 46.9786 33.2983 46.7109C33.2983 46.4431 33.2476 46.2054 33.146 45.9976C33.0444 45.7899 32.884 45.6271 32.6647 45.5094C32.4478 45.3917 32.1615 45.3328 31.8061 45.3328H30.4627V51.5062H29.3928ZM37.7198 51.6136C37.2212 51.6136 36.7861 51.4993 36.4145 51.2708C36.0428 51.0423 35.7543 50.7226 35.5489 50.3117C35.3434 49.9008 35.2407 49.4207 35.2407 48.8714C35.2407 48.3197 35.3434 47.8373 35.5489 47.4241C35.7543 47.0109 36.0428 46.6901 36.4145 46.4616C36.7861 46.2331 37.2212 46.1188 37.7198 46.1188C38.2184 46.1188 38.6535 46.2331 39.0251 46.4616C39.3967 46.6901 39.6852 47.0109 39.8907 47.4241C40.0961 47.8373 40.1988 48.3197 40.1988 48.8714C40.1988 49.4207 40.0961 49.9008 39.8907 50.3117C39.6852 50.7226 39.3967 51.0423 39.0251 51.2708C38.6535 51.4993 38.2184 51.6136 37.7198 51.6136ZM37.7232 50.7445C38.0464 50.7445 38.3141 50.6591 38.5265 50.4883C38.7389 50.3175 38.8958 50.0901 38.9974 49.8062C39.1013 49.5223 39.1532 49.2095 39.1532 48.8679C39.1532 48.5286 39.1013 48.217 38.9974 47.9331C38.8958 47.6469 38.7389 47.4172 38.5265 47.2441C38.3141 47.0709 38.0464 46.9844 37.7232 46.9844C37.3978 46.9844 37.1277 47.0709 36.913 47.2441C36.7007 47.4172 36.5426 47.6469 36.4387 47.9331C36.3371 48.217 36.2864 48.5286 36.2864 48.8679C36.2864 49.2095 36.3371 49.5223 36.4387 49.8062C36.5426 50.0901 36.7007 50.3175 36.913 50.4883C37.1277 50.6591 37.3978 50.7445 37.7232 50.7445ZM42.3896 48.3486V51.5062H41.3544V46.188H42.3481V47.0536H42.4139C42.5362 46.772 42.7278 46.5458 42.9886 46.375C43.2518 46.2042 43.583 46.1188 43.9823 46.1188C44.3447 46.1188 44.6621 46.195 44.9345 46.3473C45.2068 46.4973 45.418 46.7212 45.5681 47.019C45.7181 47.3168 45.7931 47.6849 45.7931 48.1235V51.5062H44.7579V48.2481C44.7579 47.8627 44.6575 47.5614 44.4567 47.3445C44.2558 47.1252 43.98 47.0155 43.6292 47.0155C43.3891 47.0155 43.1756 47.0675 42.9886 47.1714C42.804 47.2752 42.6574 47.4276 42.5489 47.6284C42.4427 47.8269 42.3896 48.0669 42.3896 48.3486ZM49.1724 51.6101C48.7431 51.6101 48.3599 51.5005 48.0229 51.2812C47.6882 51.0596 47.425 50.7445 47.2335 50.3359C47.0442 49.9251 46.9496 49.4323 46.9496 48.8575C46.9496 48.2828 47.0453 47.7911 47.2369 47.3826C47.4308 46.974 47.6963 46.6612 48.0333 46.4443C48.3703 46.2273 48.7523 46.1188 49.1793 46.1188C49.5094 46.1188 49.7748 46.1742 49.9757 46.285C50.1788 46.3935 50.3357 46.5204 50.4465 46.6658C50.5596 46.8113 50.6474 46.9394 50.7097 47.0502H50.772V44.4153H51.8072V51.5062H50.7962V50.6787H50.7097C50.6474 50.7918 50.5573 50.9211 50.4396 51.0665C50.3242 51.2119 50.1649 51.3389 49.9618 51.4474C49.7587 51.5559 49.4955 51.6101 49.1724 51.6101ZM49.4009 50.7272C49.6987 50.7272 49.9503 50.6487 50.1557 50.4918C50.3634 50.3325 50.5204 50.112 50.6266 49.8304C50.7351 49.5488 50.7893 49.2211 50.7893 48.8471C50.7893 48.4778 50.7362 48.1547 50.63 47.8777C50.5239 47.6007 50.3681 47.3849 50.1626 47.2302C49.9572 47.0756 49.7033 46.9982 49.4009 46.9982C49.0893 46.9982 48.8296 47.079 48.6219 47.2406C48.4141 47.4022 48.2572 47.6226 48.151 47.9019C48.0471 48.1812 47.9952 48.4963 47.9952 48.8471C47.9952 49.2026 48.0483 49.5223 48.1545 49.8062C48.2606 50.0901 48.4176 50.3152 48.6253 50.4814C48.8354 50.6453 49.0939 50.7272 49.4009 50.7272Z" fill="black"/>
</svg>
