<svg width="37" height="56" viewBox="0 0 37 56" fill="none" xmlns="http://www.w3.org/2000/svg">
<rect x="0.5" y="0.239014" width="36" height="37.8585" rx="12" fill="#F0F9FF"/>
<path d="M23.0667 13.3333L24.8583 15.0833L20.25 18.75L19.4167 17.9167L23.0583 13.3333H23.0667ZM23.0667 11.6667C22.8204 11.665 22.5769 11.718 22.3535 11.8217C22.1302 11.9255 21.9326 12.0774 21.775 12.2667L17.1667 18.0417L20.1167 20.9917L25.9 16.3917C26.65 15.7583 26.7083 14.6167 26.0083 13.9167L24.25 12.1583C23.9167 11.825 23.4917 11.6667 23.0667 11.6667ZM16.5833 18.6333L15.9917 19.225C15.8354 19.384 15.7479 19.5979 15.7479 19.8208C15.7479 20.0437 15.8354 20.2577 15.9917 20.4167L17.75 22.1667C17.925 22.3333 18.1333 22.4083 18.35 22.4083C18.5667 22.4083 18.775 22.3333 18.9417 22.1667L19.525 21.5833L16.5833 18.6333ZM14 22.5C13.5417 22.5 13.1667 22.875 13.1667 23.3333C13.1667 23.7917 13.5417 24.1667 14 24.1667C14.4583 24.1667 14.8333 23.7917 14.8333 23.3333C14.8333 22.875 14.4583 22.5 14 22.5ZM16.5 23.3333C16.0417 23.3333 15.6667 23.7083 15.6667 24.1667C15.6667 24.625 16.0417 25 16.5 25C16.9583 25 17.3333 24.625 17.3333 24.1667C17.3333 23.7083 16.9583 23.3333 16.5 23.3333ZM12.3333 25C11.875 25 11.5 25.375 11.5 25.8333C11.5 26.2917 11.875 26.6667 12.3333 26.6667C12.7917 26.6667 13.1667 26.2917 13.1667 25.8333C13.1667 25.375 12.7917 25 12.3333 25ZM14.8333 25.8333C14.375 25.8333 14 26.2083 14 26.6667C14 27.125 14.375 27.5 14.8333 27.5C15.2917 27.5 15.6667 27.125 15.6667 26.6667C15.6667 26.2083 15.2917 25.8333 14.8333 25.8333Z" fill="#006BB2"/>
<path d="M7.84373 53.6185V46.5276H12.2409V47.4486H8.9136V49.6091H11.9258V50.5266H8.9136V53.6185H7.84373ZM15.3752 53.7259C14.8513 53.7259 14.4 53.6139 14.0214 53.39C13.6452 53.1638 13.3544 52.8464 13.1489 52.4379C12.9458 52.027 12.8442 51.5457 12.8442 50.9941C12.8442 50.4493 12.9458 49.9692 13.1489 49.5537C13.3544 49.1382 13.6406 48.8139 14.0076 48.5808C14.3769 48.3477 14.8085 48.2311 15.3025 48.2311C15.6026 48.2311 15.8934 48.2807 16.175 48.38C16.4566 48.4792 16.7094 48.635 16.9333 48.8474C17.1572 49.0598 17.3338 49.3356 17.463 49.6749C17.5923 50.0119 17.6569 50.4216 17.6569 50.904V51.2711H13.4294V50.4955H16.6424C16.6424 50.2231 16.587 49.9819 16.4763 49.7719C16.3655 49.5595 16.2097 49.3921 16.0088 49.2698C15.8103 49.1475 15.5772 49.0863 15.3094 49.0863C15.0186 49.0863 14.7647 49.1579 14.5477 49.301C14.3331 49.4418 14.1669 49.6264 14.0491 49.8549C13.9337 50.0812 13.876 50.327 13.876 50.5924V51.1983C13.876 51.5538 13.9383 51.8562 14.063 52.1055C14.1899 52.3548 14.3665 52.5452 14.5927 52.6768C14.8189 52.806 15.0832 52.8707 15.3856 52.8707C15.5818 52.8707 15.7607 52.843 15.9223 52.7876C16.0839 52.7299 16.2235 52.6445 16.3412 52.5313C16.4589 52.4182 16.549 52.2786 16.6113 52.1124L17.5911 52.289C17.5127 52.5775 17.3718 52.8303 17.1687 53.0472C16.9679 53.2619 16.7152 53.4293 16.4105 53.5493C16.1081 53.667 15.763 53.7259 15.3752 53.7259ZM21.0976 53.7259C20.5737 53.7259 20.1224 53.6139 19.7439 53.39C19.3676 53.1638 19.0768 52.8464 18.8713 52.4379C18.6682 52.027 18.5667 51.5457 18.5667 50.9941C18.5667 50.4493 18.6682 49.9692 18.8713 49.5537C19.0768 49.1382 19.363 48.8139 19.73 48.5808C20.0993 48.3477 20.531 48.2311 21.0249 48.2311C21.325 48.2311 21.6158 48.2807 21.8974 48.38C22.179 48.4792 22.4318 48.635 22.6557 48.8474C22.8796 49.0598 23.0562 49.3356 23.1854 49.6749C23.3147 50.0119 23.3793 50.4216 23.3793 50.904V51.2711H19.1518V50.4955H22.3649C22.3649 50.2231 22.3095 49.9819 22.1987 49.7719C22.0879 49.5595 21.9321 49.3921 21.7312 49.2698C21.5327 49.1475 21.2996 49.0863 21.0318 49.0863C20.741 49.0863 20.4871 49.1579 20.2701 49.301C20.0555 49.4418 19.8893 49.6264 19.7716 49.8549C19.6561 50.0812 19.5984 50.327 19.5984 50.5924V51.1983C19.5984 51.5538 19.6608 51.8562 19.7854 52.1055C19.9124 52.3548 20.0889 52.5452 20.3151 52.6768C20.5413 52.806 20.8056 52.8707 21.108 52.8707C21.3042 52.8707 21.4831 52.843 21.6447 52.7876C21.8063 52.7299 21.9459 52.6445 22.0636 52.5313C22.1814 52.4182 22.2714 52.2786 22.3337 52.1124L23.3135 52.289C23.2351 52.5775 23.0943 52.8303 22.8911 53.0472C22.6903 53.2619 22.4376 53.4293 22.1329 53.5493C21.8305 53.667 21.4854 53.7259 21.0976 53.7259ZM26.5188 53.7224C26.0895 53.7224 25.7063 53.6128 25.3693 53.3935C25.0346 53.1719 24.7715 52.8568 24.5799 52.4483C24.3906 52.0374 24.296 51.5446 24.296 50.9698C24.296 50.3951 24.3918 49.9034 24.5834 49.4949C24.7773 49.0863 25.0427 48.7735 25.3797 48.5566C25.7167 48.3396 26.0987 48.2311 26.5257 48.2311C26.8558 48.2311 27.1213 48.2865 27.3221 48.3973C27.5252 48.5058 27.6822 48.6327 27.793 48.7782C27.9061 48.9236 27.9938 49.0517 28.0561 49.1625H28.1184V46.5276H29.1537V53.6185H28.1427V52.791H28.0561C27.9938 52.9041 27.9038 53.0334 27.786 53.1788C27.6706 53.3242 27.5114 53.4512 27.3082 53.5597C27.1051 53.6682 26.842 53.7224 26.5188 53.7224ZM26.7473 52.8395C27.0451 52.8395 27.2967 52.761 27.5021 52.6041C27.7099 52.4448 27.8668 52.2244 27.973 51.9427C28.0815 51.6611 28.1357 51.3334 28.1357 50.9594C28.1357 50.5901 28.0827 50.267 27.9765 49.99C27.8703 49.713 27.7145 49.4972 27.5091 49.3425C27.3036 49.1879 27.0497 49.1105 26.7473 49.1105C26.4357 49.1105 26.176 49.1913 25.9683 49.3529C25.7606 49.5145 25.6036 49.7349 25.4974 50.0142C25.3936 50.2935 25.3416 50.6086 25.3416 50.9594C25.3416 51.3149 25.3947 51.6346 25.5009 51.9185C25.6071 52.2024 25.764 52.4275 25.9718 52.5937C26.1818 52.7576 26.4403 52.8395 26.7473 52.8395Z" fill="black"/>
</svg>
