<svg width="64" height="56" viewBox="0 0 64 56" fill="none" xmlns="http://www.w3.org/2000/svg">
<rect x="14.5" y="0.239014" width="36" height="37.8585" rx="12" fill="#F0F9FF"/>
<path d="M27.1 21.65C27.1 23.0424 27.6531 24.3777 28.6377 25.3623C29.6223 26.3469 30.9576 26.9 32.35 26.9C33.7424 26.9 35.0777 26.3469 36.0623 25.3623C37.0469 24.3777 37.6 23.0424 37.6 21.65C37.6 19.8377 35.857 16.3674 32.35 11.5143C28.843 16.3674 27.1 19.8377 27.1 21.65ZM32.35 8C37.2504 14.3945 39.7 18.9441 39.7 21.65C39.7 23.5993 38.9256 25.4688 37.5472 26.8472C36.1688 28.2256 34.2993 29 32.35 29C30.4007 29 28.5312 28.2256 27.1528 26.8472C25.7744 25.4688 25 23.5993 25 21.65C25 18.9441 27.4497 14.3945 32.35 8Z" fill="#006BB2"/>
<path d="M2.65608 53.6185L0.689464 46.5276H1.81473L3.19621 52.0189H3.262L4.69887 46.5276H5.81375L7.25063 52.0224H7.31642L8.69444 46.5276H9.82316L7.85308 53.6185H6.77629L5.28401 48.3073H5.22862L3.73634 53.6185H2.65608ZM11.7396 53.7363C11.4026 53.7363 11.0979 53.6739 10.8255 53.5493C10.5531 53.4223 10.3373 53.2388 10.1781 52.9988C10.0211 52.7587 9.94262 52.4644 9.94262 52.1159C9.94262 51.8158 10.0003 51.5688 10.1157 51.3749C10.2311 51.181 10.387 51.0275 10.5832 50.9144C10.7794 50.8013 10.9986 50.7159 11.241 50.6582C11.4834 50.6005 11.7303 50.5567 11.9819 50.5266C12.3005 50.4897 12.559 50.4597 12.7575 50.4366C12.956 50.4112 13.1003 50.3708 13.1903 50.3154C13.2803 50.26 13.3253 50.17 13.3253 50.0454V50.0211C13.3253 49.7188 13.2399 49.4845 13.0691 49.3183C12.9006 49.1521 12.649 49.069 12.3143 49.069C11.9658 49.069 11.6911 49.1463 11.4903 49.301C11.2918 49.4533 11.1544 49.623 11.0783 49.8099L10.1053 49.5883C10.2208 49.2652 10.3893 49.0044 10.6109 48.8059C10.8348 48.605 11.0921 48.4596 11.383 48.3696C11.6738 48.2773 11.9796 48.2311 12.3005 48.2311C12.5128 48.2311 12.7379 48.2565 12.9756 48.3073C13.2157 48.3557 13.4396 48.4458 13.6473 48.5773C13.8574 48.7089 14.0294 48.897 14.1632 49.1417C14.2971 49.3841 14.364 49.6991 14.364 50.0869V53.6185H13.353V52.8914H13.3115C13.2446 53.0253 13.1441 53.1569 13.0103 53.2861C12.8764 53.4154 12.7044 53.5227 12.4944 53.6081C12.2843 53.6935 12.0327 53.7363 11.7396 53.7363ZM11.9646 52.9053C12.2509 52.9053 12.4955 52.8487 12.6987 52.7356C12.9041 52.6225 13.0599 52.4748 13.1661 52.2924C13.2746 52.1078 13.3288 51.9104 13.3288 51.7004V51.0148C13.2919 51.0518 13.2203 51.0864 13.1141 51.1187C13.0103 51.1487 12.8914 51.1753 12.7575 51.1983C12.6236 51.2191 12.4932 51.2387 12.3663 51.2572C12.2393 51.2734 12.1331 51.2872 12.0477 51.2988C11.8469 51.3241 11.6634 51.3668 11.4972 51.4269C11.3333 51.4869 11.2018 51.5734 11.1025 51.6865C11.0056 51.7973 10.9571 51.9451 10.9571 52.1297C10.9571 52.3859 11.0517 52.5798 11.241 52.7114C11.4303 52.8407 11.6715 52.9053 11.9646 52.9053ZM18.2254 48.3003V49.1313H15.3205V48.3003H18.2254ZM16.0996 47.0262H17.1348V52.057C17.1348 52.2578 17.1648 52.409 17.2248 52.5106C17.2848 52.6098 17.3622 52.6779 17.4568 52.7149C17.5537 52.7495 17.6588 52.7668 17.7719 52.7668C17.855 52.7668 17.9277 52.761 17.99 52.7495C18.0523 52.7379 18.1008 52.7287 18.1354 52.7218L18.3224 53.577C18.2624 53.6001 18.177 53.6231 18.0662 53.6462C17.9554 53.6716 17.8169 53.6855 17.6507 53.6878C17.3783 53.6924 17.1244 53.6439 16.889 53.5424C16.6535 53.4408 16.4631 53.2838 16.3177 53.0715C16.1723 52.8591 16.0996 52.5925 16.0996 52.2717V47.0262ZM21.6056 53.7259C21.0816 53.7259 20.6303 53.6139 20.2518 53.39C19.8755 53.1638 19.5847 52.8464 19.3793 52.4379C19.1761 52.027 19.0746 51.5457 19.0746 50.9941C19.0746 50.4493 19.1761 49.9692 19.3793 49.5537C19.5847 49.1382 19.8709 48.8139 20.2379 48.5808C20.6073 48.3477 21.0389 48.2311 21.5329 48.2311C21.8329 48.2311 22.1238 48.2807 22.4054 48.38C22.687 48.4792 22.9397 48.635 23.1636 48.8474C23.3875 49.0598 23.5641 49.3356 23.6934 49.6749C23.8226 50.0119 23.8873 50.4216 23.8873 50.904V51.2711H19.6597V50.4955H22.8728C22.8728 50.2231 22.8174 49.9819 22.7066 49.7719C22.5958 49.5595 22.44 49.3921 22.2392 49.2698C22.0407 49.1475 21.8075 49.0863 21.5398 49.0863C21.2489 49.0863 20.995 49.1579 20.7781 49.301C20.5634 49.4418 20.3972 49.6264 20.2795 49.8549C20.1641 50.0812 20.1064 50.327 20.1064 50.5924V51.1983C20.1064 51.5538 20.1687 51.8562 20.2933 52.1055C20.4203 52.3548 20.5969 52.5452 20.8231 52.6768C21.0493 52.806 21.3136 52.8707 21.616 52.8707C21.8122 52.8707 21.991 52.843 22.1526 52.7876C22.3142 52.7299 22.4538 52.6445 22.5716 52.5313C22.6893 52.4182 22.7793 52.2786 22.8416 52.1124L23.8215 52.289C23.743 52.5775 23.6022 52.8303 23.3991 53.0472C23.1983 53.2619 22.9455 53.4293 22.6408 53.5493C22.3384 53.667 21.9934 53.7259 21.6056 53.7259ZM25.0359 53.6185V48.3003H26.0365V49.1452H26.0919C26.1889 48.8589 26.3597 48.6339 26.6043 48.47C26.8513 48.3038 27.1306 48.2207 27.4422 48.2207C27.5069 48.2207 27.583 48.223 27.6708 48.2276C27.7608 48.2323 27.8312 48.238 27.882 48.245V49.2352C27.8404 49.2236 27.7665 49.2109 27.6604 49.1971C27.5542 49.1809 27.448 49.1729 27.3418 49.1729C27.0972 49.1729 26.879 49.2248 26.6874 49.3287C26.4982 49.4302 26.3481 49.5722 26.2373 49.7545C26.1265 49.9346 26.0711 50.14 26.0711 50.3708V53.6185H25.0359ZM34.0484 51.3195H35.101L35.8419 52.2855L36.1916 52.7149L37.3723 54.2556H36.2782L35.4888 53.2273L35.2187 52.8533L34.0484 51.3195ZM37.6008 50.0731C37.6008 50.8302 37.4623 51.4811 37.1853 52.0258C36.9083 52.5683 36.5286 52.9861 36.0462 53.2792C35.5661 53.5701 35.0202 53.7155 34.4085 53.7155C33.7945 53.7155 33.2463 53.5701 32.7639 53.2792C32.2838 52.9861 31.9052 52.5671 31.6282 52.0224C31.3512 51.4776 31.2127 50.8279 31.2127 50.0731C31.2127 49.316 31.3512 48.6662 31.6282 48.1238C31.9052 47.579 32.2838 47.1612 32.7639 46.8704C33.2463 46.5772 33.7945 46.4307 34.4085 46.4307C35.0202 46.4307 35.5661 46.5772 36.0462 46.8704C36.5286 47.1612 36.9083 47.579 37.1853 48.1238C37.4623 48.6662 37.6008 49.316 37.6008 50.0731ZM36.5413 50.0731C36.5413 49.496 36.4478 49.0101 36.2609 48.6154C36.0762 48.2184 35.8223 47.9183 35.4991 47.7152C35.1783 47.5098 34.8148 47.4071 34.4085 47.4071C33.9999 47.4071 33.6352 47.5098 33.3144 47.7152C32.9936 47.9183 32.7396 48.2184 32.5527 48.6154C32.368 49.0101 32.2757 49.496 32.2757 50.0731C32.2757 50.6501 32.368 51.1372 32.5527 51.5342C32.7396 51.9289 32.9936 52.229 33.3144 52.4344C33.6352 52.6375 33.9999 52.7391 34.4085 52.7391C34.8148 52.7391 35.1783 52.6375 35.4991 52.4344C35.8223 52.229 36.0762 51.9289 36.2609 51.5342C36.4478 51.1372 36.5413 50.6501 36.5413 50.0731ZM42.2204 51.413V48.3003H43.2592V53.6185H42.2412V52.6975H42.1858C42.0635 52.9815 41.8673 53.2181 41.5972 53.4073C41.3295 53.5943 40.9959 53.6878 40.5966 53.6878C40.255 53.6878 39.9526 53.6128 39.6895 53.4627C39.4286 53.3104 39.2232 53.0853 39.0732 52.7876C38.9254 52.4898 38.8516 52.1216 38.8516 51.6831V48.3003H39.8868V51.5584C39.8868 51.9208 39.9872 52.2094 40.188 52.424C40.3889 52.6387 40.6497 52.746 40.9705 52.746C41.1644 52.746 41.3572 52.6975 41.5488 52.6006C41.7426 52.5037 41.9031 52.3571 42.03 52.1609C42.1593 51.9647 42.2228 51.7154 42.2204 51.413ZM46.1978 53.7363C45.8608 53.7363 45.5561 53.6739 45.2838 53.5493C45.0114 53.4223 44.7956 53.2388 44.6363 52.9988C44.4793 52.7587 44.4009 52.4644 44.4009 52.1159C44.4009 51.8158 44.4586 51.5688 44.574 51.3749C44.6894 51.181 44.8452 51.0275 45.0414 50.9144C45.2376 50.8013 45.4569 50.7159 45.6993 50.6582C45.9416 50.6005 46.1886 50.5567 46.4402 50.5266C46.7587 50.4897 47.0173 50.4597 47.2158 50.4366C47.4143 50.4112 47.5585 50.3708 47.6486 50.3154C47.7386 50.26 47.7836 50.17 47.7836 50.0454V50.0211C47.7836 49.7188 47.6982 49.4845 47.5274 49.3183C47.3589 49.1521 47.1073 49.069 46.7726 49.069C46.424 49.069 46.1494 49.1463 45.9485 49.301C45.75 49.4533 45.6127 49.623 45.5365 49.8099L44.5636 49.5883C44.679 49.2652 44.8475 49.0044 45.0691 48.8059C45.293 48.605 45.5504 48.4596 45.8412 48.3696C46.132 48.2773 46.4379 48.2311 46.7587 48.2311C46.9711 48.2311 47.1961 48.2565 47.4339 48.3073C47.674 48.3557 47.8978 48.4458 48.1056 48.5773C48.3156 48.7089 48.4876 48.897 48.6215 49.1417C48.7554 49.3841 48.8223 49.6991 48.8223 50.0869V53.6185H47.8113V52.8914H47.7697C47.7028 53.0253 47.6024 53.1569 47.4685 53.2861C47.3346 53.4154 47.1627 53.5227 46.9526 53.6081C46.7426 53.6935 46.491 53.7363 46.1978 53.7363ZM46.4229 52.9053C46.7091 52.9053 46.9538 52.8487 47.1569 52.7356C47.3623 52.6225 47.5181 52.4748 47.6243 52.2924C47.7328 52.1078 47.7871 51.9104 47.7871 51.7004V51.0148C47.7501 51.0518 47.6786 51.0864 47.5724 51.1187C47.4685 51.1487 47.3496 51.1753 47.2158 51.1983C47.0819 51.2191 46.9515 51.2387 46.8245 51.2572C46.6976 51.2734 46.5914 51.2872 46.506 51.2988C46.3052 51.3241 46.1217 51.3668 45.9555 51.4269C45.7916 51.4869 45.66 51.5734 45.5608 51.6865C45.4638 51.7973 45.4153 51.9451 45.4153 52.1297C45.4153 52.3859 45.51 52.5798 45.6993 52.7114C45.8885 52.8407 46.1297 52.9053 46.4229 52.9053ZM51.2364 46.5276V53.6185H50.2012V46.5276H51.2364ZM52.6292 53.6185V48.3003H53.6644V53.6185H52.6292ZM53.152 47.4798C52.9719 47.4798 52.8173 47.4198 52.688 47.2997C52.5611 47.1774 52.4976 47.032 52.4976 46.8635C52.4976 46.6927 52.5611 46.5472 52.688 46.4272C52.8173 46.3049 52.9719 46.2437 53.152 46.2437C53.332 46.2437 53.4855 46.3049 53.6125 46.4272C53.7417 46.5472 53.8064 46.6927 53.8064 46.8635C53.8064 47.032 53.7417 47.1774 53.6125 47.2997C53.4855 47.4198 53.332 47.4798 53.152 47.4798ZM57.5397 48.3003V49.1313H54.6347V48.3003H57.5397ZM55.4138 47.0262H56.449V52.057C56.449 52.2578 56.479 52.409 56.539 52.5106C56.599 52.6098 56.6764 52.6779 56.771 52.7149C56.868 52.7495 56.973 52.7668 57.0861 52.7668C57.1692 52.7668 57.2419 52.761 57.3042 52.7495C57.3665 52.7379 57.415 52.7287 57.4496 52.7218L57.6366 53.577C57.5766 53.6001 57.4912 53.6231 57.3804 53.6462C57.2696 53.6716 57.1311 53.6855 56.9649 53.6878C56.6925 53.6924 56.4386 53.6439 56.2032 53.5424C55.9677 53.4408 55.7773 53.2838 55.6319 53.0715C55.4865 52.8591 55.4138 52.5925 55.4138 52.2717V47.0262ZM59.3392 55.6128C59.1846 55.6128 59.0438 55.6002 58.9168 55.5748C58.7899 55.5517 58.6952 55.5263 58.6329 55.4986L58.8822 54.6503C59.0715 54.7011 59.24 54.723 59.3877 54.7161C59.5354 54.7092 59.6658 54.6538 59.7789 54.5499C59.8943 54.446 59.9959 54.2764 60.0836 54.0409L60.2117 53.6878L58.2659 48.3003H59.3738L60.7207 52.4275H60.7761L62.1229 48.3003H63.2344L61.0427 54.3283C60.9411 54.6053 60.8119 54.8396 60.6549 55.0312C60.4979 55.2251 60.311 55.3705 60.094 55.4674C59.877 55.5644 59.6254 55.6128 59.3392 55.6128Z" fill="black"/>
</svg>
