<svg width="48" height="71" viewBox="0 0 48 71" fill="none" xmlns="http://www.w3.org/2000/svg">
<rect width="48" height="48" rx="16" fill="#006BB2"/>
<path d="M31.11 17H33V15H15V17H16.89C15.0398 18.86 14.0008 21.3765 14 24C14 27.97 16.31 31.39 19.66 33H28.34C30.0362 32.1864 31.4678 30.9096 32.4693 29.3171C33.4708 27.7246 34.0015 25.8813 34 24C34 21.27 32.89 18.8 31.11 17ZM18.32 18.41L19.7 17H28.3L29.68 18.41C30.2241 18.9531 30.6857 19.573 31.05 20.25C29.9511 20.0723 28.9076 19.6446 28 19C25.56 20.71 22.44 20.71 20 19C19.06 19.66 18 20.09 16.95 20.25C17.31 19.58 17.77 18.96 18.32 18.41ZM27.85 31H20.15C18.8904 30.317 17.8394 29.3055 17.1086 28.0729C16.3779 26.8404 15.9948 25.4329 16 24C16 23.43 16.07 22.86 16.19 22.32C17.5188 22.284 18.8218 21.9454 20 21.33C22.5 22.63 25.5 22.63 28 21.33C29.2 21.95 30.5 22.29 31.81 22.32C31.93 22.86 32 23.43 32 24C32.0052 25.4329 31.6221 26.8404 30.8914 28.0729C30.1606 29.3055 29.1096 30.317 27.85 31ZM29 26.5C29 27.88 27.32 29 25.25 29C24.09 29 23.06 28.64 22.33 28.16C21.67 29 20.33 29 19 29C20.1 29 20.5 27.88 20.5 26.5C20.5 25.12 20.1 24 19 24C20.33 24 21.67 24 22.37 24.91C23.06 24.36 24.09 24 25.25 24C27.32 24 29 25.12 29 26.5Z" fill="#F8F8F8"/>
<path d="M5.03871 68V58.5455H8.40874C9.14429 58.5455 9.75367 58.6793 10.2369 58.9471C10.7201 59.2148 11.0817 59.5811 11.3217 60.0458C11.5618 60.5075 11.6818 61.0276 11.6818 61.6062C11.6818 62.1879 11.5603 62.7111 11.3171 63.1758C11.0771 63.6374 10.7139 64.0037 10.2276 64.2745C9.74444 64.5423 9.1366 64.6761 8.40412 64.6761H6.08665V63.4666H8.27486C8.73958 63.4666 9.1166 63.3866 9.4059 63.2266C9.69519 63.0634 9.90755 62.8419 10.043 62.5618C10.1784 62.2817 10.2461 61.9632 10.2461 61.6062C10.2461 61.2492 10.1784 60.9322 10.043 60.6552C9.90755 60.3782 9.69366 60.1612 9.40128 60.0043C9.11198 59.8473 8.73035 59.7688 8.25639 59.7688H6.4652V68H5.03871ZM16.1413 68.1431C15.4766 68.1431 14.8964 67.9908 14.4009 67.6861C13.9054 67.3814 13.5207 66.9551 13.2468 66.4073C12.9729 65.8595 12.8359 65.2193 12.8359 64.4869C12.8359 63.7513 12.9729 63.1081 13.2468 62.5572C13.5207 62.0063 13.9054 61.5785 14.4009 61.2738C14.8964 60.9691 15.4766 60.8168 16.1413 60.8168C16.8061 60.8168 17.3862 60.9691 17.8817 61.2738C18.3772 61.5785 18.762 62.0063 19.0359 62.5572C19.3098 63.1081 19.4467 63.7513 19.4467 64.4869C19.4467 65.2193 19.3098 65.8595 19.0359 66.4073C18.762 66.9551 18.3772 67.3814 17.8817 67.6861C17.3862 67.9908 16.8061 68.1431 16.1413 68.1431ZM16.146 66.9844C16.5768 66.9844 16.9338 66.8705 17.217 66.6428C17.5001 66.415 17.7094 66.1119 17.8448 65.7333C17.9833 65.3548 18.0526 64.9377 18.0526 64.4822C18.0526 64.0298 17.9833 63.6143 17.8448 63.2358C17.7094 62.8542 17.5001 62.5479 17.217 62.3171C16.9338 62.0863 16.5768 61.9709 16.146 61.9709C15.712 61.9709 15.3519 62.0863 15.0657 62.3171C14.7826 62.5479 14.5717 62.8542 14.4332 63.2358C14.2978 63.6143 14.2301 64.0298 14.2301 64.4822C14.2301 64.9377 14.2978 65.3548 14.4332 65.7333C14.5717 66.1119 14.7826 66.415 15.0657 66.6428C15.3519 66.8705 15.712 66.9844 16.146 66.9844ZM22.3678 63.7898V68H20.9875V60.9091H22.3124V62.0632H22.4001C22.5632 61.6877 22.8187 61.3861 23.1665 61.1584C23.5173 60.9306 23.959 60.8168 24.4914 60.8168C24.9746 60.8168 25.3978 60.9183 25.7609 61.1214C26.1241 61.3215 26.4057 61.62 26.6057 62.017C26.8058 62.4141 26.9058 62.9049 26.9058 63.4897V68H25.5255V63.6559C25.5255 63.1419 25.3916 62.7403 25.1238 62.451C24.8561 62.1586 24.4883 62.0124 24.0205 62.0124C23.7004 62.0124 23.4157 62.0817 23.1665 62.2202C22.9202 62.3587 22.7248 62.5618 22.5802 62.8295C22.4386 63.0942 22.3678 63.4143 22.3678 63.7898ZM31.4115 68.1385C30.839 68.1385 30.3282 67.9923 29.8788 67.6999C29.4326 67.4045 29.0817 66.9844 28.8263 66.4396C28.5739 65.8918 28.4477 65.2347 28.4477 64.4684C28.4477 63.7021 28.5754 63.0465 28.8309 62.5018C29.0894 61.957 29.4433 61.54 29.8927 61.2507C30.342 60.9614 30.8514 60.8168 31.4207 60.8168C31.8608 60.8168 32.2148 60.8906 32.4825 61.0384C32.7533 61.183 32.9626 61.3523 33.1104 61.5462C33.2612 61.7401 33.3781 61.9109 33.4612 62.0586H33.5443V58.5455H34.9246V68H33.5766V66.8967H33.4612C33.3781 67.0475 33.2581 67.2198 33.1011 67.4137C32.9472 67.6076 32.7349 67.7769 32.464 67.9215C32.1932 68.0662 31.8424 68.1385 31.4115 68.1385ZM31.7162 66.9613C32.1132 66.9613 32.4487 66.8567 32.7226 66.6474C32.9996 66.435 33.2088 66.1411 33.3504 65.7656C33.4951 65.3902 33.5674 64.9531 33.5674 64.4545C33.5674 63.9621 33.4966 63.5312 33.355 63.1619C33.2135 62.7926 33.0057 62.5049 32.7318 62.2987C32.4579 62.0924 32.1193 61.9893 31.7162 61.9893C31.3007 61.9893 30.9545 62.0971 30.6775 62.3125C30.4005 62.5279 30.1912 62.8219 30.0496 63.1942C29.9111 63.5666 29.8419 63.9867 29.8419 64.4545C29.8419 64.9285 29.9127 65.3548 30.0542 65.7333C30.1958 66.1119 30.4051 66.4119 30.6821 66.6335C30.9622 66.852 31.3068 66.9613 31.7162 66.9613ZM42.2083 62.6403L40.9572 62.8619C40.9049 62.7018 40.8218 62.5495 40.7079 62.4048C40.5971 62.2602 40.4463 62.1417 40.2555 62.0494C40.0647 61.957 39.8262 61.9109 39.54 61.9109C39.1491 61.9109 38.8229 61.9986 38.5613 62.174C38.2997 62.3464 38.1689 62.5695 38.1689 62.8434C38.1689 63.0804 38.2566 63.2712 38.432 63.4158C38.6074 63.5605 38.8906 63.679 39.2814 63.7713L40.4078 64.0298C41.0603 64.1806 41.5466 64.413 41.8667 64.7269C42.1867 65.0408 42.3468 65.4486 42.3468 65.9503C42.3468 66.375 42.2237 66.7536 41.9775 67.0859C41.7343 67.4152 41.3942 67.6738 40.9572 67.8615C40.5233 68.0492 40.0201 68.1431 39.4476 68.1431C38.6536 68.1431 38.0057 67.9738 37.5041 67.6353C37.0024 67.2937 36.6947 66.8089 36.5808 66.1811L37.915 65.978C37.998 66.3258 38.1689 66.5889 38.4274 66.7674C38.6859 66.9428 39.0229 67.0305 39.4384 67.0305C39.8908 67.0305 40.2524 66.9367 40.5233 66.7489C40.7941 66.5581 40.9295 66.3258 40.9295 66.0518C40.9295 65.8303 40.8464 65.6441 40.6802 65.4933C40.5171 65.3424 40.2663 65.2286 39.9277 65.1516L38.7275 64.8885C38.0658 64.7377 37.5764 64.4976 37.2594 64.1683C36.9455 63.839 36.7885 63.422 36.7885 62.9173C36.7885 62.4987 36.9055 62.1325 37.1394 61.8185C37.3733 61.5046 37.6964 61.2599 38.1088 61.0845C38.5212 60.906 38.9937 60.8168 39.5261 60.8168C40.2924 60.8168 40.8957 60.983 41.3358 61.3153C41.7759 61.6446 42.0667 62.0863 42.2083 62.6403Z" fill="black"/>
</svg>
