<svg width="48" height="71" viewBox="0 0 48 71" fill="none" xmlns="http://www.w3.org/2000/svg">
<rect width="48" height="48" rx="16" fill="#006BB2"/>
<path fill-rule="evenodd" clip-rule="evenodd" d="M17.75 30.875C17.5842 30.875 17.4253 30.8092 17.3081 30.6919C17.1908 30.5747 17.125 30.4158 17.125 30.25V17.75C17.125 17.5842 17.1908 17.4253 17.3081 17.3081C17.4253 17.1908 17.5842 17.125 17.75 17.125H29.3125C29.5611 17.125 29.7996 17.0262 29.9754 16.8504C30.1512 16.6746 30.25 16.4361 30.25 16.1875C30.25 15.9389 30.1512 15.7004 29.9754 15.5246C29.7996 15.3488 29.5611 15.25 29.3125 15.25H17.75C17.087 15.25 16.4511 15.5134 15.9822 15.9822C15.5134 16.4511 15.25 17.087 15.25 17.75V30.25C15.25 30.913 15.5134 31.5489 15.9822 32.0178C16.4511 32.4866 17.087 32.75 17.75 32.75H30.25C30.913 32.75 31.5489 32.4866 32.0178 32.0178C32.4866 31.5489 32.75 30.913 32.75 30.25V26.1875C32.75 25.9389 32.6512 25.7004 32.4754 25.5246C32.2996 25.3488 32.0611 25.25 31.8125 25.25C31.5639 25.25 31.3254 25.3488 31.1496 25.5246C30.9738 25.7004 30.875 25.9389 30.875 26.1875V30.25C30.875 30.4158 30.8092 30.5747 30.6919 30.6919C30.5747 30.8092 30.4158 30.875 30.25 30.875H17.75ZM33.725 19.85C33.8906 19.6723 33.9808 19.4372 33.9765 19.1943C33.9722 18.9515 33.8738 18.7197 33.702 18.548C33.5303 18.3762 33.2985 18.2778 33.0557 18.2735C32.8128 18.2692 32.5777 18.3594 32.4 18.525L25.4525 25.4713L23.1112 23.0513C23.0258 22.962 22.9236 22.8905 22.8105 22.8409C22.6973 22.7913 22.5755 22.7645 22.452 22.7621C22.3284 22.7597 22.2057 22.7818 22.0907 22.827C21.9757 22.8723 21.8708 22.9398 21.7821 23.0257C21.6933 23.1116 21.6223 23.2142 21.5733 23.3276C21.5243 23.441 21.4982 23.563 21.4965 23.6865C21.4948 23.8101 21.5176 23.9327 21.5634 24.0474C21.6093 24.1622 21.6774 24.2667 21.7638 24.355L24.7675 27.46C24.8539 27.5496 24.9573 27.6212 25.0717 27.6704C25.1861 27.7196 25.3091 27.7456 25.4336 27.7467C25.5581 27.7479 25.6816 27.7243 25.7969 27.6772C25.9122 27.6301 26.0169 27.5605 26.105 27.4725L33.725 19.85Z" fill="white"/>
<path d="M6.57244 59.7734V58.5455H13.8896V59.7734H10.9396V68H9.51776V59.7734H6.57244ZM17.3542 68.1431C16.6895 68.1431 16.1093 67.9908 15.6138 67.6861C15.1183 67.3814 14.7336 66.9551 14.4597 66.4073C14.1858 65.8595 14.0488 65.2193 14.0488 64.4869C14.0488 63.7513 14.1858 63.1081 14.4597 62.5572C14.7336 62.0063 15.1183 61.5785 15.6138 61.2738C16.1093 60.9691 16.6895 60.8168 17.3542 60.8168C18.019 60.8168 18.5991 60.9691 19.0946 61.2738C19.5901 61.5785 19.9748 62.0063 20.2488 62.5572C20.5227 63.1081 20.6596 63.7513 20.6596 64.4869C20.6596 65.2193 20.5227 65.8595 20.2488 66.4073C19.9748 66.9551 19.5901 67.3814 19.0946 67.6861C18.5991 67.9908 18.019 68.1431 17.3542 68.1431ZM17.3588 66.9844C17.7897 66.9844 18.1467 66.8705 18.4299 66.6428C18.713 66.415 18.9223 66.1119 19.0577 65.7333C19.1962 65.3548 19.2654 64.9377 19.2654 64.4822C19.2654 64.0298 19.1962 63.6143 19.0577 63.2358C18.9223 62.8542 18.713 62.5479 18.4299 62.3171C18.1467 62.0863 17.7897 61.9709 17.3588 61.9709C16.9249 61.9709 16.5648 62.0863 16.2786 62.3171C15.9954 62.5479 15.7846 62.8542 15.6461 63.2358C15.5107 63.6143 15.443 64.0298 15.443 64.4822C15.443 64.9377 15.5107 65.3548 15.6461 65.7333C15.7846 66.1119 15.9954 66.415 16.2786 66.6428C16.5648 66.8705 16.9249 66.9844 17.3588 66.9844ZM28.8123 68H25.7516V58.5455H28.9093C29.8356 58.5455 30.6312 58.7347 31.296 59.1133C31.9608 59.4888 32.4701 60.0289 32.824 60.7337C33.181 61.4354 33.3596 62.2771 33.3596 63.2589C33.3596 64.2437 33.1795 65.0901 32.8194 65.7979C32.4624 66.5058 31.9454 67.0505 31.2683 67.4322C30.5912 67.8107 29.7725 68 28.8123 68ZM27.1781 66.7536H28.7338C29.454 66.7536 30.0526 66.6181 30.5297 66.3473C31.0067 66.0734 31.3637 65.6779 31.6007 65.1609C31.8377 64.6407 31.9561 64.0067 31.9561 63.2589C31.9561 62.5172 31.8377 61.8878 31.6007 61.3707C31.3668 60.8537 31.0175 60.4613 30.5527 60.1935C30.088 59.9258 29.5109 59.7919 28.8216 59.7919H27.1781V66.7536ZM38.0095 68.1431C37.3447 68.1431 36.7646 67.9908 36.2691 67.6861C35.7736 67.3814 35.3889 66.9551 35.115 66.4073C34.8411 65.8595 34.7041 65.2193 34.7041 64.4869C34.7041 63.7513 34.8411 63.1081 35.115 62.5572C35.3889 62.0063 35.7736 61.5785 36.2691 61.2738C36.7646 60.9691 37.3447 60.8168 38.0095 60.8168C38.6743 60.8168 39.2544 60.9691 39.7499 61.2738C40.2454 61.5785 40.6301 62.0063 40.904 62.5572C41.1779 63.1081 41.3149 63.7513 41.3149 64.4869C41.3149 65.2193 41.1779 65.8595 40.904 66.4073C40.6301 66.9551 40.2454 67.3814 39.7499 67.6861C39.2544 67.9908 38.6743 68.1431 38.0095 68.1431ZM38.0141 66.9844C38.445 66.9844 38.802 66.8705 39.0851 66.6428C39.3683 66.415 39.5776 66.1119 39.713 65.7333C39.8515 65.3548 39.9207 64.9377 39.9207 64.4822C39.9207 64.0298 39.8515 63.6143 39.713 63.2358C39.5776 62.8542 39.3683 62.5479 39.0851 62.3171C38.802 62.0863 38.445 61.9709 38.0141 61.9709C37.5802 61.9709 37.2201 62.0863 36.9339 62.3171C36.6507 62.5479 36.4399 62.8542 36.3014 63.2358C36.166 63.6143 36.0983 64.0298 36.0983 64.4822C36.0983 64.9377 36.166 65.3548 36.3014 65.7333C36.4399 66.1119 36.6507 66.415 36.9339 66.6428C37.2201 66.8705 37.5802 66.9844 38.0141 66.9844Z" fill="black"/>
</svg>
