<svg width="66" height="71" viewBox="0 0 66 71" fill="none" xmlns="http://www.w3.org/2000/svg">
<rect x="8" width="48" height="48" rx="16" fill="#006BB2"/>
<path d="M26 28.5L23 31.44V23H26M31 26.66L29.43 25.32L28 26.64V19H31M36 25L33 28V15H36M38.81 24.81L37 23H42V28L40.21 26.21L33 33.36L29.53 30.34L25.75 34H23L29.47 27.66L33 30.64" fill="white"/>
<path d="M6.19531 61.0291C6.14607 60.5921 5.94295 60.2536 5.58594 60.0135C5.22893 59.7704 4.77959 59.6488 4.23793 59.6488C3.85014 59.6488 3.51468 59.7103 3.23153 59.8335C2.94839 59.9535 2.72834 60.1197 2.57138 60.332C2.4175 60.5413 2.34055 60.7798 2.34055 61.0476C2.34055 61.2723 2.39287 61.4661 2.49751 61.6293C2.60523 61.7924 2.74527 61.9293 2.91761 62.0401C3.09304 62.1478 3.28078 62.2386 3.48082 62.3125C3.68087 62.3833 3.87322 62.4418 4.05788 62.4879L4.98118 62.728C5.28279 62.8018 5.59209 62.9019 5.90909 63.0281C6.22609 63.1542 6.52001 63.3204 6.79084 63.5266C7.06167 63.7328 7.28018 63.9883 7.44638 64.293C7.61565 64.5977 7.70028 64.9624 7.70028 65.3871C7.70028 65.9226 7.56179 66.3981 7.2848 66.8136C7.01089 67.229 6.61233 67.5568 6.08913 67.7969C5.56901 68.0369 4.93963 68.157 4.20099 68.157C3.49313 68.157 2.88068 68.0446 2.36364 67.82C1.84659 67.5953 1.44188 67.2768 1.1495 66.8643C0.857126 66.4489 0.695549 65.9564 0.664773 65.3871H2.09588C2.12358 65.7287 2.23438 66.0134 2.42827 66.2411C2.62524 66.4658 2.87607 66.6335 3.18075 66.7443C3.48852 66.852 3.82552 66.9059 4.19176 66.9059C4.59493 66.9059 4.95348 66.8428 5.2674 66.7166C5.5844 66.5874 5.83369 66.4089 6.01527 66.1811C6.19685 65.9503 6.28764 65.681 6.28764 65.3732C6.28764 65.0932 6.20762 64.8639 6.04759 64.6854C5.89063 64.5069 5.67673 64.3591 5.4059 64.2422C5.13814 64.1252 4.83499 64.0221 4.49645 63.9329L3.37926 63.6282C2.62216 63.422 2.02202 63.1188 1.57884 62.7188C1.13873 62.3187 0.918679 61.7893 0.918679 61.1307C0.918679 60.5859 1.06641 60.1104 1.36186 59.7042C1.65732 59.2979 2.05741 58.9825 2.56215 58.7578C3.06688 58.5301 3.63625 58.4162 4.27024 58.4162C4.91039 58.4162 5.47514 58.5285 5.96449 58.7532C6.45691 58.9779 6.8447 59.2872 7.12784 59.6811C7.41099 60.072 7.55871 60.5213 7.57102 61.0291H6.19531ZM9.29412 68V60.9091H10.6744V68H9.29412ZM9.99121 59.815C9.75115 59.815 9.54495 59.735 9.3726 59.5749C9.20333 59.4118 9.1187 59.2179 9.1187 58.9933C9.1187 58.7655 9.20333 58.5716 9.3726 58.4116C9.54495 58.2485 9.75115 58.1669 9.99121 58.1669C10.2313 58.1669 10.4359 58.2485 10.6052 58.4116C10.7776 58.5716 10.8637 58.7655 10.8637 58.9933C10.8637 59.2179 10.7776 59.4118 10.6052 59.5749C10.4359 59.735 10.2313 59.815 9.99121 59.815ZM12.5314 68V60.9091H13.8564V62.0632H13.9441C14.0918 61.6723 14.3334 61.3677 14.6689 61.1491C15.0043 60.9276 15.406 60.8168 15.8738 60.8168C16.3477 60.8168 16.7447 60.9276 17.0648 61.1491C17.388 61.3707 17.6265 61.6754 17.7804 62.0632H17.8542C18.0235 61.6847 18.2928 61.383 18.6621 61.1584C19.0314 60.9306 19.4715 60.8168 19.9824 60.8168C20.6257 60.8168 21.1504 61.0183 21.5566 61.4215C21.966 61.8247 22.1706 62.4325 22.1706 63.245V68H20.7903V63.3743C20.7903 62.8942 20.6595 62.5464 20.3979 62.331C20.1363 62.1155 19.8239 62.0078 19.4608 62.0078C19.0114 62.0078 18.6621 62.1463 18.4128 62.4233C18.1635 62.6972 18.0389 63.0496 18.0389 63.4805V68H16.6632V63.2866C16.6632 62.9019 16.5431 62.5926 16.3031 62.3587C16.063 62.1248 15.7507 62.0078 15.3659 62.0078C15.1043 62.0078 14.8627 62.0771 14.6412 62.2156C14.4226 62.351 14.2457 62.5402 14.1103 62.7834C13.9779 63.0265 13.9118 63.3081 13.9118 63.6282V68H12.5314ZM28.5125 65.0593V60.9091H29.8975V68H28.5402V66.772H28.4664C28.3032 67.1506 28.0416 67.466 27.6816 67.7184C27.3245 67.9677 26.8798 68.0923 26.3474 68.0923C25.8919 68.0923 25.4887 67.9923 25.1379 67.7923C24.7901 67.5891 24.5162 67.2891 24.3161 66.892C24.1192 66.495 24.0207 66.0041 24.0207 65.4194V60.9091H25.401V65.2532C25.401 65.7364 25.5349 66.1211 25.8026 66.4073C26.0704 66.6935 26.4182 66.8366 26.846 66.8366C27.1045 66.8366 27.3615 66.772 27.6169 66.6428C27.8754 66.5135 28.0893 66.3181 28.2586 66.0565C28.431 65.7949 28.5156 65.4625 28.5125 65.0593ZM33.1325 58.5455V68H31.7521V58.5455H33.1325ZM37.053 68.157C36.6037 68.157 36.1974 68.0739 35.8343 67.9077C35.4711 67.7384 35.1833 67.4937 34.971 67.1737C34.7617 66.8536 34.657 66.4612 34.657 65.9964C34.657 65.5964 34.734 65.267 34.8879 65.0085C35.0418 64.75 35.2495 64.5453 35.5111 64.3945C35.7727 64.2437 36.0651 64.1299 36.3882 64.0529C36.7114 63.976 37.0407 63.9175 37.3762 63.8775C37.8009 63.8282 38.1456 63.7882 38.4102 63.7575C38.6749 63.7236 38.8673 63.6697 38.9873 63.5959C39.1073 63.522 39.1673 63.402 39.1673 63.2358V63.2035C39.1673 62.8003 39.0535 62.4879 38.8257 62.2663C38.6011 62.0447 38.2656 61.9339 37.8193 61.9339C37.3546 61.9339 36.9884 62.037 36.7206 62.2433C36.4559 62.4464 36.2728 62.6726 36.1713 62.9219L34.874 62.6264C35.0279 62.1955 35.2526 61.8478 35.548 61.5831C35.8466 61.3153 36.1897 61.1214 36.5775 61.0014C36.9653 60.8783 37.3731 60.8168 37.8009 60.8168C38.084 60.8168 38.3841 60.8506 38.7011 60.9183C39.0212 60.983 39.3197 61.103 39.5967 61.2784C39.8767 61.4538 40.106 61.7047 40.2845 62.0309C40.463 62.354 40.5523 62.7741 40.5523 63.2912V68H39.2043V67.0305H39.1489C39.0596 67.209 38.9258 67.3845 38.7472 67.5568C38.5687 67.7292 38.3395 67.8723 38.0594 67.9862C37.7793 68.1 37.4439 68.157 37.053 68.157ZM37.3531 67.049C37.7347 67.049 38.0609 66.9736 38.3318 66.8228C38.6057 66.672 38.8134 66.475 38.955 66.2319C39.0996 65.9857 39.172 65.7225 39.172 65.4425V64.5284C39.1227 64.5777 39.0273 64.6238 38.8857 64.6669C38.7472 64.7069 38.5887 64.7423 38.4102 64.7731C38.2317 64.8008 38.0579 64.8269 37.8886 64.8516C37.7193 64.8731 37.5777 64.8916 37.4639 64.907C37.1961 64.9408 36.9514 64.9978 36.7298 65.0778C36.5113 65.1578 36.3359 65.2732 36.2036 65.424C36.0743 65.5717 36.0097 65.7687 36.0097 66.0149C36.0097 66.3565 36.1359 66.6151 36.3882 66.7905C36.6406 66.9628 36.9622 67.049 37.3531 67.049ZM45.7008 60.9091V62.017H41.8276V60.9091H45.7008ZM42.8663 59.2102H44.2466V65.918C44.2466 66.1857 44.2866 66.3873 44.3667 66.5227C44.4467 66.6551 44.5498 66.7459 44.676 66.7951C44.8052 66.8413 44.9453 66.8643 45.0961 66.8643C45.2069 66.8643 45.3038 66.8567 45.3869 66.8413C45.47 66.8259 45.5346 66.8136 45.5808 66.8043L45.8301 67.9446C45.7501 67.9754 45.6362 68.0062 45.4885 68.0369C45.3407 68.0708 45.1561 68.0893 44.9345 68.0923C44.5713 68.0985 44.2328 68.0339 43.9189 67.8984C43.6049 67.763 43.351 67.5537 43.1571 67.2706C42.9632 66.9875 42.8663 66.632 42.8663 66.2042V59.2102ZM50.1384 68.1431C49.4736 68.1431 48.8935 67.9908 48.398 67.6861C47.9025 67.3814 47.5178 66.9551 47.2439 66.4073C46.97 65.8595 46.833 65.2193 46.833 64.4869C46.833 63.7513 46.97 63.1081 47.2439 62.5572C47.5178 62.0063 47.9025 61.5785 48.398 61.2738C48.8935 60.9691 49.4736 60.8168 50.1384 60.8168C50.8032 60.8168 51.3833 60.9691 51.8788 61.2738C52.3743 61.5785 52.759 62.0063 53.0329 62.5572C53.3068 63.1081 53.4438 63.7513 53.4438 64.4869C53.4438 65.2193 53.3068 65.8595 53.0329 66.4073C52.759 66.9551 52.3743 67.3814 51.8788 67.6861C51.3833 67.9908 50.8032 68.1431 50.1384 68.1431ZM50.143 66.9844C50.5739 66.9844 50.9309 66.8705 51.214 66.6428C51.4972 66.415 51.7065 66.1119 51.8419 65.7333C51.9804 65.3548 52.0496 64.9377 52.0496 64.4822C52.0496 64.0298 51.9804 63.6143 51.8419 63.2358C51.7065 62.8542 51.4972 62.5479 51.214 62.3171C50.9309 62.0863 50.5739 61.9709 50.143 61.9709C49.7091 61.9709 49.349 62.0863 49.0628 62.3171C48.7796 62.5479 48.5688 62.8542 48.4303 63.2358C48.2949 63.6143 48.2272 64.0298 48.2272 64.4822C48.2272 64.9377 48.2949 65.3548 48.4303 65.7333C48.5688 66.1119 48.7796 66.415 49.0628 66.6428C49.349 66.8705 49.7091 66.9844 50.143 66.9844ZM54.9846 68V60.9091H56.3649V68H54.9846ZM55.6816 59.815C55.4416 59.815 55.2354 59.735 55.063 59.5749C54.8938 59.4118 54.8091 59.2179 54.8091 58.9933C54.8091 58.7655 54.8938 58.5716 55.063 58.4116C55.2354 58.2485 55.4416 58.1669 55.6816 58.1669C55.9217 58.1669 56.1264 58.2485 56.2956 58.4116C56.468 58.5716 56.5542 58.7655 56.5542 58.9933C56.5542 59.2179 56.468 59.4118 56.2956 59.5749C56.1264 59.735 55.9217 59.815 55.6816 59.815ZM59.6022 63.7898V68H58.2219V60.9091H59.5468V62.0632H59.6345C59.7976 61.6877 60.0531 61.3861 60.4008 61.1584C60.7517 60.9306 61.1933 60.8168 61.7258 60.8168C62.209 60.8168 62.6321 60.9183 62.9953 61.1214C63.3585 61.3215 63.6401 61.62 63.8401 62.017C64.0402 62.4141 64.1402 62.9049 64.1402 63.4897V68H62.7599V63.6559C62.7599 63.1419 62.626 62.7403 62.3582 62.451C62.0905 62.1586 61.7227 62.0124 61.2549 62.0124C60.9348 62.0124 60.6501 62.0817 60.4008 62.2202C60.1546 62.3587 59.9592 62.5618 59.8145 62.8295C59.673 63.0942 59.6022 63.4143 59.6022 63.7898Z" fill="black"/>
</svg>
