<svg width="49" height="71" viewBox="0 0 49 71" fill="none" xmlns="http://www.w3.org/2000/svg">
<rect x="0.5" width="48" height="48" rx="16" fill="#006BB2"/>
<path fill-rule="evenodd" clip-rule="evenodd" d="M23.738 14.799C23.124 14.88 22.366 15.054 21.288 15.303L20.059 15.587C19.149 15.797 18.521 15.943 18.042 16.107C17.579 16.266 17.317 16.422 17.12 16.62C16.922 16.817 16.766 17.079 16.607 17.542C16.443 18.021 16.297 18.648 16.087 19.559L15.803 20.787C15.554 21.866 15.38 22.624 15.299 23.238C15.219 23.836 15.238 24.241 15.344 24.609C15.449 24.977 15.648 25.33 16.032 25.795C16.427 26.273 16.976 26.824 17.759 27.607L19.589 29.437C20.948 30.796 21.915 31.761 22.747 32.395C23.561 33.017 24.157 33.25 24.762 33.25C25.368 33.25 25.963 33.017 26.778 32.395C27.609 31.761 28.577 30.795 29.936 29.436C31.296 28.076 32.261 27.109 32.896 26.278C33.516 25.463 33.75 24.868 33.75 24.262C33.75 23.657 33.517 23.062 32.895 22.247C32.261 21.415 31.295 20.447 29.936 19.088L28.106 17.258C27.324 16.476 26.773 15.927 26.296 15.532C25.83 15.148 25.477 14.949 25.109 14.844C24.741 14.738 24.336 14.72 23.739 14.799H23.738ZM23.542 13.312C24.259 13.217 24.888 13.22 25.522 13.402C26.157 13.584 26.692 13.915 27.25 14.375C27.79 14.821 28.39 15.421 29.141 16.172L31.037 18.068C32.347 19.378 33.385 20.416 34.087 21.338C34.811 22.285 35.25 23.197 35.25 24.262C35.25 25.328 34.811 26.24 34.088 27.187C33.385 28.109 32.348 29.147 31.037 30.457L30.957 30.537C29.647 31.847 28.609 32.885 27.687 33.587C26.74 34.311 25.827 34.75 24.762 34.75C23.697 34.75 22.785 34.311 21.837 33.588C20.916 32.885 19.878 31.848 18.567 30.537L16.673 28.64C15.923 27.89 15.322 27.289 14.876 26.75C14.416 26.191 14.085 25.656 13.903 25.022C13.721 24.387 13.718 23.758 13.813 23.041C13.904 22.347 14.096 21.519 14.334 20.485L14.634 19.182C14.834 18.319 14.996 17.615 15.189 17.054C15.391 16.467 15.644 15.974 16.06 15.558C16.476 15.142 16.97 14.888 17.556 14.688C18.117 14.494 18.821 14.332 19.684 14.133L20.987 13.833C22.021 13.593 22.849 13.403 23.543 13.311L23.542 13.312ZM21.99 19.995C21.7555 19.7605 21.4376 19.6288 21.106 19.6288C20.7744 19.6288 20.4564 19.7605 20.222 19.995C19.9875 20.2295 19.8558 20.5474 19.8558 20.879C19.8558 21.2106 19.9875 21.5285 20.222 21.763C20.3381 21.8791 20.4759 21.9712 20.6276 22.034C20.7793 22.0968 20.9418 22.1292 21.106 22.1292C21.2702 22.1292 21.4327 22.0968 21.5844 22.034C21.7361 21.9712 21.8739 21.8791 21.99 21.763C22.1061 21.6469 22.1982 21.5091 22.261 21.3574C22.3238 21.2057 22.3562 21.0432 22.3562 20.879C22.3562 20.7148 22.3238 20.5523 22.261 20.4006C22.1982 20.2489 22.1061 20.1111 21.99 19.995ZM19.161 18.935C19.6767 18.4192 20.3762 18.1293 21.1056 18.1292C21.8351 18.1291 22.5346 18.4188 23.0505 18.9345C23.5663 19.4502 23.8562 20.1497 23.8563 20.8791C23.8564 21.6086 23.5667 22.3082 23.051 22.824C22.5351 23.3398 21.8355 23.6296 21.106 23.6296C20.3765 23.6296 19.6768 23.3398 19.161 22.824C18.6452 22.3082 18.3554 21.6085 18.3554 20.879C18.3554 20.1495 18.6451 19.4508 19.161 18.935ZM25.491 24.107C25.2598 24.1158 25.0414 24.2153 24.883 24.384C24.495 24.772 24.597 25.159 24.706 25.268C24.816 25.377 25.203 25.478 25.59 25.091C26.374 24.307 27.728 24.047 28.595 24.914C29.268 25.587 29.263 26.553 28.86 27.318C28.9591 27.4621 29.0048 27.6364 28.989 27.8106C28.9732 27.9849 28.8971 28.1481 28.7737 28.2721C28.6503 28.3961 28.4874 28.473 28.3132 28.4896C28.1391 28.5062 27.9646 28.4614 27.82 28.363C27.3712 28.6091 26.8507 28.6911 26.348 28.595C26.2515 28.5752 26.1598 28.5365 26.0782 28.4813C25.9966 28.426 25.9267 28.3552 25.8725 28.273C25.8183 28.1907 25.7808 28.0985 25.7622 28.0018C25.7435 27.905 25.7442 27.8055 25.764 27.709C25.7838 27.6125 25.8225 27.5208 25.8777 27.4392C25.933 27.3576 26.0038 27.2877 26.086 27.2335C26.1683 27.1793 26.2605 27.1418 26.3572 27.1232C26.454 27.1045 26.5535 27.1052 26.65 27.125C26.827 27.162 27.113 27.105 27.358 26.859C27.745 26.471 27.644 26.084 27.535 25.975C27.425 25.866 27.038 25.765 26.651 26.152C25.867 26.936 24.513 27.196 23.646 26.329C22.973 25.656 22.978 24.69 23.381 23.925C23.2819 23.7809 23.2362 23.6066 23.252 23.4324C23.2678 23.2582 23.3439 23.0949 23.4673 22.9709C23.5907 22.8469 23.7536 22.77 23.9278 22.7534C24.1019 22.7368 24.2764 22.7816 24.421 22.88C24.761 22.699 25.134 22.603 25.506 22.607C25.7049 22.6089 25.8949 22.6897 26.0343 22.8316C26.1736 22.9736 26.2509 23.1651 26.249 23.364C26.2471 23.5629 26.1663 23.7529 26.0244 23.8923C25.8824 24.0316 25.6899 24.1089 25.491 24.107Z" fill="white"/>
<path d="M10.0387 68V58.5455H13.4087C14.1443 58.5455 14.7537 58.6793 15.2369 58.9471C15.7201 59.2148 16.0817 59.5811 16.3217 60.0458C16.5618 60.5075 16.6818 61.0276 16.6818 61.6062C16.6818 62.1879 16.5603 62.7111 16.3171 63.1758C16.0771 63.6374 15.7139 64.0037 15.2276 64.2745C14.7444 64.5423 14.1366 64.6761 13.4041 64.6761H11.0866V63.4666H13.2749C13.7396 63.4666 14.1166 63.3866 14.4059 63.2266C14.6952 63.0634 14.9076 62.8419 15.043 62.5618C15.1784 62.2817 15.2461 61.9632 15.2461 61.6062C15.2461 61.2492 15.1784 60.9322 15.043 60.6552C14.9076 60.3782 14.6937 60.1612 14.4013 60.0043C14.112 59.8473 13.7304 59.7688 13.2564 59.7688H11.4652V68H10.0387ZM18.2433 68V60.9091H19.5775V62.0355H19.6514C19.7806 61.6539 20.0084 61.3538 20.3346 61.1353C20.6639 60.9137 21.0363 60.8029 21.4518 60.8029C21.538 60.8029 21.6395 60.806 21.7565 60.8121C21.8765 60.8183 21.9704 60.826 22.0381 60.8352V62.1555C21.9827 62.1402 21.8842 62.1232 21.7426 62.1048C21.6011 62.0832 21.4595 62.0724 21.3179 62.0724C20.9917 62.0724 20.7008 62.1417 20.4454 62.2802C20.193 62.4156 19.993 62.6049 19.8453 62.848C19.6975 63.0881 19.6237 63.362 19.6237 63.6697V68H18.2433ZM23.2326 68V60.9091H24.6129V68H23.2326ZM23.9297 59.815C23.6896 59.815 23.4834 59.735 23.3111 59.5749C23.1418 59.4118 23.0572 59.2179 23.0572 58.9933C23.0572 58.7655 23.1418 58.5716 23.3111 58.4116C23.4834 58.2485 23.6896 58.1669 23.9297 58.1669C24.1697 58.1669 24.3744 58.2485 24.5437 58.4116C24.716 58.5716 24.8022 58.7655 24.8022 58.9933C24.8022 59.2179 24.716 59.4118 24.5437 59.5749C24.3744 59.735 24.1697 59.815 23.9297 59.815ZM29.4568 68.1431C28.7704 68.1431 28.1795 67.9877 27.684 67.6768C27.1916 67.3629 26.8131 66.9305 26.5484 66.3796C26.2837 65.8287 26.1514 65.1978 26.1514 64.4869C26.1514 63.7667 26.2868 63.1312 26.5576 62.5803C26.8285 62.0263 27.2101 61.5939 27.7025 61.283C28.1949 60.9722 28.7751 60.8168 29.4429 60.8168C29.9815 60.8168 30.4616 60.9168 30.8833 61.1168C31.3049 61.3138 31.645 61.5908 31.9035 61.9478C32.1651 62.3048 32.3205 62.7218 32.3698 63.1989H31.0264C30.9525 62.8665 30.7832 62.5803 30.5186 62.3402C30.257 62.1001 29.9061 61.9801 29.466 61.9801C29.0813 61.9801 28.7443 62.0817 28.455 62.2848C28.1688 62.4848 27.9456 62.7711 27.7856 63.1435C27.6256 63.5128 27.5455 63.9498 27.5455 64.4545C27.5455 64.9716 27.624 65.4179 27.781 65.7933C27.9379 66.1688 28.1595 66.4596 28.4458 66.6658C28.7351 66.872 29.0751 66.9751 29.466 66.9751C29.7276 66.9751 29.9646 66.9274 30.1769 66.832C30.3924 66.7335 30.5724 66.5935 30.7171 66.4119C30.8648 66.2304 30.9679 66.0118 31.0264 65.7564H32.3698C32.3205 66.215 32.1713 66.6243 31.922 66.9844C31.6727 67.3445 31.3387 67.6276 30.9202 67.8338C30.5047 68.04 30.0169 68.1431 29.4568 68.1431ZM36.902 68.1431C36.2034 68.1431 35.6017 67.9938 35.0969 67.6953C34.5953 67.3937 34.2075 66.9705 33.9336 66.4258C33.6628 65.878 33.5273 65.2363 33.5273 64.5007C33.5273 63.7744 33.6628 63.1342 33.9336 62.5803C34.2075 62.0263 34.5891 61.5939 35.0785 61.283C35.5709 60.9722 36.1464 60.8168 36.805 60.8168C37.2051 60.8168 37.5929 60.8829 37.9684 61.0153C38.3439 61.1476 38.6809 61.3554 38.9794 61.6385C39.2779 61.9216 39.5134 62.2894 39.6857 62.7418C39.8581 63.1912 39.9442 63.7375 39.9442 64.3807V64.87H34.3075V63.8359H38.5916C38.5916 63.4728 38.5178 63.1512 38.37 62.8711C38.2223 62.5879 38.0146 62.3648 37.7468 62.2017C37.4821 62.0386 37.1713 61.957 36.8143 61.957C36.4265 61.957 36.0879 62.0524 35.7987 62.2433C35.5124 62.431 35.2908 62.6772 35.1339 62.9819C34.98 63.2835 34.9031 63.6113 34.9031 63.9652V64.7731C34.9031 65.247 34.9862 65.6502 35.1523 65.9826C35.3216 66.315 35.5571 66.5689 35.8587 66.7443C36.1603 66.9167 36.5127 67.0028 36.9158 67.0028C37.1774 67.0028 37.416 66.9659 37.6314 66.892C37.8468 66.8151 38.033 66.7012 38.19 66.5504C38.3469 66.3996 38.467 66.2134 38.5501 65.9918L39.8565 66.2273C39.7519 66.612 39.5642 66.949 39.2933 67.2383C39.0256 67.5245 38.6886 67.7476 38.2823 67.9077C37.8791 68.0646 37.419 68.1431 36.902 68.1431Z" fill="black"/>
</svg>
