<svg width="49" height="71" viewBox="0 0 49 71" fill="none" xmlns="http://www.w3.org/2000/svg">
<rect x="0.5" width="48" height="48" rx="16" fill="#006BB2"/>
<g clip-path="url(#clip0_22_272)">
<path d="M36.5 18V28.5C36.5 28.9141 36.4219 29.3008 36.2656 29.6602C36.1094 30.0195 35.8945 30.3359 35.6211 30.6094C35.3477 30.8828 35.0273 31.0977 34.6602 31.2539C34.293 31.4102 33.9062 31.4922 33.5 31.5H15.418C15.0195 31.5 14.6445 31.4219 14.293 31.2656C13.9414 31.1094 13.6328 30.9023 13.3672 30.6445C13.1016 30.3867 12.8906 30.0781 12.7344 29.7188C12.5781 29.3594 12.5 28.9805 12.5 28.582V15H33.5V18H36.5ZM35 19.5H33.5V27.75C33.5 27.9531 33.4258 28.1289 33.2773 28.2773C33.1289 28.4258 32.9531 28.5 32.75 28.5C32.5469 28.5 32.3711 28.4258 32.2227 28.2773C32.0742 28.1289 32 27.9531 32 27.75V16.5H14V28.582C14 28.7773 14.0352 28.9609 14.1055 29.1328C14.1758 29.3047 14.2773 29.4531 14.4102 29.5781C14.543 29.7031 14.6953 29.8047 14.8672 29.8828C15.0391 29.9609 15.2227 30 15.418 30H33.5C33.7109 30 33.9062 29.9609 34.0859 29.8828C34.2656 29.8047 34.4219 29.6992 34.5547 29.5664C34.6875 29.4336 34.7969 29.2734 34.8828 29.0859C34.9688 28.8984 35.0078 28.7031 35 28.5V19.5ZM30.5 19.5H15.5V18H30.5V19.5ZM30.5 28.5H24.5V27H30.5V28.5ZM30.5 25.5H24.5V24H30.5V25.5ZM30.5 22.5H24.5V21H30.5V22.5ZM23 28.5H15.5V20.9648H23V28.5ZM17 27H21.5V22.4648H17V27Z" fill="white"/>
</g>
<path d="M15.6697 58.5455V68H14.3587L9.55291 61.0661H9.4652V68H8.03871V58.5455H9.35902L14.1694 65.4886H14.2571V58.5455H15.6697ZM20.6959 68.1431C19.9973 68.1431 19.3956 67.9938 18.8909 67.6953C18.3892 67.3937 18.0015 66.9705 17.7275 66.4258C17.4567 65.878 17.3213 65.2363 17.3213 64.5007C17.3213 63.7744 17.4567 63.1342 17.7275 62.5803C18.0015 62.0263 18.3831 61.5939 18.8724 61.283C19.3648 60.9722 19.9404 60.8168 20.599 60.8168C20.9991 60.8168 21.3869 60.8829 21.7623 61.0153C22.1378 61.1476 22.4748 61.3554 22.7733 61.6385C23.0719 61.9216 23.3073 62.2894 23.4797 62.7418C23.652 63.1912 23.7382 63.7375 23.7382 64.3807V64.87H18.1015V63.8359H22.3856C22.3856 63.4728 22.3117 63.1512 22.164 62.8711C22.0162 62.5879 21.8085 62.3648 21.5407 62.2017C21.2761 62.0386 20.9652 61.957 20.6082 61.957C20.2204 61.957 19.8819 62.0524 19.5926 62.2433C19.3064 62.431 19.0848 62.6772 18.9278 62.9819C18.7739 63.2835 18.697 63.6113 18.697 63.9652V64.7731C18.697 65.247 18.7801 65.6502 18.9463 65.9826C19.1156 66.315 19.351 66.5689 19.6526 66.7443C19.9542 66.9167 20.3066 67.0028 20.7098 67.0028C20.9714 67.0028 21.2099 66.9659 21.4253 66.892C21.6408 66.8151 21.827 66.7012 21.9839 66.5504C22.1409 66.3996 22.2609 66.2134 22.344 65.9918L23.6505 66.2273C23.5458 66.612 23.3581 66.949 23.0873 67.2383C22.8195 67.5245 22.4825 67.7476 22.0763 67.9077C21.6731 68.0646 21.213 68.1431 20.6959 68.1431ZM26.7943 68L24.7077 60.9091H26.1341L27.5237 66.1165H27.593L28.9871 60.9091H30.4136L31.7986 66.0934H31.8678L33.2481 60.9091H34.6746L32.5926 68H31.1846L29.7442 62.8803H29.6381L28.1977 68H26.7943ZM41.2981 62.6403L40.0471 62.8619C39.9947 62.7018 39.9116 62.5495 39.7978 62.4048C39.687 62.2602 39.5362 62.1417 39.3453 62.0494C39.1545 61.957 38.916 61.9109 38.6298 61.9109C38.2389 61.9109 37.9127 61.9986 37.6511 62.174C37.3895 62.3464 37.2587 62.5695 37.2587 62.8434C37.2587 63.0804 37.3464 63.2712 37.5218 63.4158C37.6973 63.5605 37.9804 63.679 38.3713 63.7713L39.4977 64.0298C40.1502 64.1806 40.6364 64.413 40.9565 64.7269C41.2766 65.0408 41.4366 65.4486 41.4366 65.9503C41.4366 66.375 41.3135 66.7536 41.0673 67.0859C40.8242 67.4152 40.4841 67.6738 40.0471 67.8615C39.6131 68.0492 39.1099 68.1431 38.5375 68.1431C37.7434 68.1431 37.0956 67.9738 36.5939 67.6353C36.0923 67.2937 35.7845 66.8089 35.6706 66.1811L37.0048 65.978C37.0879 66.3258 37.2587 66.5889 37.5172 66.7674C37.7757 66.9428 38.1127 67.0305 38.5282 67.0305C38.9806 67.0305 39.3423 66.9367 39.6131 66.7489C39.8839 66.5581 40.0194 66.3258 40.0194 66.0518C40.0194 65.8303 39.9363 65.6441 39.7701 65.4933C39.6069 65.3424 39.3561 65.2286 39.0176 65.1516L37.8173 64.8885C37.1556 64.7377 36.6663 64.4976 36.3493 64.1683C36.0353 63.839 35.8784 63.422 35.8784 62.9173C35.8784 62.4987 35.9953 62.1325 36.2292 61.8185C36.4631 61.5046 36.7863 61.2599 37.1987 61.0845C37.6111 60.906 38.0835 60.8168 38.6159 60.8168C39.3823 60.8168 39.9855 60.983 40.4256 61.3153C40.8657 61.6446 41.1565 62.0863 41.2981 62.6403Z" fill="black"/>
<defs>
<clipPath id="clip0_22_272">
<rect width="24" height="24" fill="white" transform="translate(12.5 12)"/>
</clipPath>
</defs>
</svg>
