<svg width="57" height="71" viewBox="0 0 57 71" fill="none" xmlns="http://www.w3.org/2000/svg">
<rect x="4.5" width="48" height="48" rx="16" fill="#006BB2"/>
<g clip-path="url(#clip0_22_276)">
<path d="M36.75 19.5C37.2656 19.5 37.75 19.5977 38.2031 19.793C38.6562 19.9883 39.0508 20.2578 39.3867 20.6016C39.7227 20.9453 39.9922 21.3438 40.1953 21.7969C40.3984 22.25 40.5 22.7344 40.5 23.25C40.5 23.6953 40.4258 24.1211 40.2773 24.5273C40.1289 24.9336 39.9219 25.2969 39.6562 25.6172C39.3906 25.9375 39.0742 26.2148 38.707 26.4492C38.3398 26.6836 37.9375 26.8438 37.5 26.9297V28.125C37.5 28.8203 37.4141 29.4961 37.2422 30.1523C37.0703 30.8086 36.8281 31.4336 36.5156 32.0273C36.2031 32.6211 35.8203 33.1562 35.3672 33.6328C34.9141 34.1094 34.4102 34.5273 33.8555 34.8867C33.3008 35.2461 32.6953 35.5195 32.0391 35.707C31.3828 35.8945 30.7031 35.9922 30 36C29.2891 36 28.6094 35.9023 27.9609 35.707C27.3125 35.5117 26.7109 35.2383 26.1562 34.8867C25.6016 34.5352 25.0977 34.1172 24.6445 33.6328C24.1914 33.1484 23.8086 32.6133 23.4961 32.0273C23.1836 31.4414 22.9375 30.8203 22.7578 30.1641C22.5781 29.5078 22.4922 28.8281 22.5 28.125V25.4414C21.5391 25.3555 20.6875 25.125 19.9453 24.75C19.2031 24.375 18.5742 23.8828 18.0586 23.2734C17.543 22.6641 17.1562 21.957 16.8984 21.1523C16.6406 20.3477 16.5078 19.4766 16.5 18.5391V12H20.25C20.4531 12 20.6289 12.0742 20.7773 12.2227C20.9258 12.3711 21 12.5469 21 12.75C21 12.9531 20.9258 13.1289 20.7773 13.2773C20.6289 13.4258 20.4531 13.5 20.25 13.5H18V18.5391C18 19.3672 18.1133 20.1172 18.3398 20.7891C18.5664 21.4609 18.9062 22.0352 19.3594 22.5117C19.8125 22.9883 20.3594 23.3555 21 23.6133C21.6406 23.8711 22.3906 24 23.25 24C24.0391 24 24.7578 23.8789 25.4062 23.6367C26.0547 23.3945 26.6055 23.0469 27.0586 22.5938C27.5117 22.1406 27.8672 21.5938 28.125 20.9531C28.3828 20.3125 28.5078 19.5898 28.5 18.7852V13.5H26.25C26.0469 13.5 25.8711 13.4258 25.7227 13.2773C25.5742 13.1289 25.5 12.9531 25.5 12.75C25.5 12.5469 25.5742 12.3711 25.7227 12.2227C25.8711 12.0742 26.0469 12 26.25 12H30V18.5391C30 19.4766 29.8672 20.3477 29.6016 21.1523C29.3359 21.957 28.9492 22.6641 28.4414 23.2734C27.9336 23.8828 27.3086 24.375 26.5664 24.75C25.8242 25.125 24.9688 25.3555 24 25.4414V28.125C24 28.9609 24.1484 29.7617 24.4453 30.5273C24.7422 31.293 25.1602 31.9727 25.6992 32.5664C26.2383 33.1602 26.8711 33.6289 27.5977 33.9727C28.3242 34.3164 29.125 34.4922 30 34.5C30.8672 34.5 31.6641 34.3242 32.3906 33.9727C33.1172 33.6211 33.75 33.1523 34.2891 32.5664C34.8281 31.9805 35.2461 31.3047 35.543 30.5391C35.8398 29.7734 35.9922 28.9688 36 28.125V26.9297C35.5625 26.8359 35.1602 26.6758 34.793 26.4492C34.4258 26.2227 34.1094 25.9492 33.8438 25.6289C33.5781 25.3086 33.3711 24.9414 33.2227 24.5273C33.0742 24.1133 33 23.6875 33 23.25C33 22.7344 33.0977 22.25 33.293 21.7969C33.4883 21.3438 33.7539 20.9492 34.0898 20.6133C34.4258 20.2773 34.8242 20.0078 35.2852 19.8047C35.7461 19.6016 36.2344 19.5 36.75 19.5ZM36.75 25.5C37.0625 25.5 37.3555 25.4414 37.6289 25.3242C37.9023 25.207 38.1406 25.0469 38.3438 24.8438C38.5469 24.6406 38.707 24.4023 38.8242 24.1289C38.9414 23.8555 39 23.5625 39 23.25C39 22.9375 38.9414 22.6445 38.8242 22.3711C38.707 22.0977 38.5469 21.8594 38.3438 21.6562C38.1406 21.4531 37.9023 21.293 37.6289 21.1758C37.3555 21.0586 37.0625 21 36.75 21C36.4375 21 36.1445 21.0586 35.8711 21.1758C35.5977 21.293 35.3594 21.4531 35.1562 21.6562C34.9531 21.8594 34.793 22.0977 34.6758 22.3711C34.5586 22.6445 34.5 22.9375 34.5 23.25C34.5 23.5625 34.5586 23.8555 34.6758 24.1289C34.793 24.4023 34.9531 24.6406 35.1562 24.8438C35.3594 25.0469 35.5977 25.207 35.8711 25.3242C36.1445 25.4414 36.4375 25.5 36.75 25.5Z" fill="white"/>
</g>
<path d="M4.09943 68H1.03871V58.5455H4.19638C5.12275 58.5455 5.91832 58.7347 6.5831 59.1133C7.24787 59.4888 7.75722 60.0289 8.11115 60.7337C8.46816 61.4354 8.64666 62.2771 8.64666 63.2589C8.64666 64.2437 8.46662 65.0901 8.10653 65.7979C7.74953 66.5058 7.23248 67.0505 6.5554 67.4322C5.87831 67.8107 5.05966 68 4.09943 68ZM2.4652 66.7536H4.02095C4.74112 66.7536 5.33973 66.6181 5.81676 66.3473C6.2938 66.0734 6.65081 65.6779 6.88778 65.1609C7.12476 64.6407 7.24325 64.0067 7.24325 63.2589C7.24325 62.5172 7.12476 61.8878 6.88778 61.3707C6.65388 60.8537 6.30457 60.4613 5.83984 60.1935C5.37512 59.9258 4.79806 59.7919 4.10867 59.7919H2.4652V66.7536ZM10.3097 68V60.9091H11.6901V68H10.3097ZM11.0068 59.815C10.7668 59.815 10.5606 59.735 10.3882 59.5749C10.219 59.4118 10.1343 59.2179 10.1343 58.9933C10.1343 58.7655 10.219 58.5716 10.3882 58.4116C10.5606 58.2485 10.7668 58.1669 11.0068 58.1669C11.2469 58.1669 11.4516 58.2485 11.6208 58.4116C11.7932 58.5716 11.8794 58.7655 11.8794 58.9933C11.8794 59.2179 11.7932 59.4118 11.6208 59.5749C11.4516 59.735 11.2469 59.815 11.0068 59.815ZM18.8606 62.6403L17.6096 62.8619C17.5572 62.7018 17.4741 62.5495 17.3603 62.4048C17.2495 62.2602 17.0987 62.1417 16.9078 62.0494C16.717 61.957 16.4785 61.9109 16.1923 61.9109C15.8014 61.9109 15.4752 61.9986 15.2136 62.174C14.952 62.3464 14.8212 62.5695 14.8212 62.8434C14.8212 63.0804 14.9089 63.2712 15.0843 63.4158C15.2598 63.5605 15.5429 63.679 15.9338 63.7713L17.0602 64.0298C17.7127 64.1806 18.1989 64.413 18.519 64.7269C18.8391 65.0408 18.9991 65.4486 18.9991 65.9503C18.9991 66.375 18.876 66.7536 18.6298 67.0859C18.3867 67.4152 18.0466 67.6738 17.6096 67.8615C17.1756 68.0492 16.6724 68.1431 16.1 68.1431C15.3059 68.1431 14.6581 67.9738 14.1564 67.6353C13.6548 67.2937 13.347 66.8089 13.2331 66.1811L14.5673 65.978C14.6504 66.3258 14.8212 66.5889 15.0797 66.7674C15.3382 66.9428 15.6752 67.0305 16.0907 67.0305C16.5431 67.0305 16.9048 66.9367 17.1756 66.7489C17.4464 66.5581 17.5819 66.3258 17.5819 66.0518C17.5819 65.8303 17.4988 65.6441 17.3326 65.4933C17.1694 65.3424 16.9186 65.2286 16.5801 65.1516L15.3798 64.8885C14.7181 64.7377 14.2288 64.4976 13.9118 64.1683C13.5978 63.839 13.4409 63.422 13.4409 62.9173C13.4409 62.4987 13.5578 62.1325 13.7917 61.8185C14.0256 61.5046 14.3488 61.2599 14.7612 61.0845C15.1736 60.906 15.646 60.8168 16.1784 60.8168C16.9448 60.8168 17.548 60.983 17.9881 61.3153C18.4282 61.6446 18.719 62.0863 18.8606 62.6403ZM23.5729 68.1431C22.8743 68.1431 22.2726 67.9938 21.7678 67.6953C21.2662 67.3937 20.8784 66.9705 20.6045 66.4258C20.3337 65.878 20.1982 65.2363 20.1982 64.5007C20.1982 63.7744 20.3337 63.1342 20.6045 62.5803C20.8784 62.0263 21.26 61.5939 21.7494 61.283C22.2418 60.9722 22.8173 60.8168 23.4759 60.8168C23.876 60.8168 24.2638 60.8829 24.6393 61.0153C25.0148 61.1476 25.3518 61.3554 25.6503 61.6385C25.9488 61.9216 26.1843 62.2894 26.3566 62.7418C26.529 63.1912 26.6151 63.7375 26.6151 64.3807V64.87H20.9784V63.8359H25.2625C25.2625 63.4728 25.1887 63.1512 25.0409 62.8711C24.8932 62.5879 24.6855 62.3648 24.4177 62.2017C24.153 62.0386 23.8422 61.957 23.4852 61.957C23.0974 61.957 22.7588 62.0524 22.4695 62.2433C22.1833 62.431 21.9617 62.6772 21.8048 62.9819C21.6509 63.2835 21.574 63.6113 21.574 63.9652V64.7731C21.574 65.247 21.657 65.6502 21.8232 65.9826C21.9925 66.315 22.228 66.5689 22.5296 66.7443C22.8312 66.9167 23.1836 67.0028 23.5867 67.0028C23.8483 67.0028 24.0869 66.9659 24.3023 66.892C24.5177 66.8151 24.7039 66.7012 24.8609 66.5504C25.0178 66.3996 25.1379 66.2134 25.221 65.9918L26.5274 66.2273C26.4228 66.612 26.2351 66.949 25.9642 67.2383C25.6965 67.5245 25.3595 67.7476 24.9532 67.9077C24.55 68.0646 24.0899 68.1431 23.5729 68.1431ZM30.2102 68.157C29.7609 68.157 29.3546 68.0739 28.9915 67.9077C28.6283 67.7384 28.3406 67.4937 28.1282 67.1737C27.9189 66.8536 27.8143 66.4612 27.8143 65.9964C27.8143 65.5964 27.8912 65.267 28.0451 65.0085C28.199 64.75 28.4067 64.5453 28.6683 64.3945C28.9299 64.2437 29.2223 64.1299 29.5455 64.0529C29.8686 63.976 30.1979 63.9175 30.5334 63.8775C30.9581 63.8282 31.3028 63.7882 31.5675 63.7575C31.8321 63.7236 32.0245 63.6697 32.1445 63.5959C32.2646 63.522 32.3246 63.402 32.3246 63.2358V63.2035C32.3246 62.8003 32.2107 62.4879 31.983 62.2663C31.7583 62.0447 31.4228 61.9339 30.9766 61.9339C30.5118 61.9339 30.1456 62.037 29.8778 62.2433C29.6132 62.4464 29.43 62.6726 29.3285 62.9219L28.0312 62.6264C28.1851 62.1955 28.4098 61.8478 28.7053 61.5831C29.0038 61.3153 29.3469 61.1214 29.7347 61.0014C30.1225 60.8783 30.5303 60.8168 30.9581 60.8168C31.2412 60.8168 31.5413 60.8506 31.8583 60.9183C32.1784 60.983 32.4769 61.103 32.7539 61.2784C33.034 61.4538 33.2633 61.7047 33.4418 62.0309C33.6203 62.354 33.7095 62.7741 33.7095 63.2912V68H32.3615V67.0305H32.3061C32.2169 67.209 32.083 67.3845 31.9045 67.5568C31.726 67.7292 31.4967 67.8723 31.2166 67.9862C30.9366 68.1 30.6011 68.157 30.2102 68.157ZM30.5103 67.049C30.8919 67.049 31.2182 66.9736 31.489 66.8228C31.7629 66.672 31.9706 66.475 32.1122 66.2319C32.2569 65.9857 32.3292 65.7225 32.3292 65.4425V64.5284C32.2799 64.5777 32.1845 64.6238 32.043 64.6669C31.9045 64.7069 31.746 64.7423 31.5675 64.7731C31.389 64.8008 31.2151 64.8269 31.0458 64.8516C30.8765 64.8731 30.735 64.8916 30.6211 64.907C30.3533 64.9408 30.1087 64.9978 29.8871 65.0778C29.6686 65.1578 29.4931 65.2732 29.3608 65.424C29.2315 65.5717 29.1669 65.7687 29.1669 66.0149C29.1669 66.3565 29.2931 66.6151 29.5455 66.7905C29.7978 66.9628 30.1194 67.049 30.5103 67.049ZM40.8616 62.6403L39.6105 62.8619C39.5582 62.7018 39.4751 62.5495 39.3612 62.4048C39.2504 62.2602 39.0996 62.1417 38.9088 62.0494C38.718 61.957 38.4795 61.9109 38.1933 61.9109C37.8024 61.9109 37.4762 61.9986 37.2146 62.174C36.953 62.3464 36.8222 62.5695 36.8222 62.8434C36.8222 63.0804 36.9099 63.2712 37.0853 63.4158C37.2607 63.5605 37.5439 63.679 37.9347 63.7713L39.0612 64.0298C39.7136 64.1806 40.1999 64.413 40.52 64.7269C40.8401 65.0408 41.0001 65.4486 41.0001 65.9503C41.0001 66.375 40.877 66.7536 40.6308 67.0859C40.3876 67.4152 40.0476 67.6738 39.6105 67.8615C39.1766 68.0492 38.6734 68.1431 38.1009 68.1431C37.3069 68.1431 36.6591 67.9738 36.1574 67.6353C35.6557 67.2937 35.348 66.8089 35.2341 66.1811L36.5683 65.978C36.6514 66.3258 36.8222 66.5889 37.0807 66.7674C37.3392 66.9428 37.6762 67.0305 38.0917 67.0305C38.5441 67.0305 38.9057 66.9367 39.1766 66.7489C39.4474 66.5581 39.5828 66.3258 39.5828 66.0518C39.5828 65.8303 39.4997 65.6441 39.3335 65.4933C39.1704 65.3424 38.9196 65.2286 38.5811 65.1516L37.3808 64.8885C36.7191 64.7377 36.2297 64.4976 35.9127 64.1683C35.5988 63.839 35.4419 63.422 35.4419 62.9173C35.4419 62.4987 35.5588 62.1325 35.7927 61.8185C36.0266 61.5046 36.3498 61.2599 36.7622 61.0845C37.1746 60.906 37.647 60.8168 38.1794 60.8168C38.9458 60.8168 39.549 60.983 39.9891 61.3153C40.4292 61.6446 40.72 62.0863 40.8616 62.6403ZM45.5739 68.1431C44.8752 68.1431 44.2736 67.9938 43.7688 67.6953C43.2672 67.3937 42.8794 66.9705 42.6055 66.4258C42.3346 65.878 42.1992 65.2363 42.1992 64.5007C42.1992 63.7744 42.3346 63.1342 42.6055 62.5803C42.8794 62.0263 43.261 61.5939 43.7504 61.283C44.2428 60.9722 44.8183 60.8168 45.4769 60.8168C45.877 60.8168 46.2648 60.8829 46.6403 61.0153C47.0157 61.1476 47.3527 61.3554 47.6513 61.6385C47.9498 61.9216 48.1853 62.2894 48.3576 62.7418C48.5299 63.1912 48.6161 63.7375 48.6161 64.3807V64.87H42.9794V63.8359H47.2635C47.2635 63.4728 47.1896 63.1512 47.0419 62.8711C46.8942 62.5879 46.6864 62.3648 46.4187 62.2017C46.154 62.0386 45.8432 61.957 45.4862 61.957C45.0984 61.957 44.7598 62.0524 44.4705 62.2433C44.1843 62.431 43.9627 62.6772 43.8058 62.9819C43.6519 63.2835 43.5749 63.6113 43.5749 63.9652V64.7731C43.5749 65.247 43.658 65.6502 43.8242 65.9826C43.9935 66.315 44.2289 66.5689 44.5305 66.7443C44.8321 66.9167 45.1845 67.0028 45.5877 67.0028C45.8493 67.0028 46.0878 66.9659 46.3033 66.892C46.5187 66.8151 46.7049 66.7012 46.8619 66.5504C47.0188 66.3996 47.1388 66.2134 47.2219 65.9918L48.5284 66.2273C48.4238 66.612 48.236 66.949 47.9652 67.2383C47.6974 67.5245 47.3604 67.7476 46.9542 67.9077C46.551 68.0646 46.0909 68.1431 45.5739 68.1431ZM55.4612 62.6403L54.2101 62.8619C54.1578 62.7018 54.0747 62.5495 53.9608 62.4048C53.8501 62.2602 53.6992 62.1417 53.5084 62.0494C53.3176 61.957 53.0791 61.9109 52.7929 61.9109C52.402 61.9109 52.0758 61.9986 51.8142 62.174C51.5526 62.3464 51.4218 62.5695 51.4218 62.8434C51.4218 63.0804 51.5095 63.2712 51.6849 63.4158C51.8604 63.5605 52.1435 63.679 52.5344 63.7713L53.6608 64.0298C54.3132 64.1806 54.7995 64.413 55.1196 64.7269C55.4397 65.0408 55.5997 65.4486 55.5997 65.9503C55.5997 66.375 55.4766 66.7536 55.2304 67.0859C54.9872 67.4152 54.6472 67.6738 54.2101 67.8615C53.7762 68.0492 53.273 68.1431 52.7006 68.1431C51.9065 68.1431 51.2587 67.9738 50.757 67.6353C50.2554 67.2937 49.9476 66.8089 49.8337 66.1811L51.1679 65.978C51.251 66.3258 51.4218 66.5889 51.6803 66.7674C51.9388 66.9428 52.2758 67.0305 52.6913 67.0305C53.1437 67.0305 53.5054 66.9367 53.7762 66.7489C54.047 66.5581 54.1824 66.3258 54.1824 66.0518C54.1824 65.8303 54.0993 65.6441 53.9331 65.4933C53.77 65.3424 53.5192 65.2286 53.1807 65.1516L51.9804 64.8885C51.3187 64.7377 50.8293 64.4976 50.5123 64.1683C50.1984 63.839 50.0415 63.422 50.0415 62.9173C50.0415 62.4987 50.1584 62.1325 50.3923 61.8185C50.6262 61.5046 50.9494 61.2599 51.3618 61.0845C51.7742 60.906 52.2466 60.8168 52.779 60.8168C53.5454 60.8168 54.1486 60.983 54.5887 61.3153C55.0288 61.6446 55.3196 62.0863 55.4612 62.6403Z" fill="black"/>
<defs>
<clipPath id="clip0_22_276">
<rect width="24" height="24" fill="white" transform="translate(16.5 12)"/>
</clipPath>
</defs>
</svg>
