<svg width="68" height="71" viewBox="0 0 68 71" fill="none" xmlns="http://www.w3.org/2000/svg">
<rect x="10" width="48" height="48" rx="16" fill="#006BB2"/>
<path d="M41.8431 14H26.1569C25.5848 14 25.0362 14.2466 24.6317 14.6855C24.2272 15.1244 24 15.7197 24 16.3404V28.2553C24 28.876 24.2272 29.4713 24.6317 29.9103C25.0362 30.3492 25.5848 30.5957 26.1569 30.5957H41.8431C42.4152 30.5957 42.9638 30.3492 43.3683 29.9103C43.7728 29.4713 44 28.876 44 28.2553V16.3404C44 15.7197 43.7728 15.1244 43.3683 14.6855C42.9638 14.2466 42.4152 14 41.8431 14ZM42.8235 28.2553C42.8235 28.5375 42.7202 28.8081 42.5364 29.0076C42.3525 29.2071 42.1032 29.3191 41.8431 29.3191H26.1569C25.8968 29.3191 25.6475 29.2071 25.4636 29.0076C25.2798 28.8081 25.1765 28.5375 25.1765 28.2553V16.3404C25.1765 16.0583 25.2798 15.7877 25.4636 15.5882C25.6475 15.3887 25.8968 15.2766 26.1569 15.2766H41.8431C42.1032 15.2766 42.3525 15.3887 42.5364 15.5882C42.7202 15.7877 42.8235 16.0583 42.8235 16.3404V28.2553ZM37.7255 33.3617C37.7255 33.531 37.6635 33.6933 37.5532 33.813C37.4429 33.9328 37.2933 34 37.1373 34H30.8627C30.7067 34 30.5571 33.9328 30.4468 33.813C30.3365 33.6933 30.2745 33.531 30.2745 33.3617C30.2745 33.1924 30.3365 33.0301 30.4468 32.9104C30.5571 32.7907 30.7067 32.7234 30.8627 32.7234H37.1373C37.2933 32.7234 37.4429 32.7907 37.5532 32.9104C37.6635 33.0301 37.7255 33.1924 37.7255 33.3617Z" fill="white"/>
<path d="M1.03871 58.5455H2.76989L5.77983 65.8949H5.89062L8.90057 58.5455H10.6317V68H9.2745V61.1584H9.18679L6.39844 67.9862H5.27202L2.48366 61.1538H2.39595V68H1.03871V58.5455ZM15.5818 68.1431C14.917 68.1431 14.3369 67.9908 13.8414 67.6861C13.3459 67.3814 12.9611 66.9551 12.6872 66.4073C12.4133 65.8595 12.2764 65.2193 12.2764 64.4869C12.2764 63.7513 12.4133 63.1081 12.6872 62.5572C12.9611 62.0063 13.3459 61.5785 13.8414 61.2738C14.3369 60.9691 14.917 60.8168 15.5818 60.8168C16.2465 60.8168 16.8267 60.9691 17.3222 61.2738C17.8177 61.5785 18.2024 62.0063 18.4763 62.5572C18.7502 63.1081 18.8872 63.7513 18.8872 64.4869C18.8872 65.2193 18.7502 65.8595 18.4763 66.4073C18.2024 66.9551 17.8177 67.3814 17.3222 67.6861C16.8267 67.9908 16.2465 68.1431 15.5818 68.1431ZM15.5864 66.9844C16.0173 66.9844 16.3743 66.8705 16.6574 66.6428C16.9405 66.415 17.1498 66.1119 17.2852 65.7333C17.4237 65.3548 17.493 64.9377 17.493 64.4822C17.493 64.0298 17.4237 63.6143 17.2852 63.2358C17.1498 62.8542 16.9405 62.5479 16.6574 62.3171C16.3743 62.0863 16.0173 61.9709 15.5864 61.9709C15.1524 61.9709 14.7923 62.0863 14.5061 62.3171C14.223 62.5479 14.0122 62.8542 13.8737 63.2358C13.7383 63.6143 13.6705 64.0298 13.6705 64.4822C13.6705 64.9377 13.7383 65.3548 13.8737 65.7333C14.0122 66.1119 14.223 66.415 14.5061 66.6428C14.7923 66.8705 15.1524 66.9844 15.5864 66.9844ZM21.8082 63.7898V68H20.4279V60.9091H21.7528V62.0632H21.8406C22.0037 61.6877 22.2591 61.3861 22.6069 61.1584C22.9577 60.9306 23.3994 60.8168 23.9318 60.8168C24.415 60.8168 24.8382 60.9183 25.2013 61.1214C25.5645 61.3215 25.8461 61.62 26.0462 62.017C26.2462 62.4141 26.3462 62.9049 26.3462 63.4897V68H24.9659V63.6559C24.9659 63.1419 24.832 62.7403 24.5643 62.451C24.2965 62.1586 23.9287 62.0124 23.4609 62.0124C23.1409 62.0124 22.8562 62.0817 22.6069 62.2202C22.3607 62.3587 22.1652 62.5618 22.0206 62.8295C21.879 63.0942 21.8082 63.4143 21.8082 63.7898ZM28.1974 68V60.9091H29.5778V68H28.1974ZM28.8945 59.815C28.6545 59.815 28.4483 59.735 28.2759 59.5749C28.1067 59.4118 28.022 59.2179 28.022 58.9933C28.022 58.7655 28.1067 58.5716 28.2759 58.4116C28.4483 58.2485 28.6545 58.1669 28.8945 58.1669C29.1346 58.1669 29.3393 58.2485 29.5085 58.4116C29.6809 58.5716 29.767 58.7655 29.767 58.9933C29.767 59.2179 29.6809 59.4118 29.5085 59.5749C29.3393 59.735 29.1346 59.815 28.8945 59.815ZM34.7448 60.9091V62.017H30.8715V60.9091H34.7448ZM31.9102 59.2102H33.2906V65.918C33.2906 66.1857 33.3306 66.3873 33.4106 66.5227C33.4906 66.6551 33.5937 66.7459 33.7199 66.7951C33.8492 66.8413 33.9892 66.8643 34.14 66.8643C34.2508 66.8643 34.3477 66.8567 34.4308 66.8413C34.5139 66.8259 34.5786 66.8136 34.6247 66.8043L34.874 67.9446C34.794 67.9754 34.6801 68.0062 34.5324 68.0369C34.3847 68.0708 34.2 68.0893 33.9784 68.0923C33.6153 68.0985 33.2767 68.0339 32.9628 67.8984C32.6489 67.763 32.395 67.5537 32.2011 67.2706C32.0072 66.9875 31.9102 66.632 31.9102 66.2042V59.2102ZM39.1824 68.1431C38.5176 68.1431 37.9374 67.9908 37.4419 67.6861C36.9464 67.3814 36.5617 66.9551 36.2878 66.4073C36.0139 65.8595 35.877 65.2193 35.877 64.4869C35.877 63.7513 36.0139 63.1081 36.2878 62.5572C36.5617 62.0063 36.9464 61.5785 37.4419 61.2738C37.9374 60.9691 38.5176 60.8168 39.1824 60.8168C39.8471 60.8168 40.4273 60.9691 40.9228 61.2738C41.4183 61.5785 41.803 62.0063 42.0769 62.5572C42.3508 63.1081 42.4877 63.7513 42.4877 64.4869C42.4877 65.2193 42.3508 65.8595 42.0769 66.4073C41.803 66.9551 41.4183 67.3814 40.9228 67.6861C40.4273 67.9908 39.8471 68.1431 39.1824 68.1431ZM39.187 66.9844C39.6178 66.9844 39.9748 66.8705 40.258 66.6428C40.5411 66.415 40.7504 66.1119 40.8858 65.7333C41.0243 65.3548 41.0936 64.9377 41.0936 64.4822C41.0936 64.0298 41.0243 63.6143 40.8858 63.2358C40.7504 62.8542 40.5411 62.5479 40.258 62.3171C39.9748 62.0863 39.6178 61.9709 39.187 61.9709C38.753 61.9709 38.3929 62.0863 38.1067 62.3171C37.8236 62.5479 37.6127 62.8542 37.4743 63.2358C37.3388 63.6143 37.2711 64.0298 37.2711 64.4822C37.2711 64.9377 37.3388 65.3548 37.4743 65.7333C37.6127 66.1119 37.8236 66.415 38.1067 66.6428C38.3929 66.8705 38.753 66.9844 39.187 66.9844ZM44.0285 68V60.9091H45.3627V62.0355H45.4365C45.5658 61.6539 45.7935 61.3538 46.1198 61.1353C46.4491 60.9137 46.8215 60.8029 47.2369 60.8029C47.3231 60.8029 47.4247 60.806 47.5416 60.8121C47.6617 60.8183 47.7555 60.826 47.8232 60.8352V62.1555C47.7678 62.1402 47.6694 62.1232 47.5278 62.1048C47.3862 62.0832 47.2446 62.0724 47.1031 62.0724C46.7768 62.0724 46.486 62.1417 46.2306 62.2802C45.9782 62.4156 45.7781 62.6049 45.6304 62.848C45.4827 63.0881 45.4088 63.362 45.4088 63.6697V68H44.0285ZM49.0178 68V60.9091H50.3981V68H49.0178ZM49.7148 59.815C49.4748 59.815 49.2686 59.735 49.0962 59.5749C48.927 59.4118 48.8423 59.2179 48.8423 58.9933C48.8423 58.7655 48.927 58.5716 49.0962 58.4116C49.2686 58.2485 49.4748 58.1669 49.7148 58.1669C49.9549 58.1669 50.1596 58.2485 50.3288 58.4116C50.5012 58.5716 50.5874 58.7655 50.5874 58.9933C50.5874 59.2179 50.5012 59.4118 50.3288 59.5749C50.1596 59.735 49.9549 59.815 49.7148 59.815ZM53.6354 63.7898V68H52.2551V60.9091H53.58V62.0632H53.6677C53.8308 61.6877 54.0863 61.3861 54.434 61.1584C54.7849 60.9306 55.2265 60.8168 55.759 60.8168C56.2422 60.8168 56.6653 60.9183 57.0285 61.1214C57.3917 61.3215 57.6733 61.62 57.8733 62.017C58.0734 62.4141 58.1734 62.9049 58.1734 63.4897V68H56.7931V63.6559C56.7931 63.1419 56.6592 62.7403 56.3914 62.451C56.1237 62.1586 55.7559 62.0124 55.2881 62.0124C54.968 62.0124 54.6833 62.0817 54.434 62.2202C54.1878 62.3587 53.9924 62.5618 53.8477 62.8295C53.7062 63.0942 53.6354 63.4143 53.6354 63.7898ZM62.9976 70.8068C62.4344 70.8068 61.9497 70.733 61.5434 70.5852C61.1402 70.4375 60.8109 70.2421 60.5555 69.9989C60.3 69.7558 60.1092 69.4896 59.983 69.2003L61.1695 68.7109C61.2526 68.8464 61.3634 68.9895 61.5019 69.1403C61.6434 69.2942 61.8343 69.425 62.0743 69.5327C62.3174 69.6404 62.6298 69.6942 63.0115 69.6942C63.5347 69.6942 63.9671 69.5665 64.3087 69.3111C64.6503 69.0587 64.8211 68.6555 64.8211 68.1016V66.7074H64.7334C64.6503 66.8582 64.5303 67.0259 64.3733 67.2106C64.2194 67.3952 64.0071 67.5553 63.7362 67.6907C63.4654 67.8261 63.113 67.8938 62.6791 67.8938C62.1189 67.8938 61.6142 67.763 61.1649 67.5014C60.7186 67.2367 60.3647 66.8474 60.1031 66.3335C59.8445 65.8164 59.7153 65.1809 59.7153 64.4268C59.7153 63.6728 59.843 63.0265 60.0985 62.4879C60.357 61.9493 60.7109 61.5369 61.1602 61.2507C61.6096 60.9614 62.1189 60.8168 62.6883 60.8168C63.1284 60.8168 63.4839 60.8906 63.7547 61.0384C64.0255 61.183 64.2364 61.3523 64.3872 61.5462C64.541 61.7401 64.6595 61.9109 64.7426 62.0586H64.8442V60.9091H66.1968V68.157C66.1968 68.7663 66.0553 69.2665 65.7721 69.6573C65.489 70.0482 65.1058 70.3375 64.6226 70.5252C64.1425 70.7129 63.6008 70.8068 62.9976 70.8068ZM62.9838 66.7489C63.3808 66.7489 63.7162 66.6566 63.9901 66.4719C64.2671 66.2842 64.4764 66.0165 64.618 65.6687C64.7626 65.3178 64.835 64.8977 64.835 64.4084C64.835 63.9313 64.7642 63.5112 64.6226 63.1481C64.481 62.7849 64.2733 62.5018 63.9994 62.2987C63.7255 62.0924 63.3869 61.9893 62.9838 61.9893C62.5683 61.9893 62.222 62.0971 61.945 62.3125C61.6681 62.5249 61.4588 62.8142 61.3172 63.1804C61.1787 63.5466 61.1095 63.956 61.1095 64.4084C61.1095 64.8731 61.1802 65.2809 61.3218 65.6317C61.4634 65.9826 61.6727 66.2565 61.9497 66.4535C62.2297 66.6504 62.5744 66.7489 62.9838 66.7489Z" fill="black"/>
</svg>
