<svg width="16" height="17" viewBox="0 0 16 17" fill="none" xmlns="http://www.w3.org/2000/svg">
<path d="M12.0667 2.33333L13.8583 4.08333L9.25 7.75L8.41667 6.91666L12.0583 2.33333H12.0667ZM12.0667 0.666662C11.8204 0.665035 11.5769 0.717999 11.3535 0.821744C11.1302 0.925489 10.9326 1.07744 10.775 1.26666L6.16667 7.04166L9.11667 9.99166L14.9 5.39166C15.65 4.75833 15.7083 3.61666 15.0083 2.91666L13.25 1.15833C12.9167 0.824996 12.4917 0.666662 12.0667 0.666662ZM5.58333 7.63333L4.99167 8.225C4.83542 8.38396 4.74787 8.59793 4.74787 8.82083C4.74787 9.04372 4.83542 9.2577 4.99167 9.41666L6.75 11.1667C6.925 11.3333 7.13333 11.4083 7.35 11.4083C7.56667 11.4083 7.775 11.3333 7.94167 11.1667L8.525 10.5833L5.58333 7.63333ZM3 11.5C2.54167 11.5 2.16667 11.875 2.16667 12.3333C2.16667 12.7917 2.54167 13.1667 3 13.1667C3.45833 13.1667 3.83333 12.7917 3.83333 12.3333C3.83333 11.875 3.45833 11.5 3 11.5ZM5.5 12.3333C5.04167 12.3333 4.66667 12.7083 4.66667 13.1667C4.66667 13.625 5.04167 14 5.5 14C5.95833 14 6.33333 13.625 6.33333 13.1667C6.33333 12.7083 5.95833 12.3333 5.5 12.3333ZM1.33333 14C0.875 14 0.5 14.375 0.5 14.8333C0.5 15.2917 0.875 15.6667 1.33333 15.6667C1.79167 15.6667 2.16667 15.2917 2.16667 14.8333C2.16667 14.375 1.79167 14 1.33333 14ZM3.83333 14.8333C3.375 14.8333 3 15.2083 3 15.6667C3 16.125 3.375 16.5 3.83333 16.5C4.29167 16.5 4.66667 16.125 4.66667 15.6667C4.66667 15.2083 4.29167 14.8333 3.83333 14.8333Z" fill="black"/>
</svg>
