<svg width="20" height="20" viewBox="0 0 20 20" fill="none" xmlns="http://www.w3.org/2000/svg">
<g clip-path="url(#clip0_14_208)">
<path d="M9.99999 6.42859V4.28574M9.99999 6.42859C8.81427 6.42859 7.85713 6.42859 7.85713 7.85716C7.85713 10 12.1428 10 12.1428 12.1429C12.1428 13.5715 11.1857 13.5715 9.99999 13.5715M9.99999 6.42859C11.1857 6.42859 12.1428 6.97145 12.1428 7.85716M7.85713 12.1429C7.85713 13.2143 8.81427 13.5715 9.99999 13.5715M9.99999 13.5715V15.7143" stroke="black" stroke-linecap="round" stroke-linejoin="round"/>
<path d="M9.99999 19.2857C15.1284 19.2857 19.2857 15.1284 19.2857 10C19.2857 4.87165 15.1284 0.714294 9.99999 0.714294C4.87163 0.714294 0.714279 4.87165 0.714279 10C0.714279 15.1284 4.87163 19.2857 9.99999 19.2857Z" stroke="black" stroke-linecap="round" stroke-linejoin="round"/>
</g>
<defs>
<clipPath id="clip0_14_208">
<rect width="20" height="20" fill="white"/>
</clipPath>
</defs>
</svg>
