<svg width="133" height="77" viewBox="0 0 133 77" fill="none" xmlns="http://www.w3.org/2000/svg">
<path d="M48.0145 0.121742C40.7985 0.954365 34.7072 5.83324 32.4576 12.6111C31.6981 14.8898 31.5228 16.0292 31.5228 18.5855C31.5228 22.6756 32.5015 25.8162 34.8094 29.2051C35.9342 30.8411 38.4175 33.2221 40.0827 34.2739C45.9257 37.8965 53.2148 38.0864 59.16 34.7705L60.1095 34.2446L58.2835 33.7626C51.4619 31.9659 46.5246 29.3219 42.9311 25.5532C40.2726 22.7486 38.5927 19.4473 37.9062 15.591C37.4534 13.0931 37.6871 7.27937 38.3006 5.54109C38.4467 5.11748 38.5197 5.07365 39.0602 5.07365C40.9153 5.08826 44.7717 5.83324 47.401 6.69508C50.9068 7.83445 53.8283 9.52891 56.0778 11.7054C58.8094 14.3494 60.2701 16.9787 61.1612 20.8497C61.2927 21.4193 61.4095 22.9239 61.4679 24.5745C61.5556 27.5983 61.3803 29.4096 60.7084 32.4625C60.4016 33.8064 59.7589 39.2112 59.7589 40.3651C59.7589 40.6573 60.2555 40.3505 63.6006 37.9841C65.7041 36.4942 67.5446 35.1649 67.6907 35.0334C67.939 34.7997 67.7491 34.7559 64.6231 34.4491C62.7972 34.2593 61.132 34.0694 60.9421 34.0109C60.6207 33.9087 60.6499 33.8649 61.5556 33.1491C65.1052 30.3153 67.5446 26.2398 68.3334 21.7991C68.6402 20.0901 68.6402 17.0809 68.3334 15.3719C66.6244 5.77481 57.6116 -1.00303 48.0145 0.121742Z" fill="#006BB2"/>
<path d="M12.0802 0.414093C5.87208 1.12986 2.08876 4.46034 0.701061 10.4056C0.408912 11.6764 0.394305 12.1584 0.350483 24.604L0.292053 37.5023H5.69679H11.1161V33.1931V28.8839H12.6499H14.1837V24.0635V19.243H12.6353H11.0869L11.1454 16.2047C11.1892 13.327 11.2038 13.1517 11.5544 12.4506C12.0218 11.5011 12.6791 11.0629 13.6286 11.0629C14.7388 11.0629 15.3085 11.3696 15.6883 12.1877L16.0096 12.8888L16.0534 25.1882L16.0973 37.5023H21.502H26.9067L26.8483 24.3118C26.8045 12.4798 26.7753 11.0045 26.5416 9.82126C25.9719 6.85596 25.0808 4.98621 23.474 3.37939C22.6414 2.54677 22.1593 2.2108 21.0492 1.67033C18.5075 0.457912 15.4107 0.0196915 12.0802 0.414093Z" fill="#006BB2"/>
<path d="M117.838 0.414093C111.63 1.12986 107.846 4.46034 106.459 10.4056C106.167 11.6764 106.152 12.1584 106.108 24.604L106.05 37.5023H111.454H116.874V33.1931V28.8839H118.408H119.941V24.0635V19.243H118.393H116.845L116.903 16.2047C116.947 13.327 116.961 13.1517 117.312 12.4506C117.779 11.5011 118.437 11.0629 119.386 11.0629C120.496 11.0629 121.066 11.3696 121.446 12.1877L121.767 12.8888L121.811 25.1882L121.855 37.5023H127.26H132.664L132.606 24.3118C132.562 12.4798 132.533 11.0045 132.299 9.82126C131.73 6.85596 130.839 4.98621 129.232 3.37939C128.399 2.54677 127.917 2.2108 126.807 1.67033C124.265 0.457912 121.168 0.0196915 117.838 0.414093Z" fill="#006BB2"/>
<path d="M73.782 13.254C73.782 25.6703 73.8405 27.2187 74.3663 29.3514C74.9799 31.8346 75.8417 33.4268 77.5215 35.1067C79.3767 36.991 81.5678 37.9259 84.8545 38.2473C89.9086 38.7731 94.5976 37.0349 97.2415 33.6898C98.6438 31.9223 99.3158 30.4469 99.7832 28.1243C100.061 26.7951 100.075 26.0793 100.075 13.926V1.12987H94.7437H89.4266L89.3827 13.3563C89.3389 25.5827 89.3389 25.5973 89.0176 26.2838C88.6086 27.1749 87.9804 27.5693 86.9871 27.5693C86.0669 27.5693 85.4095 27.1603 84.9713 26.3276C84.6646 25.7433 84.6646 25.5973 84.6207 13.4293L84.5769 1.12987H79.1868H73.782V13.254Z" fill="#006BB2"/>
<path d="M45.0201 10.4346C44.3189 10.7852 43.9099 11.72 44.129 12.5088C44.3481 13.3561 44.9908 13.8381 45.9111 13.8381C46.5392 13.8381 46.6999 13.7797 47.1235 13.3561C47.7516 12.7279 47.8831 12.2021 47.6202 11.4425C47.2404 10.3469 46.101 9.90871 45.0201 10.4346Z" fill="#006BB2"/>
<path d="M6.95312 44.3093C3.76871 45.0104 1.31467 47.3914 0.350578 50.7219C0.116859 51.5107 0.0876444 52.7523 0.0438222 63.8248L0 76.0658H4.60133H9.20266L9.24649 65.2855C9.29031 54.7243 9.29031 54.5052 9.59706 54.0086C10.1083 53.1175 11.2477 53.0445 11.6567 53.8625C11.8028 54.1401 11.8466 56.6817 11.8466 65.1394V76.0658H16.521H21.1953V65.3293C21.1953 53.8479 21.1953 53.8187 21.8965 53.4389C22.437 53.1467 23.0505 53.249 23.3718 53.658C23.6786 54.0378 23.6786 54.1401 23.6786 65.0518V76.0658H28.353H33.0273V64.9203C33.0273 51.6276 32.9689 50.8534 31.7711 48.3409C30.1935 45.0689 26.4978 43.4913 22.2617 44.2947C20.202 44.6891 18.4638 45.8284 17.1783 47.6398C16.8569 48.078 16.5502 48.4578 16.5064 48.4578C16.4625 48.4578 16.2142 48.1364 15.9659 47.742C15.0018 46.2667 13.2781 44.9666 11.5691 44.4261C10.5465 44.0902 8.16554 44.0317 6.95312 44.3093Z" fill="#363536"/>
<path d="M46.0279 45.0543C42.0693 45.5072 39.3523 47.7421 38.3298 51.3793C38.0961 52.2412 38.0669 53.03 38.0669 60.509V68.6891L38.4467 69.8869C39.3962 72.896 41.4266 74.7512 44.7863 75.6568C45.838 75.9344 46.4223 75.9782 50.8922 76.0366L55.8149 76.0951V71.6252V67.1553L52.0608 67.1407C49.5337 67.1407 48.1168 67.0823 47.7808 66.9654C47.0066 66.7025 46.6853 65.7676 47.0651 64.9204C47.3864 64.2046 47.5909 64.1608 51.5495 64.117L55.2306 64.0732V60.582V57.0908L51.8855 57.047C48.7449 57.0032 48.5112 56.9886 48.1168 56.6964C47.1965 56.0099 47.3572 54.6222 48.4235 54.1401C48.9494 53.9064 49.4315 53.8626 52.426 53.8626H55.8149V49.4073V44.9521L51.1843 44.9813C48.628 44.9813 46.3055 45.0251 46.0279 45.0543Z" fill="#363536"/>
<path d="M58.2982 49.4073V53.8625H61.877H65.4558V64.9641V76.0658H70.0572H74.6585V64.9641V53.8625H78.2373H81.8161V49.4073V44.952H70.0572H58.2982V49.4073Z" fill="#363536"/>
<path d="M92.6256 45.0543C88.667 45.5072 85.95 47.7421 84.9275 51.3793C84.6938 52.2412 84.6646 53.03 84.6646 60.509V68.6891L85.0443 69.8869C85.9938 72.896 88.0243 74.7512 91.384 75.6568C92.4357 75.9344 93.02 75.9782 97.4899 76.0366L102.413 76.0951V71.6252V67.1553L98.6584 67.1407C96.1314 67.1407 94.7144 67.0823 94.3785 66.9654C93.6043 66.7025 93.2829 65.7676 93.6627 64.9204C93.9841 64.2046 94.1886 64.1608 98.1472 64.117L101.828 64.0732V60.582V57.0908L98.4832 57.047C95.3426 57.0032 95.1088 56.9886 94.7144 56.6964C93.7942 56.0099 93.9549 54.6222 95.0212 54.1401C95.5471 53.9064 96.0291 53.8626 99.0236 53.8626H102.413V49.4073V44.9521L97.782 44.9813C95.2257 44.9813 92.9031 45.0251 92.6256 45.0543Z" fill="#363536"/>
<path d="M107.963 60.5089V76.0658H112.565H117.166V64.6574V53.2344L118.817 53.3074C121.3 53.4097 122.133 53.9648 122.133 55.5424C122.133 57.0615 121.329 57.8065 119.562 57.9234L118.481 57.9964V61.955V65.9136L120.745 70.9532L122.994 75.9927L127.815 76.0366C130.473 76.0512 132.65 76.0366 132.65 75.9781C132.65 75.9343 131.467 73.042 130.035 69.5655L127.406 63.2405L128.604 62.0281C130.532 60.0561 131.321 58.3032 131.437 55.6884C131.525 53.6288 131.262 52.3287 130.386 50.5466C128.867 47.4791 125.945 45.5801 121.986 45.0981C121.315 45.025 117.882 44.952 114.361 44.952H107.963V60.5089Z" fill="#363536"/>
</svg>
